<svg width="156" height="134" viewBox="0 0 156 134" fill="none" xmlns="http://www.w3.org/2000/svg">
<path opacity="0.2" d="M77.5845 133.648C120.433 133.648 155.169 113.595 155.169 88.8579C155.169 64.121 120.433 44.0679 77.5845 44.0679C34.7357 44.0679 0 64.121 0 88.8579C0 113.595 34.7357 133.648 77.5845 133.648Z" fill="#F55B28" fill-opacity="0.15"/>
<g style="mix-blend-mode:multiply" opacity="0.5">
<g style="mix-blend-mode:multiply" opacity="0.5">
<path d="M132.042 81.4801C130.603 81.2515 129.13 81.3842 127.755 81.8665L98.5389 64.9955C98.8575 64.7483 99.1182 64.4343 99.3024 64.0756C100.075 62.4106 98.3825 60.6995 95.4848 60.2488C92.5871 59.798 89.6434 60.7915 88.8707 62.4565C88.6861 62.8741 88.6475 63.3416 88.7609 63.7838C88.8744 64.2261 89.1334 64.6172 89.4963 64.8943L61.9636 80.7718C61.5069 80.608 61.0356 80.4878 60.5561 80.413C57.6676 79.9623 54.7056 80.9558 53.9329 82.6116C53.1602 84.2674 54.8528 85.9876 57.7597 86.4384C58.8137 86.5993 59.8878 86.5744 60.9333 86.3648L70.8315 92.0866C70.137 92.3579 69.5583 92.8619 69.194 93.5124C68.5133 94.9843 70.0311 96.5021 72.5793 96.8977C74.2889 97.2088 76.0533 96.8815 77.5375 95.9778L90.6921 103.576C90.6194 103.674 90.5518 103.775 90.4897 103.88C89.717 105.545 91.4096 107.256 94.3165 107.697C97.2234 108.139 100.158 107.155 100.931 105.499C101.097 105.131 101.146 104.72 101.07 104.323C100.995 103.926 100.798 103.563 100.507 103.282L112.659 96.2445C113.28 96.5727 113.952 96.7935 114.646 96.8977C117.194 97.284 119.816 96.4193 120.497 94.9475C120.938 94.0276 120.497 93.0341 119.384 92.3625L128.206 87.2663C128.552 87.3727 128.905 87.4527 129.264 87.5055C132.143 87.947 135.114 86.9627 135.887 85.2977C136.66 83.6327 134.93 81.9217 132.042 81.4801ZM91.3728 65.943C91.8012 66.0879 92.2414 66.1956 92.6883 66.2649C93.2183 66.3411 93.7537 66.3719 94.2889 66.3569L95.0616 77.8373C92.8079 77.9109 90.7841 78.7572 90.1678 80.1279C90.065 80.36 90.0087 80.61 90.0022 80.8638L64.4381 82.8324C64.3156 82.4591 64.1041 82.1213 63.8218 81.8481L91.3728 65.943ZM95.3744 101.562C94.2834 101.581 93.2086 101.828 92.2192 102.288L78.623 94.4139C78.7702 93.1261 77.3352 91.9118 75.0906 91.5622C74.5848 91.4919 74.0737 91.4673 73.5636 91.4886L63.1963 85.5001C63.7164 85.2018 64.1408 84.7614 64.4197 84.2306C64.5261 83.9932 64.5825 83.7364 64.5853 83.4763L90.131 81.4985C90.499 82.6484 91.9708 83.6235 94.0314 83.9454C94.5003 84.0154 94.9739 84.0492 95.448 84.0466L95.3744 101.562ZM94.9329 66.3293C95.4901 66.2754 96.0413 66.1707 96.5795 66.0166L125.952 82.9704C125.737 83.174 125.56 83.4137 125.428 83.6787V83.4579L100.756 81.057C100.857 79.6311 99.2564 78.2973 96.7635 77.9201C96.4072 77.8636 96.0477 77.8298 95.6872 77.8189L94.9329 66.3293ZM117.011 91.5622C114.481 91.1943 111.896 92.059 111.215 93.5124C111.113 93.7296 111.06 93.9668 111.06 94.2069C111.06 94.4471 111.113 94.6843 111.215 94.9015L98.732 102.104C98.196 101.889 97.6375 101.735 97.067 101.644C96.7045 101.588 96.339 101.554 95.9723 101.543V84.065C98.0973 83.9087 99.9463 83.0439 100.572 81.7837C100.576 81.7655 100.576 81.7466 100.572 81.7285L125.308 84.0834C125.239 84.4967 125.288 84.9211 125.451 85.3072C125.614 85.6932 125.883 86.025 126.228 86.2636L117.011 91.5622Z" fill="#005E7A"/>
</g>
<g style="mix-blend-mode:multiply" opacity="0.5">
<path d="M41.4505 103.07C54.0653 103.07 64.2917 97.164 64.2917 89.8786C64.2917 82.5932 54.0653 76.6873 41.4505 76.6873C28.8357 76.6873 18.6094 82.5932 18.6094 89.8786C18.6094 97.164 28.8357 103.07 41.4505 103.07Z" fill="#005E7A"/>
</g>
<g style="mix-blend-mode:multiply" opacity="0.5">
<path d="M48.8919 120.723C54.2569 120.723 58.606 118.211 58.606 115.112C58.606 112.013 54.2569 109.5 48.8919 109.5C43.5269 109.5 39.1777 112.013 39.1777 115.112C39.1777 118.211 43.5269 120.723 48.8919 120.723Z" fill="#005E7A"/>
</g>
<g style="mix-blend-mode:multiply" opacity="0.5">
<path d="M72.7827 101.129C76.5727 103.319 76.5727 106.87 72.7827 109.059C70.6546 110.138 68.302 110.701 65.9157 110.701C63.5294 110.701 61.1767 110.138 59.0486 109.059C55.2494 106.87 55.2494 103.319 59.0486 101.129C61.1767 100.05 63.5294 99.4871 65.9157 99.4871C68.302 99.4871 70.6546 100.05 72.7827 101.129Z" fill="#005E7A"/>
</g>
</g>
<path d="M100.251 59.5129C100.726 60.3353 100.947 61.2801 100.885 62.2279C100.823 63.1756 100.481 64.0837 99.9028 64.8373C99.3247 65.5908 98.5362 66.156 97.6368 66.4614C96.7375 66.7668 95.7678 66.7986 94.8504 66.5528C93.933 66.3071 93.109 65.7948 92.4828 65.0807C91.8565 64.3667 91.4561 63.483 91.3321 62.5413C91.2081 61.5997 91.3662 60.6424 91.7863 59.7906C92.2064 58.9388 92.8696 58.2307 93.6922 57.7558C94.7955 57.1217 96.1052 56.9505 97.3345 57.2798C98.5637 57.6091 99.6125 58.4121 100.251 59.5129Z" fill="url(#paint0_radial)"/>
<path d="M93.4562 63.4227V63.3583C93.386 63.2042 93.293 63.0615 93.1802 62.9351C93.0951 62.832 92.9923 62.7448 92.8766 62.6776C92.775 62.6134 92.6564 62.5813 92.5363 62.5856C92.4882 62.5939 92.4417 62.6094 92.3983 62.6316L62.3359 80.0453C62.3846 80.0361 62.4345 80.0361 62.4831 80.0453C62.6032 80.0411 62.7219 80.0731 62.8235 80.1373C62.9391 80.2045 63.0419 80.2917 63.127 80.3949C63.2401 80.5192 63.3304 80.6624 63.3938 80.818V80.8824C63.5502 81.2872 63.5042 81.6459 63.2834 81.8023L93.3458 64.315C93.5574 64.1862 93.6126 63.8458 93.4562 63.4227Z" fill="url(#paint1_linear)"/>
<path d="M62.8213 80.0911C63.0965 80.2677 63.3065 80.5293 63.4193 80.8363C63.6124 81.3238 63.4928 81.7562 63.1617 81.7562C63.0413 81.7629 62.922 81.7306 62.8213 81.6642C62.5485 81.489 62.339 81.2311 62.2234 80.9283C62.0394 80.4407 62.1498 80.0084 62.481 80.0084C62.6001 80.0014 62.7187 80.0302 62.8213 80.0911Z" fill="#222220"/>
<path d="M129.272 80.0731C128.997 80.2496 128.787 80.5113 128.675 80.8182C128.491 81.2965 128.601 81.7381 128.932 81.7381C129.052 81.7423 129.171 81.7103 129.272 81.6461C129.545 81.4709 129.755 81.213 129.87 80.9102C130.064 80.4226 129.944 79.9903 129.613 79.9903C129.494 79.9854 129.376 80.0141 129.272 80.0731Z" fill="#222220"/>
<path d="M99.7804 62.6131C99.7318 62.6039 99.6818 62.6039 99.6332 62.6131C99.5132 62.61 99.3949 62.6419 99.2928 62.7051C99.179 62.7748 99.0766 62.8617 98.9893 62.9627C98.9352 63.0231 98.886 63.0876 98.8421 63.1558C98.7969 63.2296 98.7569 63.3064 98.7225 63.3858V63.4502C98.5661 63.855 98.6213 64.2137 98.8329 64.3701L128.858 81.7838C128.647 81.6643 128.592 81.3055 128.748 80.8639V80.7904C128.748 80.7168 128.822 80.6432 128.868 80.5696C128.909 80.4998 128.959 80.435 129.015 80.3764C129.1 80.2729 129.202 80.1856 129.318 80.1188C129.421 80.0566 129.539 80.0247 129.659 80.0268C129.707 80.0135 129.758 80.0135 129.806 80.0268L99.7804 62.6131Z" fill="url(#paint2_linear)"/>
<path d="M136.136 80.2386C136.611 81.061 136.831 82.0059 136.769 82.9536C136.707 83.9013 136.366 84.8094 135.788 85.563C135.21 86.3166 134.421 86.8818 133.522 87.1871C132.622 87.4925 131.653 87.5243 130.735 87.2786C129.818 87.0328 128.994 86.5205 128.368 85.8065C127.741 85.0924 127.341 84.2087 127.217 83.267C127.093 82.3254 127.251 81.3681 127.671 80.5163C128.091 79.6645 128.754 78.9564 129.577 78.4816C130.123 78.1651 130.726 77.9595 131.351 77.8766C131.976 77.7936 132.612 77.835 133.221 77.9982C133.831 78.1614 134.402 78.4434 134.902 78.8278C135.402 79.2123 135.821 79.6917 136.136 80.2386Z" fill="url(#paint3_radial)"/>
<path d="M61.8077 86.5122C64.4598 86.5122 66.6096 84.3623 66.6096 81.7103C66.6096 79.0583 64.4598 76.9084 61.8077 76.9084C59.1557 76.9084 57.0059 79.0583 57.0059 81.7103C57.0059 84.3623 59.1557 86.5122 61.8077 86.5122Z" fill="url(#paint4_radial)"/>
<path d="M129.513 84.2399V84.1755C129.442 84.0236 129.353 83.8814 129.246 83.7524C129.156 83.6562 129.054 83.5726 128.942 83.504C128.839 83.4362 128.716 83.4039 128.593 83.412C128.547 83.4014 128.5 83.4014 128.455 83.412L98.4199 100.826C98.4686 100.817 98.5185 100.817 98.5671 100.826C98.6872 100.821 98.8058 100.854 98.9075 100.918C99.0231 100.985 99.1259 101.072 99.2111 101.175C99.3241 101.3 99.4144 101.443 99.4778 101.598V101.663C99.6342 102.068 99.5882 102.426 99.3766 102.583L129.402 85.1322C129.614 85.0034 129.669 84.6447 129.513 84.2399Z" fill="url(#paint5_linear)"/>
<path d="M98.8623 100.909C99.1376 101.085 99.3475 101.347 99.4603 101.654C99.6535 102.141 99.5431 102.574 99.2119 102.574C99.0881 102.586 98.9639 102.553 98.8623 102.482C98.5854 102.311 98.3746 102.052 98.2644 101.746C98.0804 101.258 98.1908 100.826 98.522 100.826C98.6412 100.819 98.7597 100.848 98.8623 100.909Z" fill="#222220"/>
<path d="M94.5108 100.145C94.238 100.32 94.0285 100.578 93.9128 100.881C93.7289 101.368 93.8393 101.801 94.1704 101.801C94.2905 101.805 94.4091 101.773 94.5108 101.709C94.786 101.532 94.996 101.271 95.1087 100.964C95.3019 100.476 95.1823 100.044 94.8603 100.044C94.7359 100.038 94.6131 100.074 94.5108 100.145Z" fill="#222220"/>
<path d="M64.9718 82.6853C64.9236 82.672 64.8728 82.672 64.8246 82.6853C64.7047 82.6832 64.5867 82.7151 64.4843 82.7773C64.3683 82.844 64.2654 82.9313 64.1807 83.0348C64.1244 83.0934 64.0751 83.1582 64.0335 83.228C63.9883 83.3018 63.9483 83.3786 63.9139 83.458V83.5224C63.7575 83.9271 63.8127 84.2859 64.0243 84.4423L94.0499 101.856C93.8383 101.727 93.7831 101.368 93.9395 100.936V100.872C93.9738 100.795 94.0138 100.721 94.0591 100.651C94.1051 100.577 94.1603 100.513 94.2063 100.449C94.2957 100.352 94.3978 100.269 94.5098 100.2C94.6133 100.132 94.736 100.1 94.8594 100.108C94.9049 100.099 94.9519 100.099 94.9974 100.108L64.9718 82.6853Z" fill="url(#paint6_linear)"/>
<path style="mix-blend-mode:screen" opacity="0.7" d="M133.737 78.7296C132.661 78.4721 131.722 78.8676 131.63 79.6036C131.538 80.3395 132.329 81.1674 133.406 81.4434C134.482 81.7193 135.42 81.3054 135.512 80.5235C135.604 79.7415 134.804 78.9872 133.737 78.7296Z" fill="url(#paint7_linear)"/>
<path style="mix-blend-mode:screen" opacity="0.7" d="M97.8137 57.9861C96.7375 57.7285 95.79 58.1241 95.7072 58.906C95.6244 59.6879 96.4063 60.4606 97.4826 60.7458C98.5589 61.031 99.4972 60.617 99.5892 59.8259C99.6812 59.0348 98.8624 58.2437 97.8137 57.9861Z" fill="url(#paint8_linear)"/>
<path style="mix-blend-mode:screen" opacity="0.7" d="M63.3247 77.9018C62.2484 77.635 61.3101 78.0305 61.2181 78.8217C61.1261 79.6128 61.9265 80.3763 62.9936 80.6615C64.0607 80.9466 65.0081 80.5327 65.1001 79.7416C65.1921 78.9504 64.401 78.1593 63.3247 77.9018Z" fill="url(#paint9_linear)"/>
<path d="M95.9363 59.1361H96.0099C96.1746 59.1593 96.3418 59.1593 96.5066 59.1361C96.6374 59.11 96.7643 59.0667 96.8838 59.0074C96.9886 58.9459 97.0745 58.8568 97.1321 58.7498C97.1416 58.7012 97.1416 58.6512 97.1321 58.6026V37.3069C97.1418 37.3555 97.1418 37.4055 97.1321 37.4541C97.0737 37.5636 96.9841 37.6532 96.8746 37.7116C96.7589 37.7724 96.6349 37.8157 96.5066 37.8404C96.3388 37.8637 96.1685 37.8637 96.0007 37.8404H95.9363C95.5039 37.776 95.2188 37.5461 95.2188 37.3069V58.5934C95.2279 58.8418 95.5039 59.0717 95.9363 59.1361Z" fill="url(#paint10_linear)"/>
<path d="M96.882 37.7115C96.5968 37.8509 96.2756 37.8991 95.9621 37.8495C95.4469 37.7667 95.1433 37.4631 95.2813 37.1596C95.3407 37.0531 95.4304 36.9667 95.5389 36.9112C95.8211 36.7625 96.1443 36.7108 96.4588 36.764C96.9832 36.8468 97.2867 37.1596 97.1487 37.4539C97.0879 37.5648 96.9949 37.6546 96.882 37.7115Z" fill="#222220"/>
<path d="M61.5425 78.9969H61.6069C61.7747 79.0202 61.945 79.0202 62.1128 78.9969C62.2428 78.9735 62.3675 78.9267 62.4808 78.8589C62.5915 78.8064 62.6819 78.7192 62.7384 78.6105C62.748 78.562 62.748 78.5119 62.7384 78.4634V57.1676C62.7522 57.2157 62.7522 57.2667 62.7384 57.3148C62.6854 57.4229 62.598 57.5102 62.49 57.5632C62.374 57.6325 62.2461 57.6793 62.1128 57.7012C61.9481 57.7245 61.7809 57.7245 61.6161 57.7012H61.5517C61.1193 57.6368 60.8342 57.4068 60.8342 57.1584V78.4542C60.825 78.7025 61.1469 78.9325 61.5425 78.9969Z" fill="#363633"/>
<path d="M62.4906 57.5629C62.2076 57.709 61.8852 57.7606 61.5707 57.7101C61.0555 57.6273 60.7428 57.3237 60.89 57.0201C60.9429 56.9121 61.0303 56.8247 61.1383 56.7718C61.4214 56.6256 61.7438 56.5741 62.0582 56.6246C62.5734 56.7074 62.877 57.0201 62.739 57.3145C62.686 57.4225 62.5986 57.5099 62.4906 57.5629Z" fill="#222220"/>
<path d="M62.1134 57.7009V78.9874C61.9455 79.0107 61.7753 79.0107 61.6074 78.9874V57.7193C61.7722 57.7426 61.9394 57.7426 62.1042 57.7193L62.1134 57.7009Z" fill="#363633"/>
<path d="M131.749 79.8154H131.814C131.981 79.8434 132.152 79.8434 132.32 79.8154C132.448 79.7908 132.572 79.7474 132.688 79.6866C132.796 79.6311 132.886 79.5447 132.945 79.4383C132.953 79.3895 132.953 79.3398 132.945 79.2911V57.9862C132.957 58.0345 132.957 58.085 132.945 58.1334C132.89 58.2395 132.803 58.3261 132.697 58.3817C132.578 58.4424 132.451 58.4858 132.32 58.5105C132.155 58.5385 131.987 58.5385 131.823 58.5105H131.749C131.326 58.4369 131.041 58.2161 131.041 57.9678V79.2727C131.059 79.4843 131.317 79.7418 131.749 79.8154Z" fill="url(#paint11_linear)"/>
<path d="M132.697 58.3816C132.412 58.5224 132.092 58.5737 131.777 58.5288C131.262 58.446 130.958 58.1332 131.106 57.8388C131.161 57.73 131.247 57.6402 131.354 57.5813C131.639 57.4419 131.96 57.3937 132.274 57.4433C132.789 57.5261 133.093 57.8296 132.955 58.1332C132.897 58.2407 132.807 58.3275 132.697 58.3816Z" fill="#222220"/>
<path d="M100.76 38.0923C101.438 35.5284 99.9092 32.9004 97.3453 32.2225C94.7814 31.5446 92.1534 33.0735 91.4755 35.6374C90.7976 38.2013 92.3265 40.8293 94.8904 41.5072C97.4543 42.1851 100.082 40.6562 100.76 38.0923Z" fill="url(#paint12_radial)"/>
<path d="M93.4562 38.3646V38.3002C93.386 38.1461 93.293 38.0034 93.1802 37.877C93.0951 37.7739 92.9923 37.6867 92.8766 37.6195C92.775 37.5553 92.6564 37.5232 92.5363 37.5275C92.4909 37.5169 92.4437 37.5169 92.3983 37.5275L62.3359 54.9872C62.3796 54.9582 62.4307 54.9422 62.4831 54.9412C62.6037 54.9324 62.7237 54.9648 62.8235 55.0332C62.9412 55.0975 63.0445 55.1851 63.127 55.2908C63.2399 55.4118 63.3303 55.552 63.3938 55.7047V55.7691C63.5502 56.1831 63.5042 56.5418 63.2834 56.689L93.3458 39.2477C93.5574 39.1281 93.6126 38.7693 93.4562 38.3646Z" fill="url(#paint13_linear)"/>
<path d="M62.8213 55.0333C63.0941 55.2085 63.3036 55.4664 63.4193 55.7693C63.6124 56.2568 63.4928 56.6892 63.1617 56.6892C63.0418 56.6913 62.9238 56.6594 62.8213 56.5972C62.5485 56.422 62.339 56.1641 62.2234 55.8613C62.0394 55.3737 62.1498 54.9414 62.481 54.9414C62.6016 54.9326 62.7216 54.965 62.8213 55.0333Z" fill="#222220"/>
<path d="M129.272 55.0148C129 55.19 128.79 55.4479 128.675 55.7507C128.491 56.2383 128.601 56.6706 128.932 56.6706C129.052 56.6749 129.171 56.6428 129.272 56.5787C129.548 56.4021 129.758 56.1405 129.87 55.8335C130.064 55.346 129.944 54.9136 129.613 54.9136C129.491 54.9096 129.372 54.9451 129.272 55.0148Z" fill="#222220"/>
<path d="M99.7804 37.555C99.7367 37.526 99.6856 37.51 99.6332 37.509C99.5132 37.5059 99.3949 37.5378 99.2928 37.601C99.1769 37.6677 99.074 37.755 98.9893 37.8586C98.933 37.9171 98.8837 37.982 98.8421 38.0517C98.7969 38.1255 98.7569 38.2023 98.7225 38.2817V38.3461C98.5661 38.7509 98.6213 39.1096 98.8329 39.266L128.858 56.6797C128.647 56.551 128.592 56.1922 128.748 55.7598V55.6954C128.782 55.619 128.822 55.5452 128.868 55.4747C128.911 55.4035 128.961 55.3359 129.015 55.2723C129.102 55.1739 129.205 55.0901 129.318 55.0239C129.419 54.9575 129.538 54.9252 129.659 54.9319C129.707 54.9225 129.757 54.9225 129.806 54.9319L99.7804 37.555Z" fill="url(#paint14_linear)"/>
<path d="M128.916 57.1858H128.861L100.417 52.0436C100.341 52.0301 100.272 51.9867 100.227 51.9229C100.183 51.859 100.165 51.78 100.178 51.7032C100.184 51.6636 100.197 51.6256 100.218 51.5916C100.239 51.5576 100.267 51.5284 100.3 51.5059C100.333 51.4833 100.37 51.468 100.409 51.4607C100.449 51.4535 100.489 51.4547 100.528 51.464L128.962 56.5971C129.032 56.6138 129.094 56.6551 129.137 56.7135C129.18 56.7719 129.2 56.8436 129.194 56.9157C129.189 56.9878 129.158 57.0555 129.107 57.1067C129.056 57.1579 128.988 57.1892 128.916 57.195V57.1858Z" fill="#363633"/>
<path d="M65.1097 56.1462C65.0376 56.1468 64.9678 56.1209 64.9136 56.0734C64.8593 56.0259 64.8243 55.9602 64.8153 55.8886C64.8046 55.8108 64.8245 55.7318 64.8709 55.6683C64.9172 55.6049 64.9863 55.5618 65.0637 55.5483L93.4979 51.4455C93.5771 51.435 93.6572 51.4562 93.7209 51.5044C93.7847 51.5526 93.8268 51.624 93.8382 51.7031C93.8487 51.7823 93.8276 51.8625 93.7794 51.9262C93.7311 51.9899 93.6597 52.032 93.5807 52.0434L65.1557 56.137L65.1097 56.1462Z" fill="#363633"/>
<path d="M96.5149 49.0444C96.4375 49.0445 96.3629 49.0151 96.3065 48.9621C96.2501 48.9091 96.216 48.8365 96.2113 48.7592L95.8986 39.1922C95.8974 39.1536 95.9038 39.1151 95.9174 39.0789C95.9311 39.0427 95.9518 39.0095 95.9783 38.9814C96.0047 38.9532 96.0365 38.9305 96.0718 38.9146C96.107 38.8987 96.1451 38.8899 96.1838 38.8887C96.2612 38.8885 96.3357 38.918 96.3922 38.971C96.4486 39.024 96.4826 39.0966 96.4873 39.1738L96.8001 48.7408C96.8013 48.7795 96.7949 48.818 96.7812 48.8542C96.7676 48.8904 96.7469 48.9235 96.7204 48.9517C96.6939 48.9799 96.6621 49.0026 96.6269 49.0185C96.5916 49.0344 96.5536 49.0432 96.5149 49.0444Z" fill="#363633"/>
<path d="M100.157 54.5577C101.588 52.7558 101.288 50.1344 99.4865 48.7027C97.6846 47.2709 95.0632 47.571 93.6315 49.3729C92.1997 51.1748 92.4998 53.7962 94.3017 55.2279C96.1036 56.6597 98.7249 56.3596 100.157 54.5577Z" fill="url(#paint15_radial)"/>
<path style="mix-blend-mode:screen" opacity="0.7" d="M98.2463 48.6766C97.3264 48.4466 96.4985 48.7869 96.4065 49.4401C96.3145 50.0932 97.0228 50.7831 97.9427 51.0131C98.8626 51.2431 99.6905 50.8935 99.7825 50.2496C99.8745 49.6057 99.1754 48.8973 98.2463 48.6766Z" fill="url(#paint16_linear)"/>
<path d="M97.7301 76.6508C97.652 76.6508 97.5772 76.6198 97.522 76.5646C97.4668 76.5094 97.4358 76.4345 97.4358 76.3564L96.7734 54.4168C96.7733 54.3369 96.8037 54.26 96.8584 54.2019C96.9132 54.1437 96.9881 54.1087 97.0678 54.104C97.1459 54.104 97.2207 54.135 97.2759 54.1902C97.3312 54.2454 97.3622 54.3203 97.3622 54.3984L98.0245 76.338C98.0246 76.4179 97.9942 76.4948 97.9395 76.5529C97.8848 76.6111 97.8098 76.6461 97.7301 76.6508Z" fill="#363633"/>
<path d="M136.136 55.1712C136.611 55.9936 136.831 56.9385 136.769 57.8862C136.707 58.834 136.366 59.742 135.788 60.4956C135.21 61.2492 134.421 61.8144 133.522 62.1198C132.622 62.4251 131.653 62.4569 130.735 62.2112C129.818 61.9654 128.994 61.4531 128.368 60.7391C127.741 60.025 127.341 59.1413 127.217 58.1996C127.093 57.258 127.251 56.3008 127.671 55.4489C128.091 54.5971 128.754 53.889 129.577 53.4142C130.123 53.0977 130.726 52.8921 131.351 52.8092C131.976 52.7262 132.612 52.7676 133.221 52.9308C133.831 53.094 134.402 53.376 134.902 53.7604C135.402 54.1449 135.821 54.6243 136.136 55.1712Z" fill="url(#paint17_radial)"/>
<path d="M65.9659 54.2419C66.4409 55.0643 66.6614 56.0091 66.5994 56.9569C66.5374 57.9046 66.1958 58.8127 65.6177 59.5663C65.0396 60.3198 64.251 60.885 63.3517 61.1904C62.4523 61.4958 61.4826 61.5276 60.5652 61.2819C59.6478 61.0361 58.8239 60.5238 58.1976 59.8097C57.5714 59.0957 57.1709 58.212 57.047 57.2703C56.923 56.3287 57.081 55.3714 57.5011 54.5196C57.9212 53.6678 58.5844 52.9597 59.407 52.4849C60.5103 51.8507 61.82 51.6795 63.0493 52.0088C64.2786 52.3381 65.3273 53.1411 65.9659 54.2419Z" fill="url(#paint18_radial)"/>
<path d="M129.513 59.1816V59.1172C129.442 58.9653 129.353 58.8231 129.246 58.694C129.155 58.5975 129.053 58.5111 128.943 58.4365C128.837 58.3731 128.716 58.3411 128.593 58.3445H128.455L98.3926 75.8042C98.4412 75.795 98.4911 75.795 98.5398 75.8042C98.6599 75.8 98.7785 75.832 98.8801 75.8962C98.9957 75.9634 99.0985 76.0506 99.1837 76.1538C99.2967 76.2781 99.387 76.4213 99.4505 76.5769V76.6413C99.6069 77.0461 99.5609 77.4048 99.3493 77.5612L129.402 60.0739C129.614 59.9451 129.669 59.5863 129.513 59.1816Z" fill="url(#paint19_linear)"/>
<path d="M98.8623 75.8502C99.1376 76.0267 99.3475 76.2884 99.4603 76.5953C99.6535 77.0828 99.5431 77.5152 99.2119 77.5152C99.0885 77.5232 98.9658 77.491 98.8623 77.4232C98.5896 77.2481 98.38 76.9902 98.2644 76.6873C98.0804 76.1997 98.1908 75.7674 98.522 75.7674C98.6412 75.7604 98.7597 75.7892 98.8623 75.8502Z" fill="#222220"/>
<path d="M94.5088 75.0776C94.2336 75.2541 94.0236 75.5158 93.9109 75.8227C93.7269 76.3102 93.8373 76.7426 94.1685 76.7426C94.2901 76.748 94.4099 76.7124 94.5088 76.6414C94.7858 76.4709 94.9966 76.2115 95.1068 75.9055C95.3 75.4179 95.1804 74.9856 94.8584 74.9856C94.7355 74.9822 94.6142 75.0142 94.5088 75.0776Z" fill="#222220"/>
<path d="M64.9712 57.6179C64.9226 57.6085 64.8727 57.6085 64.8241 57.6179C64.7037 57.6112 64.5843 57.6435 64.4837 57.7099C64.37 57.7761 64.2675 57.8599 64.1801 57.9583C64.1259 58.0219 64.0768 58.0895 64.033 58.1607C63.9866 58.2131 63.9436 58.2684 63.9042 58.3262V58.3906C63.7478 58.7954 63.803 59.1541 64.0145 59.3105L94.0217 76.7243C93.8101 76.5955 93.7549 76.2367 93.9113 75.8044V75.74C93.9437 75.6625 93.9838 75.5886 94.0309 75.5192C94.0769 75.4456 94.1321 75.3812 94.1781 75.3168C94.2675 75.2179 94.3695 75.1313 94.4817 75.0592C94.587 74.9958 94.7083 74.9639 94.8312 74.9672H94.9692L64.9712 57.6179Z" fill="url(#paint20_linear)"/>
<path style="mix-blend-mode:screen" opacity="0.7" d="M133.737 53.6716C132.661 53.414 131.722 53.8004 131.63 54.5915C131.538 55.3826 132.329 56.1461 133.406 56.4313C134.482 56.7165 135.42 56.2933 135.512 55.5114C135.604 54.7295 134.804 53.9292 133.737 53.6716Z" fill="url(#paint21_linear)"/>
<path style="mix-blend-mode:screen" opacity="0.7" d="M97.8137 32.9277C96.7375 32.6702 95.79 33.0657 95.7072 33.8476C95.6244 34.6295 96.4063 35.4023 97.4826 35.6874C98.5589 35.9726 99.4972 35.5494 99.5892 34.7675C99.6812 33.9856 98.8624 33.1853 97.8137 32.9277Z" fill="url(#paint22_linear)"/>
<path style="mix-blend-mode:screen" opacity="0.7" d="M63.3247 52.8071C62.2484 52.5496 61.3101 52.9451 61.2181 53.727C61.1261 54.5089 61.9265 55.2817 62.9936 55.5668C64.0607 55.852 65.0081 55.438 65.1001 54.6929C65.1921 53.9478 64.401 53.0923 63.3247 52.8071Z" fill="url(#paint23_linear)"/>
<path d="M131.169 82.9983H131.123L123.616 83.6515C123.542 83.6785 123.46 83.6754 123.388 83.6427C123.315 83.6101 123.259 83.5505 123.23 83.4767C123.215 83.4399 123.208 83.4005 123.209 83.361C123.21 83.3214 123.219 83.2824 123.235 83.2463C123.251 83.2103 123.275 83.1779 123.304 83.151C123.333 83.1242 123.367 83.1036 123.405 83.0903L130.911 82.4372C130.948 82.4225 130.987 82.4154 131.027 82.4163C131.066 82.4172 131.105 82.4261 131.141 82.4424C131.178 82.4587 131.21 82.4822 131.237 82.5113C131.264 82.5404 131.284 82.5747 131.297 82.612C131.328 82.6809 131.331 82.7586 131.307 82.83C131.284 82.9013 131.234 82.9613 131.169 82.9983Z" fill="#363633"/>
<path d="M122.266 79.8061C122.195 79.7739 122.141 79.7154 122.113 79.6431C122.085 79.5708 122.088 79.4905 122.119 79.4197L129.68 61.0217C129.711 60.9496 129.768 60.8921 129.84 60.8612C129.912 60.8304 129.993 60.8285 130.067 60.8561C130.137 60.8884 130.193 60.9464 130.222 61.0182C130.251 61.09 130.251 61.1703 130.223 61.2425L122.661 79.6405C122.629 79.7132 122.57 79.7703 122.496 79.7996C122.422 79.8288 122.339 79.8278 122.266 79.7969V79.8061Z" fill="#363633"/>
<path d="M123.919 80.8825C124.332 81.5964 124.524 82.4166 124.47 83.2395C124.416 84.0623 124.12 84.8507 123.618 85.5049C123.116 86.1591 122.431 86.6496 121.65 86.9144C120.869 87.1792 120.027 87.2064 119.231 86.9924C118.434 86.7785 117.719 86.3332 117.176 85.7127C116.633 85.0923 116.286 84.3246 116.18 83.507C116.073 82.6893 116.211 81.8584 116.577 81.1194C116.943 80.3803 117.52 79.7665 118.234 79.3554C119.191 78.8053 120.327 78.6572 121.393 78.9434C122.458 79.2297 123.367 79.9271 123.919 80.8825Z" fill="url(#paint24_radial)"/>
<path style="mix-blend-mode:screen" opacity="0.7" d="M121.657 79.6678C120.737 79.4471 119.909 79.7874 119.817 80.4314C119.725 81.0753 120.424 81.7836 121.353 82.0136C122.282 82.2436 123.101 81.894 123.193 81.2501C123.285 80.6061 122.595 79.8978 121.657 79.6678Z" fill="url(#paint25_linear)"/>
<path d="M101.364 77.7823C101.292 77.7828 101.222 77.7569 101.167 77.7094C101.113 77.662 101.078 77.5962 101.069 77.5247C101.059 77.4468 101.078 77.3679 101.125 77.3044C101.171 77.2409 101.24 77.1979 101.318 77.1843L116.698 82.1518C116.737 82.1453 116.777 82.1465 116.815 82.1555C116.853 82.1646 116.889 82.1811 116.921 82.2043C116.953 82.2274 116.979 82.2567 117 82.2903C117.02 82.324 117.033 82.3613 117.039 82.4002C117.049 82.4794 117.028 82.5595 116.98 82.6233C116.932 82.687 116.86 82.7291 116.781 82.7405L101.364 77.7823Z" fill="#363633"/>
<path d="M101.132 100.494C101.08 100.438 101.051 100.364 101.051 100.287C101.051 100.211 101.08 100.137 101.132 100.08L117.488 85.4265C117.545 85.3714 117.621 85.3406 117.7 85.3406C117.779 85.3406 117.855 85.3714 117.911 85.4265C117.966 85.4816 117.996 85.5559 117.996 85.6334C117.996 85.7109 117.966 85.7853 117.911 85.8404L101.565 100.494C101.508 100.55 101.432 100.58 101.353 100.58C101.274 100.58 101.198 100.55 101.141 100.494H101.132Z" fill="#363633"/>
<path d="M63.0677 82.8047H63.1137L71.6596 83.4486C71.6964 83.4633 71.7357 83.4704 71.7753 83.4695C71.8149 83.4686 71.8539 83.4597 71.8899 83.4434C71.926 83.4271 71.9584 83.4037 71.9852 83.3745C72.0121 83.3454 72.0327 83.3112 72.046 83.2739C72.0605 83.2377 72.0675 83.199 72.0665 83.1601C72.0655 83.1211 72.0565 83.0828 72.0402 83.0475C72.0238 83.0121 72.0003 82.9805 71.9713 82.9546C71.9422 82.9287 71.9082 82.909 71.8712 82.8967L63.3253 82.2436C63.2508 82.2165 63.1687 82.2197 63.0966 82.2523C63.0244 82.285 62.9678 82.3446 62.939 82.4184C62.9126 82.4877 62.911 82.5641 62.9345 82.6345C62.958 82.7049 63.005 82.765 63.0677 82.8047Z" fill="#363633"/>
<path d="M73.0018 79.5945C73.0374 79.5795 73.0698 79.5575 73.0969 79.5299C73.1241 79.5024 73.1456 79.4697 73.1601 79.4338C73.1746 79.3979 73.1819 79.3595 73.1816 79.3208C73.1813 79.2821 73.1733 79.2438 73.1581 79.2082L64.0787 60.0558C64.0637 60.0202 64.0417 59.9878 64.0141 59.9606C63.9865 59.9335 63.9539 59.912 63.918 59.8975C63.8821 59.883 63.8437 59.8757 63.805 59.876C63.7663 59.8763 63.728 59.8843 63.6923 59.8994C63.6234 59.9334 63.5693 59.9915 63.5404 60.0628C63.5116 60.134 63.51 60.2134 63.536 60.2858L72.6062 79.4841C72.6204 79.5206 72.6417 79.5539 72.6689 79.5821C72.6961 79.6102 72.7286 79.6326 72.7646 79.6481C72.8006 79.6635 72.8393 79.6716 72.8784 79.6719C72.9176 79.6721 72.9564 79.6646 72.9926 79.6497L73.0018 79.5945Z" fill="#363633"/>
<path d="M71.3462 80.6709C70.9345 81.3848 70.7438 82.2047 70.7981 83.027C70.8524 83.8492 71.1493 84.637 71.6512 85.2905C72.1531 85.9441 72.8375 86.4342 73.6179 86.6988C74.3983 86.9635 75.2397 86.9908 76.0356 86.7774C76.8315 86.5639 77.5463 86.1193 78.0896 85.4996C78.6329 84.88 78.9802 84.1132 79.0877 83.2962C79.1953 82.4792 79.0582 81.6487 78.6938 80.9096C78.3293 80.1705 77.7539 79.556 77.0404 79.1439C76.0823 78.5934 74.9451 78.445 73.8778 78.7312C72.8106 79.0174 71.9002 79.7149 71.3462 80.6709Z" fill="url(#paint26_radial)"/>
<path style="mix-blend-mode:screen" opacity="0.7" d="M76.508 79.714C75.5881 79.4932 74.7602 79.8336 74.6682 80.4775C74.5762 81.1214 75.2845 81.8298 76.2136 82.0505C77.1427 82.2713 77.9614 81.9309 78.0534 81.287C78.1454 80.6431 77.4371 79.9348 76.508 79.714Z" fill="url(#paint27_linear)"/>
<path d="M93.913 77.5709C93.9911 77.577 94.0684 77.5518 94.1279 77.501C94.1874 77.4501 94.2243 77.3776 94.2304 77.2995C94.2365 77.2215 94.2113 77.1442 94.1604 77.0847C94.1095 77.0251 94.0371 76.9883 93.959 76.9822L78.6242 81.9404C78.545 81.9299 78.4649 81.9511 78.4011 81.9993C78.3374 82.0475 78.2953 82.1189 78.2839 82.198C78.2734 82.2772 78.2945 82.3574 78.3428 82.4211C78.391 82.4848 78.4624 82.527 78.5415 82.5384L93.959 77.5709H93.913Z" fill="#363633"/>
<path d="M94.1416 100.292C94.1947 100.235 94.2241 100.159 94.2241 100.081C94.2241 100.002 94.1947 99.9268 94.1416 99.8691L77.7582 85.215C77.7015 85.16 77.6256 85.1292 77.5466 85.1292C77.4676 85.1292 77.3917 85.16 77.3351 85.215C77.2806 85.2701 77.25 85.3445 77.25 85.422C77.25 85.4995 77.2806 85.5739 77.3351 85.629L93.6817 100.283C93.7091 100.311 93.742 100.334 93.7784 100.349C93.8147 100.365 93.8538 100.373 93.8933 100.373C93.9328 100.373 93.9718 100.365 94.0082 100.349C94.0445 100.334 94.0774 100.311 94.1048 100.283L94.1416 100.292Z" fill="#363633"/>
<path d="M97.7023 107.228C100.354 107.228 102.504 105.078 102.504 102.426C102.504 99.7744 100.354 97.6245 97.7023 97.6245C95.0503 97.6245 92.9004 99.7744 92.9004 102.426C92.9004 105.078 95.0503 107.228 97.7023 107.228Z" fill="url(#paint28_radial)"/>
<path style="mix-blend-mode:screen" opacity="0.7" d="M99.2485 98.6362C98.1815 98.3787 97.234 98.7742 97.142 99.5561C97.05 100.338 97.8503 101.111 98.9174 101.396C99.9845 101.681 100.932 101.258 101.024 100.476C101.116 99.6941 100.325 98.8938 99.2485 98.6362Z" fill="url(#paint29_linear)"/>
<path d="M97.3451 99.7213H97.4186C97.583 99.7493 97.751 99.7493 97.9154 99.7213C98.0466 99.6966 98.1736 99.6532 98.2926 99.5925C98.3987 99.5369 98.4853 99.4503 98.5409 99.3441C98.5526 99.2958 98.5526 99.2453 98.5409 99.1969V77.846C98.5484 77.8948 98.5484 77.9444 98.5409 77.9932C98.4827 78.0974 98.3968 78.1834 98.2926 78.2416C98.173 78.3009 98.0462 78.3442 97.9154 78.3704C97.751 78.3982 97.5831 78.3982 97.4186 78.3704H97.3451C96.9127 78.2968 96.6367 78.076 96.6367 77.8276V99.1142C96.6367 99.3809 96.9219 99.6017 97.3451 99.7213Z" fill="url(#paint30_linear)"/>
<path d="M98.2999 78.242C98.0152 78.3828 97.6945 78.4341 97.38 78.3892C96.8649 78.3064 96.5613 77.9936 96.6993 77.6993C96.7577 77.5898 96.8474 77.5001 96.9569 77.4417C97.2407 77.2981 97.5633 77.2497 97.8768 77.3037C98.3919 77.3865 98.6955 77.6901 98.5575 77.9936C98.4968 78.0991 98.4075 78.1852 98.2999 78.242Z" fill="#222220"/>
<path d="M101.86 74.9674C102.335 75.7899 102.556 76.7347 102.494 77.6825C102.432 78.6302 102.09 79.5383 101.512 80.2919C100.934 81.0454 100.146 81.6106 99.2462 81.916C98.3469 82.2214 97.3772 82.2532 96.4597 82.0074C95.5423 81.7617 94.7184 81.2494 94.0921 80.5353C93.4659 79.8213 93.0655 78.9376 92.9415 77.9959C92.8175 77.0543 92.9756 76.097 93.3956 75.2452C93.8157 74.3934 94.479 73.6853 95.3015 73.2104C96.4049 72.5763 97.7146 72.4051 98.9438 72.7344C100.173 73.0637 101.222 73.8667 101.86 74.9674Z" fill="url(#paint31_radial)"/>
<path style="mix-blend-mode:screen" opacity="0.7" d="M99.2485 73.5781C98.1815 73.3205 97.234 73.7161 97.142 74.498C97.05 75.2799 97.8503 76.0619 98.9174 76.3378C99.9845 76.6138 100.932 76.1998 101.024 75.4179C101.116 74.636 100.325 73.8357 99.2485 73.5781Z" fill="url(#paint32_linear)"/>
<path d="M58.7616 68.2708C51.3196 72.5943 39.2229 72.5943 31.7349 68.2708C27.9633 66.0998 26.0867 63.2389 26.0867 60.3872L26.0039 90.3576C26.0039 93.2093 27.8437 96.061 31.6429 98.2411C39.1309 102.565 51.2368 102.565 58.6696 98.2411C62.3492 96.0886 64.189 93.2737 64.235 90.4588L64.3178 60.4976C64.3086 63.3125 62.4596 66.1182 58.7616 68.2708Z" fill="url(#paint33_linear)"/>
<path d="M58.6805 52.6137C51.1925 48.2902 39.0866 48.2902 31.6446 52.6137C24.2026 56.9373 24.2854 63.9469 31.7366 68.2521C39.1878 72.5572 51.3213 72.5756 58.7633 68.2521C66.2053 63.9285 66.1593 56.9373 58.6805 52.6137Z" fill="url(#paint34_linear)"/>
<path d="M56.1684 54.0672C50.0786 50.5531 40.2265 50.5531 34.1643 54.0672C28.1022 57.5812 28.139 63.2662 34.2379 66.8078C40.3369 70.3494 50.1798 70.3218 56.242 66.8078C62.3041 63.2938 62.2673 57.5904 56.1684 54.0672Z" fill="#212121"/>
<path opacity="0.6" d="M60.7386 60.1661V13.4995H29.6367V60.7364C29.7747 62.9442 31.2833 65.1336 34.2362 66.817C40.3352 70.331 50.1781 70.331 56.2403 66.817C59.3955 64.9772 60.8858 62.5486 60.7386 60.1661Z" fill="url(#paint35_linear)"/>
<path style="mix-blend-mode:screen" d="M44.9819 70.2942C54.3909 70.2942 62.0185 65.8915 62.0185 60.4605C62.0185 55.0294 54.3909 50.6267 44.9819 50.6267C35.5728 50.6267 27.9453 55.0294 27.9453 60.4605C27.9453 65.8915 35.5728 70.2942 44.9819 70.2942Z" fill="url(#paint36_radial)"/>
<path style="mix-blend-mode:screen" d="M51.6142 62.8154C53.1597 63.7353 53.1597 65.1612 51.6142 66.0535C50.7443 66.4932 49.7832 66.7224 48.8085 66.7224C47.8338 66.7224 46.8727 66.4932 46.0028 66.0535C44.4574 65.1336 44.4574 63.7077 46.0028 62.8154C46.8727 62.3756 47.8338 62.1465 48.8085 62.1465C49.7832 62.1465 50.7443 62.3756 51.6142 62.8154Z" fill="url(#paint37_radial)"/>
<path style="mix-blend-mode:screen" d="M57.8418 62.8154C59.3873 63.7353 59.3873 65.1612 57.8418 66.0535C56.9719 66.4932 56.0108 66.7224 55.0361 66.7224C54.0614 66.7224 53.1003 66.4932 52.2304 66.0535C50.6758 65.1336 50.6758 63.7077 52.2304 62.8154C53.1003 62.3756 54.0614 62.1465 55.0361 62.1465C56.0108 62.1465 56.9719 62.3756 57.8418 62.8154Z" fill="url(#paint38_radial)"/>
<path style="mix-blend-mode:screen" d="M57.4658 55.3181C59.0204 56.238 59.0204 57.6638 57.4658 58.5653C56.5959 59.0051 55.6348 59.2343 54.6601 59.2343C53.6854 59.2343 52.7243 59.0051 51.8544 58.5653C50.309 57.6454 50.309 56.2196 51.8544 55.3181C52.7243 54.8783 53.6854 54.6492 54.6601 54.6492C55.6348 54.6492 56.5959 54.8783 57.4658 55.3181Z" fill="url(#paint39_radial)"/>
<path style="mix-blend-mode:screen" d="M42.6542 68.5647C44.8439 68.5647 46.619 67.5392 46.619 66.2742C46.619 65.0092 44.8439 63.9836 42.6542 63.9836C40.4645 63.9836 38.6895 65.0092 38.6895 66.2742C38.6895 67.5392 40.4645 68.5647 42.6542 68.5647Z" fill="url(#paint40_radial)"/>
<path style="mix-blend-mode:screen" d="M37.2266 61.8403C38.772 62.7602 38.772 64.1861 37.2266 65.0784C36.358 65.5224 35.3964 65.754 34.4209 65.754C33.4454 65.754 32.4838 65.5224 31.6152 65.0784C30.0606 64.1585 30.0606 62.7418 31.6152 61.8403C32.4851 61.4005 33.4462 61.1714 34.4209 61.1714C35.3956 61.1714 36.3567 61.4005 37.2266 61.8403Z" fill="url(#paint41_radial)"/>
<path style="mix-blend-mode:screen" d="M41.4869 58.1149C43.0416 59.0348 43.0416 60.4606 41.4869 61.3529C40.6202 61.7976 39.66 62.0296 38.6858 62.0296C37.7116 62.0296 36.7515 61.7976 35.8847 61.3529C34.3301 60.433 34.3301 59.0164 35.8847 58.1149C36.753 57.6752 37.7126 57.446 38.6858 57.446C39.6591 57.446 40.6187 57.6752 41.4869 58.1149Z" fill="url(#paint42_radial)"/>
<path style="mix-blend-mode:screen" d="M44.2363 59.2371C46.4259 59.2371 48.201 58.2116 48.201 56.9466C48.201 55.6815 46.4259 54.656 44.2363 54.656C42.0466 54.656 40.2715 55.6815 40.2715 56.9466C40.2715 58.2116 42.0466 59.2371 44.2363 59.2371Z" fill="url(#paint43_radial)"/>
<path d="M43.4004 47.7935V60.5065C43.4097 60.6483 43.4574 60.7848 43.5384 60.9015C43.6194 61.0182 43.7307 61.1106 43.8603 61.1688C44.2112 61.3459 44.5988 61.4382 44.9918 61.4382C45.3849 61.4382 45.7724 61.3459 46.1233 61.1688C46.2526 61.1142 46.3646 61.0254 46.4473 60.912C46.5299 60.7985 46.5801 60.6647 46.5924 60.5249V48.4282L43.4004 47.7935Z" fill="#85FFF3"/>
<path d="M55.1553 39.5325C55.1158 39.5241 55.0751 39.5241 55.0357 39.5325V37.6927C55.0323 37.7071 55.0256 37.7205 55.016 37.7317C55.0064 37.7429 54.9942 37.7516 54.9805 37.7571C54.9946 37.7519 55.0067 37.7425 55.0153 37.7301C55.0239 37.7178 55.0285 37.7031 55.0285 37.6881C55.0285 37.6731 55.0239 37.6584 55.0153 37.6461C55.0067 37.6338 54.9946 37.6244 54.9805 37.6191C54.9448 37.6013 54.9054 37.592 54.8655 37.592C54.8256 37.592 54.7862 37.6013 54.7505 37.6191C54.7368 37.6247 54.7247 37.6334 54.715 37.6446C54.7054 37.6558 54.6987 37.6692 54.6953 37.6835V56.9095C54.6953 56.9095 54.6953 56.9095 54.7505 56.9739C54.7868 56.9828 54.8247 56.9828 54.8609 56.9739V64.4159C54.8643 64.4302 54.871 64.4436 54.8806 64.4548C54.8902 64.466 54.9024 64.4747 54.9161 64.4803C54.9534 64.4982 54.9943 64.5075 55.0357 64.5075C55.0771 64.5075 55.118 64.4982 55.1553 64.4803C55.1553 64.4803 55.2013 64.4803 55.2013 64.4159V39.6061C55.2013 39.6061 55.2013 39.6521 55.1553 39.6705C55.1693 39.6653 55.1815 39.6559 55.1901 39.6435C55.1987 39.6312 55.2033 39.6165 55.2033 39.6015C55.2033 39.5865 55.1987 39.5718 55.1901 39.5595C55.1815 39.5472 55.1693 39.5378 55.1553 39.5325Z" fill="#85FFF3"/>
<path d="M42.5996 41.3264C42.5639 41.3086 42.5245 41.2993 42.4846 41.2993C42.4447 41.2993 42.4054 41.3086 42.3696 41.3264C42.356 41.3319 42.3438 41.3407 42.3342 41.3519C42.3246 41.3631 42.3178 41.3764 42.3145 41.3908V66.1729C42.3153 66.1893 42.3211 66.205 42.3309 66.2181C42.3407 66.2312 42.3542 66.2411 42.3696 66.2465C42.4054 66.2644 42.4447 66.2736 42.4846 66.2736C42.5245 66.2736 42.5639 66.2644 42.5996 66.2465C42.6151 66.2411 42.6286 66.2312 42.6384 66.2181C42.6482 66.205 42.6539 66.1893 42.6548 66.1729V41.3908C42.6539 41.4071 42.6482 41.4229 42.6384 41.436C42.6286 41.4491 42.6151 41.459 42.5996 41.4644C42.6137 41.4592 42.6259 41.4498 42.6344 41.4374C42.643 41.4251 42.6476 41.4104 42.6476 41.3954C42.6476 41.3804 42.643 41.3657 42.6344 41.3534C42.6259 41.341 42.6137 41.3316 42.5996 41.3264Z" fill="#85FFF3"/>
<path d="M38.9551 34.786C38.9178 34.7681 38.8769 34.7588 38.8355 34.7588C38.7941 34.7588 38.7532 34.7681 38.7159 34.786C38.7028 34.7936 38.6917 34.8042 38.6837 34.8171C38.6757 34.8299 38.6709 34.8445 38.6699 34.8596V59.6418C38.6723 59.6553 38.6777 59.668 38.6856 59.6792C38.6936 59.6903 38.7039 59.6995 38.7159 59.7062C38.7532 59.7241 38.7941 59.7334 38.8355 59.7334C38.8769 59.7334 38.9178 59.7241 38.9551 59.7062C38.9551 59.7062 39.0011 59.7062 39.0011 59.6418V34.8596C39.0011 34.8596 39.0011 34.8596 38.9551 34.924C38.9091 34.9884 39.0655 34.832 38.9551 34.786Z" fill="#85FFF3"/>
<path d="M44.5215 32.0448C44.4842 32.0269 44.4433 32.0176 44.4019 32.0176C44.3605 32.0176 44.3197 32.0269 44.2823 32.0448C44.2823 32.0448 44.2363 32.0448 44.2363 32.1092V56.8914C44.2373 56.9065 44.2421 56.9211 44.2501 56.9339C44.2581 56.9468 44.2692 56.9574 44.2823 56.965C44.3197 56.9829 44.3605 56.9922 44.4019 56.9922C44.4433 56.9922 44.4842 56.9829 44.5215 56.965C44.536 56.9591 44.5482 56.9489 44.5565 56.9357C44.5648 56.9224 44.5686 56.9069 44.5675 56.8914V32.1092C44.5686 32.1248 44.5648 32.1403 44.5565 32.1535C44.5482 32.1667 44.536 32.177 44.5215 32.1828C44.5356 32.1776 44.5477 32.1682 44.5563 32.1558C44.5649 32.1435 44.5695 32.1288 44.5695 32.1138C44.5695 32.0988 44.5649 32.0841 44.5563 32.0718C44.5477 32.0595 44.5356 32.0501 44.5215 32.0448Z" fill="#85FFF3"/>
<path d="M34.3848 38.5115C34.3491 38.4936 34.3097 38.4844 34.2698 38.4844C34.2299 38.4844 34.1905 38.4936 34.1548 38.5115C34.1394 38.5169 34.1259 38.5268 34.116 38.5399C34.1062 38.553 34.1005 38.5687 34.0996 38.5851V63.3672C34.103 63.3816 34.1097 63.3949 34.1193 63.4061C34.129 63.4173 34.1411 63.4261 34.1548 63.4316C34.1905 63.4494 34.2299 63.4587 34.2698 63.4587C34.3097 63.4587 34.3491 63.4494 34.3848 63.4316C34.3848 63.4316 34.44 63.4316 34.44 63.3672V38.5851C34.44 38.5851 34.44 38.6311 34.3848 38.6495C34.3296 38.6679 34.4676 38.5575 34.3848 38.5115Z" fill="#85FFF3"/>
<path opacity="0.8" d="M49.866 49.3021C44.9354 49.3021 37.567 47.0943 33.639 43.0008C32.1031 41.3687 31.1659 39.2641 30.9805 37.0306C30.9807 36.4513 31.0644 35.8751 31.2289 35.3196C31.1812 34.8947 31.1812 34.4658 31.2289 34.0409C31.6788 32.2821 32.7675 30.7539 34.2829 29.7542C34.6672 29.1191 35.2063 28.5918 35.8499 28.2218C36.4934 27.8518 37.2203 27.651 37.9625 27.6384C38.1095 27.629 38.257 27.629 38.4041 27.6384C38.4819 27.6088 38.5536 27.5651 38.6157 27.5096C38.6503 27.4702 38.6906 27.4361 38.7353 27.4084C39.0761 27.1838 39.4363 26.9898 39.8115 26.8289L40.2071 26.6449C40.9906 26.2252 41.8581 25.9863 42.746 25.9458H42.8288C43.2065 25.9837 43.5743 26.0897 43.9143 26.2586C44.1156 26.3567 44.3291 26.4278 44.549 26.4701C44.8158 26.4701 45.1009 26.4701 45.3769 26.5253C46.1112 26.4908 46.843 26.6328 47.5111 26.9393C47.7955 27.0975 48.0662 27.2791 48.3206 27.482C48.6764 27.7799 49.0852 28.0077 49.5257 28.1536C49.9242 28.2519 50.2974 28.4337 50.6204 28.6871C50.8115 28.8655 50.9841 29.0627 51.1355 29.2758C51.2716 29.4705 51.429 29.6495 51.6047 29.8094H51.6691C51.7191 29.856 51.7747 29.8962 51.8346 29.929C52.3879 30.2624 52.8821 30.6851 53.2973 31.18L53.6376 31.594C53.7931 31.8123 53.9687 32.0155 54.162 32.2011C54.2335 32.2658 54.3105 32.3243 54.392 32.3759C54.5789 32.4844 54.7342 32.6398 54.8427 32.8267C54.9784 33.1208 55.0803 33.4294 55.1463 33.7466C55.2116 34.0663 55.3199 34.3758 55.4682 34.6665L55.5326 34.7677C55.6614 34.9884 55.7994 35.2092 55.9466 35.4392C56.3797 36.0363 56.7237 36.6932 56.9677 37.3894C57.5615 39.0363 57.8332 40.7821 57.768 42.5316C57.6238 43.6568 57.2877 44.7489 56.7745 45.7605C56.5869 46.1532 56.342 46.5159 56.0478 46.8368C55.9052 46.9554 55.7475 47.0544 55.5786 47.1311C55.4099 47.2068 55.2546 47.3093 55.1187 47.4347C54.4472 48.6398 52.5798 49.3021 49.866 49.3021Z" fill="url(#paint44_linear)"/>
<path d="M56.0486 35.3289C56.4843 35.9458 56.8311 36.6208 57.0789 37.3343C57.6526 39.0104 57.8993 40.781 57.8056 42.5501C57.6578 43.6845 57.3188 44.7856 56.8029 45.8066C56.6157 46.2068 56.364 46.5735 56.0578 46.892C55.9156 47.0206 55.7542 47.1261 55.5795 47.2048C55.4207 47.2756 55.2747 47.372 55.1471 47.49C54.4296 48.7042 52.5898 49.3758 49.8301 49.3758C44.881 49.3758 37.4942 47.1588 33.5478 43.0469C32.0113 41.4277 31.0566 39.3437 30.8341 37.1227C30.8306 36.5334 30.9175 35.9471 31.0917 35.3841C31.0342 34.9598 31.0342 34.5297 31.0917 34.1054C31.5453 32.3261 32.6478 30.7807 34.1825 29.7727C34.5739 29.1309 35.122 28.5992 35.7753 28.2275C36.4286 27.8558 37.1657 27.6563 37.9173 27.6477C38.0674 27.6383 38.218 27.6383 38.3681 27.6477C38.4243 27.6136 38.4768 27.5735 38.5245 27.5281L38.6532 27.4269C38.9941 27.2022 39.3543 27.0083 39.7295 26.8474L40.1343 26.6634C40.9363 26.2189 41.8307 25.967 42.7468 25.9275H42.9768C43.3647 25.9641 43.7423 26.0733 44.0899 26.2495C44.2842 26.3391 44.4878 26.4069 44.697 26.4518L45.5341 26.507C46.2783 26.4709 47.0202 26.6161 47.6959 26.9302C47.9811 27.0918 48.2547 27.2731 48.5146 27.4729C48.8625 27.77 49.2658 27.9951 49.7013 28.1353C50.1068 28.2395 50.4859 28.4275 50.8143 28.6872C51.0132 28.8641 51.1893 29.0649 51.3387 29.2851C51.4755 29.4765 51.6328 29.6523 51.8079 29.8095L51.9458 29.9015C52.4898 30.2065 52.9781 30.6015 53.3901 31.0697L53.7304 31.4837C53.8883 31.6972 54.0637 31.8972 54.2548 32.0816C54.3246 32.1485 54.4017 32.2071 54.4848 32.2564C54.6732 32.374 54.8308 32.5349 54.9447 32.7256C55.0835 33.0185 55.1854 33.3275 55.2483 33.6455C55.312 33.9657 55.4204 34.2753 55.5702 34.5654L55.6254 34.6666L55.6259 34.6673C55.7637 34.8878 55.9016 35.1083 56.0486 35.3289Z" fill="#85FFF3"/>
<path style="mix-blend-mode:screen" opacity="0.6" d="M57.0613 13.4995H48.8926V69.1995C51.4748 68.8805 53.9725 68.0719 56.2518 66.817C56.5462 66.6422 56.8129 66.4674 57.0705 66.2835L57.0613 13.4995Z" fill="url(#paint45_linear)"/>
<path d="M58.7616 18.8995C51.3196 23.223 39.2229 23.223 31.7349 18.8995C27.9633 16.7285 26.0867 13.8768 26.0867 11.0251L26.0039 14.53C26.0039 17.3725 27.8437 20.2334 31.6429 22.4043C39.1309 26.7279 51.2368 26.7279 58.6696 22.4043C62.3492 20.261 64.189 17.4461 64.235 14.6312L64.3178 11.1263C64.3086 13.9412 62.4596 16.7561 58.7616 18.8995Z" fill="url(#paint46_linear)"/>
<path d="M58.6805 3.24265C51.1925 -1.08088 39.0866 -1.08088 31.6446 3.24265C24.2026 7.56619 24.2854 14.5758 31.7366 18.881C39.1878 23.1861 51.3213 23.2045 58.7633 18.881C66.2053 14.5574 66.1593 7.56619 58.6805 3.24265Z" fill="url(#paint47_linear)"/>
<path d="M56.1684 4.70516C50.0786 1.18194 40.2265 1.18194 34.1643 4.70516C28.1022 8.22838 28.139 13.9042 34.2379 17.4458C40.3369 20.9874 50.1798 20.969 56.242 17.4458C62.3041 13.9226 62.2673 8.21918 56.1684 4.70516Z" fill="#363633"/>
<path d="M60.6475 70.0088C60.0613 70.4755 59.4468 70.9056 58.8077 71.2967C57.5536 72.0091 56.2316 72.5946 54.8613 73.0445V93.4387C56.1836 93.0018 57.4593 92.4348 58.6697 91.7461C59.3624 91.3429 60.0236 90.8878 60.6475 90.3846V70.0088Z" fill="#212121"/>
<path d="M58.5778 85.1047C58.5531 85.3499 58.4712 85.5859 58.3386 85.7936C58.2059 86.0013 58.0264 86.175 57.8143 86.3005C57.3912 86.5489 57.0508 86.4017 57.0508 85.9786C57.0755 85.7334 57.1575 85.4974 57.2901 85.2897C57.4227 85.0819 57.6023 84.9083 57.8143 84.7827C58.2375 84.5343 58.5778 84.6815 58.5778 85.1047ZM57.8143 88.4899C57.6016 88.617 57.4217 88.7922 57.289 89.0015C57.1564 89.2108 57.0748 89.4484 57.0508 89.695C57.0508 90.1181 57.3912 90.2561 57.8143 90.0169C58.0271 89.8899 58.207 89.7147 58.3396 89.5053C58.4722 89.296 58.5538 89.0585 58.5778 88.8119C58.5778 88.3979 58.2375 88.2507 57.8143 88.4899ZM57.8143 75.1697C58.0275 75.0433 58.2079 74.8682 58.3405 74.6587C58.4732 74.4493 58.5545 74.2115 58.5778 73.9647C58.5778 73.5507 58.2375 73.4035 57.8143 73.6427C57.6016 73.7698 57.4217 73.945 57.289 74.1543C57.1564 74.3636 57.0748 74.6012 57.0508 74.8478C57.0508 75.2709 57.3912 75.4089 57.8143 75.1697ZM57.8143 77.3591C57.6023 77.4847 57.4227 77.6583 57.2901 77.8661C57.1575 78.0738 57.0755 78.3098 57.0508 78.555C57.0508 78.9781 57.3912 79.1253 57.8143 78.8769C58.0273 78.7525 58.2077 78.5791 58.3405 78.3712C58.4732 78.1632 58.5546 77.9267 58.5778 77.6811C58.5778 77.2579 58.2375 77.1107 57.8143 77.3591ZM57.8143 81.0387C57.6016 81.1658 57.4217 81.341 57.289 81.5503C57.1564 81.7596 57.0748 81.9972 57.0508 82.2438C57.0508 82.6669 57.3912 82.8049 57.8143 82.5657C58.0271 82.4387 58.207 82.2635 58.3396 82.0541C58.4722 81.8448 58.5538 81.6073 58.5778 81.3607C58.5778 80.9743 58.2375 80.8271 57.8143 81.0663V81.0387Z" fill="url(#paint48_linear)"/>
<path style="mix-blend-mode:screen" d="M62.9853 74.3142C62.9853 75.313 62.6891 76.2894 62.1342 77.12C61.5792 77.9505 60.7905 78.5978 59.8677 78.98C58.9449 79.3623 57.9294 79.4623 56.9498 79.2674C55.9701 79.0725 55.0703 78.5915 54.364 77.8853C53.6577 77.179 53.1767 76.2791 52.9818 75.2994C52.7869 74.3198 52.887 73.3043 53.2692 72.3815C53.6514 71.4587 54.2988 70.67 55.1293 70.115C55.9598 69.5601 56.9362 69.2639 57.935 69.2639C58.5986 69.2627 59.2558 69.3925 59.8691 69.6459C60.4824 69.8993 61.0396 70.2712 61.5088 70.7404C61.978 71.2096 62.35 71.7668 62.6033 72.3801C62.8567 72.9934 62.9865 73.6506 62.9853 74.3142Z" fill="url(#paint49_radial)"/>
<path style="mix-blend-mode:screen" opacity="0.8" d="M62.9853 78.0213C62.9871 79.0205 62.6924 79.9978 62.1386 80.8296C61.5848 81.6613 60.7967 82.31 59.874 82.6937C58.9514 83.0773 57.9357 83.1786 56.9554 82.9848C55.9752 82.791 55.0744 82.3107 54.3672 81.6048C53.66 80.8989 53.1781 79.999 52.9825 79.0191C52.7869 78.0392 52.8864 77.0233 53.2683 76.1C53.6503 75.1766 54.2976 74.3873 55.1283 73.832C55.959 73.2767 56.9358 72.9802 57.935 72.9802C59.2729 72.9802 60.556 73.511 61.5029 74.4562C62.4497 75.4013 62.9828 76.6835 62.9853 78.0213Z" fill="url(#paint50_radial)"/>
<path style="mix-blend-mode:screen" opacity="0.6" d="M62.9852 81.7377C62.9924 82.7369 62.7031 83.7158 62.1538 84.5505C61.6046 85.3853 60.82 86.0383 59.8995 86.427C58.979 86.8156 57.9638 86.9225 56.9825 86.7341C56.0012 86.5456 55.0979 86.0703 54.3868 85.3682C53.6758 84.6662 53.1889 83.769 52.988 82.7902C52.787 81.8114 52.8809 80.7949 53.2578 79.8695C53.6347 78.9441 54.2777 78.1513 55.1053 77.5914C55.9329 77.0315 56.9081 76.7297 57.9073 76.7243C58.5701 76.7194 59.2273 76.8453 59.8414 77.0948C60.4554 77.3442 61.0143 77.7123 61.4859 78.1779C61.9576 78.6436 62.3327 79.1977 62.59 79.8085C62.8473 80.4194 62.9815 81.0749 62.9852 81.7377Z" fill="url(#paint51_radial)"/>
<path style="mix-blend-mode:screen" opacity="0.3" d="M62.9853 85.4449C62.9871 86.443 62.6931 87.4192 62.1405 88.2503C61.5879 89.0814 60.8014 89.7302 59.8804 90.1146C58.9593 90.4991 57.945 90.602 56.9655 90.4104C55.986 90.2188 55.0853 89.7413 54.377 89.0381C53.6687 88.3349 53.1846 87.4377 52.9859 86.4596C52.7872 85.4815 52.8827 84.4665 53.2605 83.5427C53.6382 82.6189 54.2812 81.8277 55.1083 81.269C55.9353 80.7104 56.9094 80.4093 57.9074 80.4039C58.5722 80.4003 59.2311 80.5279 59.8464 80.7795C60.4617 81.0311 61.0213 81.4017 61.4931 81.87C61.9648 82.3384 62.3395 82.8953 62.5956 83.5087C62.8517 84.1222 62.9841 84.7802 62.9853 85.4449Z" fill="url(#paint52_radial)"/>
<path style="mix-blend-mode:screen" opacity="0.2" d="M62.9852 89.1614C62.9797 90.1579 62.6796 91.1305 62.1226 91.9568C61.5656 92.783 60.7766 93.426 59.8549 93.8049C58.9332 94.1837 57.9201 94.2814 56.943 94.0856C55.9659 93.8899 55.0686 93.4095 54.3639 92.7048C53.6593 92.0002 53.1789 91.1029 52.9832 90.1258C52.7874 89.1487 52.8851 88.1356 53.2639 87.2139C53.6427 86.2922 54.2857 85.5032 55.112 84.9462C55.9383 84.3892 56.9109 84.089 57.9074 84.0836C58.5752 84.0799 59.2372 84.2088 59.8549 84.4626C60.4726 84.7165 61.0338 85.0904 61.5061 85.5627C61.9783 86.0349 62.3522 86.5962 62.6061 87.2139C62.86 87.8316 62.9889 88.4936 62.9852 89.1614Z" fill="url(#paint53_radial)"/>
<path d="M73.1025 107.587C71.2625 108.521 69.2281 109.008 67.1645 109.008C65.101 109.008 63.0666 108.521 61.2266 107.587C59.5707 106.667 58.7428 105.37 58.752 104.119V105.664C58.752 106.915 59.5707 108.166 61.2266 109.123C63.0666 110.057 65.101 110.544 67.1645 110.544C69.2281 110.544 71.2625 110.057 73.1025 109.123C74.7215 108.203 75.5402 106.943 75.5402 105.71V104.165C75.531 105.407 74.7123 106.639 73.1025 107.587Z" fill="url(#paint54_linear)"/>
<path d="M73.103 100.706C71.2643 99.7676 69.2293 99.2783 67.165 99.2783C65.1007 99.2783 63.0657 99.7676 61.227 100.706C57.9614 102.601 57.9706 105.683 61.227 107.587C63.067 108.521 65.1015 109.008 67.165 109.008C69.2285 109.008 71.263 108.521 73.103 107.587C76.3594 105.683 76.341 102.601 73.103 100.706Z" fill="url(#paint55_linear)"/>
<path d="M70.731 102.058C69.6149 101.487 68.3789 101.188 67.125 101.188C65.871 101.188 64.6351 101.487 63.519 102.058C61.5412 103.208 61.5504 105.075 63.519 106.234C64.6347 106.802 65.8687 107.097 67.1204 107.097C68.372 107.097 69.606 106.802 70.7218 106.234C72.7364 105.075 72.7272 103.208 70.731 102.058Z" fill="#212121"/>
<path opacity="0.7" d="M73.9574 103.981V66.2649H60.2969V104.211C60.38 104.789 60.6072 105.338 60.9576 105.805C61.308 106.273 61.7704 106.645 62.3023 106.888C63.7982 107.649 65.4531 108.047 67.1318 108.047C68.8104 108.047 70.4653 107.649 71.9612 106.888C73.3687 106.106 74.0218 105.039 73.9574 103.981Z" fill="url(#paint56_linear)"/>
<path style="mix-blend-mode:screen" d="M72.3298 101.065C75.2551 102.748 75.2551 105.49 72.3298 107.173C70.6899 108.008 68.8759 108.443 67.0358 108.443C65.1957 108.443 63.3817 108.008 61.7418 107.173C58.8257 105.49 58.8257 102.748 61.7418 101.065C63.383 100.235 65.1965 99.8022 67.0358 99.8022C68.8751 99.8022 70.6886 100.235 72.3298 101.065Z" fill="url(#paint57_radial)"/>
<path style="mix-blend-mode:screen" d="M72.3298 101.065C75.2551 102.748 75.2551 105.49 72.3298 107.173C70.6899 108.008 68.8759 108.443 67.0358 108.443C65.1957 108.443 63.3817 108.008 61.7418 107.173C58.8257 105.49 58.8257 102.748 61.7418 101.065C63.383 100.235 65.1965 99.8022 67.0358 99.8022C68.8751 99.8022 70.6886 100.235 72.3298 101.065Z" fill="url(#paint58_radial)"/>
<path d="M65.6142 104.929C63.9583 104.625 63.6088 103.871 63.6088 103.291C63.6122 102.971 63.691 102.656 63.8388 102.371C64.607 101.055 65.5338 99.8377 66.5985 98.7469C66.2581 98.7469 65.9085 98.6549 65.5866 98.5905C65.2283 98.5679 64.8789 98.4692 64.5617 98.3011C64.2445 98.1329 63.9667 97.8992 63.7468 97.6154C63.6163 97.3754 63.5519 97.105 63.56 96.8319C63.5681 96.5588 63.6484 96.2927 63.7928 96.0608C64.5655 94.7474 65.4919 93.5307 66.5525 92.4364C66.2121 92.4364 65.8626 92.3444 65.5406 92.2892C63.8848 91.9764 63.5352 91.2221 63.5352 90.6426C63.5397 90.3223 63.6184 90.0074 63.7652 89.7227C64.5383 88.4123 65.4647 87.1987 66.5249 86.1075L65.513 85.9511C65.1556 85.9245 64.8076 85.8241 64.491 85.6562C64.1743 85.4884 63.8959 85.2568 63.6732 84.976C63.5428 84.7359 63.4783 84.4656 63.4864 84.1925C63.4944 83.9194 63.5748 83.6533 63.7192 83.4214C64.4896 82.1064 65.4162 80.8894 66.4789 79.797C66.1385 79.751 65.789 79.705 65.467 79.6406C63.8112 79.3278 63.4616 78.5735 63.4616 78.0031C63.465 77.6827 63.5438 77.3676 63.6916 77.0832C64.4578 75.7654 65.3848 74.548 66.4513 73.4588C66.1017 73.4128 65.7614 73.3668 65.4394 73.3025C65.0816 73.2775 64.7331 73.1778 64.4162 73.0099C64.0993 72.8419 63.8211 72.6094 63.5996 72.3274C63.4692 72.0873 63.4047 71.8169 63.4128 71.5438C63.4209 71.2707 63.5012 71.0047 63.6456 70.7727C64.4609 69.4071 65.4368 68.1439 66.5525 67.0103L66.9848 66.7896H67.0492C68.2267 66.9367 69.441 67.0931 70.0113 67.7095C70.5817 68.3258 70.0665 69.8436 68.3187 71.895C67.9691 72.309 67.6012 72.7229 67.2424 73.1277C68.3555 73.2749 69.4778 73.4404 70.0021 74.0476C70.1713 74.2403 70.2601 74.4905 70.2505 74.7467C70.2505 75.5378 69.579 76.7521 68.3095 78.2423C67.9599 78.6563 67.592 79.0702 67.2332 79.475C68.3463 79.6222 69.4686 79.7878 69.9929 80.3949C70.5173 81.002 70.0481 82.5383 68.3003 84.5896L67.224 85.8223C68.3371 85.9695 69.4594 86.1351 69.9837 86.7422C70.1545 86.9339 70.2437 87.1848 70.2321 87.4413C70.2321 88.2325 69.5606 89.4375 68.2911 90.937L67.2148 92.1696C68.2072 92.1865 69.1705 92.5076 69.9745 93.0895C70.6093 93.7795 70.0297 95.2237 68.2819 97.2751C67.9323 97.689 67.5644 98.103 67.2056 98.5077C68.1973 98.5287 69.1594 98.8494 69.9653 99.4277C70.1347 99.6166 70.2238 99.864 70.2137 100.118C70.2137 100.918 69.5422 102.123 68.2727 103.613C68.246 103.623 68.2166 103.623 68.1899 103.613H67.9415C67.9216 103.612 67.902 103.607 67.8844 103.598C67.8669 103.588 67.8518 103.574 67.8403 103.558C67.8268 103.543 67.8193 103.523 67.8193 103.503C67.8193 103.482 67.8268 103.463 67.8403 103.448C69.395 101.608 70.0021 100.237 69.4778 99.6852C68.9534 99.1333 67.9048 99.0229 66.8193 98.8849C65.7607 99.9539 64.8342 101.146 64.0596 102.436C63.9388 102.625 63.8702 102.843 63.8605 103.068C63.8508 103.292 63.9004 103.515 64.0043 103.714C64.4117 104.194 64.9885 104.497 65.6142 104.561C65.6332 104.564 65.6512 104.572 65.667 104.583C65.6829 104.594 65.6962 104.609 65.7062 104.625C65.715 104.64 65.7197 104.658 65.7197 104.676C65.7197 104.693 65.715 104.711 65.7062 104.726L65.467 104.947C65.44 104.955 65.4112 104.955 65.3842 104.947L65.6142 104.929ZM67.086 92.5284C66.0274 93.5974 65.1009 94.7895 64.3263 96.0792C64.2057 96.2704 64.1371 96.4899 64.1274 96.7158C64.1177 96.9417 64.1673 97.1662 64.2711 97.3671C64.6788 97.8444 65.2561 98.1446 65.8809 98.2042C66.2305 98.2686 66.5985 98.3238 66.9664 98.3698C67.3436 97.9466 67.7299 97.5143 68.0887 97.0911C69.6433 95.2513 70.2505 93.8806 69.7261 93.3287C69.2018 92.7768 68.1715 92.6664 67.086 92.5284ZM67.086 86.2179C66.0295 87.2887 65.1032 88.4806 64.3263 89.7687C64.2057 89.9599 64.1371 90.1794 64.1274 90.4053C64.1177 90.6312 64.1673 90.8557 64.2711 91.0566C64.6763 91.537 65.2549 91.8379 65.8809 91.8937C66.2305 91.958 66.5985 92.0132 66.9664 92.0592C67.3436 91.6361 67.7299 91.2129 68.0887 90.7898C69.6433 88.95 70.2505 87.5701 69.7261 87.0182C69.2018 86.4662 68.1715 86.3559 67.086 86.2179ZM67.086 79.9073C66.0295 80.9782 65.1032 82.17 64.3263 83.4582C64.2057 83.6494 64.1371 83.8688 64.1274 84.0948C64.1177 84.3207 64.1673 84.5452 64.2711 84.746C64.6763 85.2265 65.2549 85.5273 65.8809 85.5831C66.2305 85.6567 66.5985 85.7027 66.9664 85.7487C67.3436 85.3256 67.7299 84.9024 68.0887 84.4793C69.6433 82.6395 70.2505 81.2688 69.7261 80.7077C69.2018 80.1465 68.1715 80.0453 67.086 79.9073ZM67.086 73.5968C66.0316 74.6695 65.1055 75.8611 64.3263 77.1476C64.2057 77.3389 64.1371 77.5583 64.1274 77.7842C64.1177 78.0101 64.1673 78.2347 64.2711 78.4355C64.6785 78.9147 65.2553 79.2179 65.8809 79.2818C66.2305 79.3462 66.5985 79.3922 66.9664 79.4382C67.3436 79.0242 67.7299 78.5919 68.0887 78.1687C69.6433 76.3289 70.2505 74.9583 69.7261 74.3971C69.2018 73.836 68.1715 73.7348 67.086 73.5968ZM67.086 67.2955C66.0299 68.3633 65.1036 69.5521 64.3263 70.8371C64.2057 71.0283 64.1371 71.2478 64.1274 71.4737C64.1177 71.6996 64.1673 71.9241 64.2711 72.125C64.6785 72.6042 65.2553 72.9074 65.8809 72.9713C66.2305 73.0357 66.5985 73.0817 66.9664 73.1369C67.3436 72.7137 67.7299 72.2814 68.0887 71.8582C69.6433 70.0184 70.2505 68.6478 69.7261 68.0958C69.2018 67.5439 68.1715 67.4335 67.086 67.2955Z" fill="url(#paint59_linear)"/>
<path style="mix-blend-mode:screen" opacity="0.6" d="M72.3493 66.2927H68.7617V108.001C69.8912 107.862 70.9839 107.509 71.9814 106.962L72.3493 106.722V66.2927Z" fill="url(#paint60_linear)"/>
<path d="M73.1044 68.666C71.2644 69.6001 69.23 70.0869 67.1665 70.0869C65.103 70.0869 63.0685 69.6001 61.2285 68.666C59.5727 67.7461 58.7448 66.4583 58.754 65.198V66.7434C58.754 67.9945 59.5727 69.2456 61.2285 70.2023C63.0672 71.1407 65.1022 71.6299 67.1665 71.6299C69.2308 71.6299 71.2657 71.1407 73.1044 70.2023C74.7235 69.2824 75.5422 68.0221 75.5422 66.7894V65.244C75.533 66.4859 74.7143 67.7185 73.1044 68.666Z" fill="url(#paint61_linear)"/>
<path d="M73.1049 61.7849C71.2649 60.8508 69.2305 60.364 67.167 60.364C65.1034 60.364 63.069 60.8508 61.229 61.7849C57.9633 63.6891 57.9725 66.7616 61.229 68.6658C63.069 69.5999 65.1034 70.0867 67.167 70.0867C69.2305 70.0867 71.2649 69.5999 73.1049 68.6658C76.3614 66.7616 76.343 63.6799 73.1049 61.7849Z" fill="url(#paint62_linear)"/>
<path d="M71.954 62.4291C70.4578 61.663 68.8009 61.2634 67.1199 61.2634C65.4389 61.2634 63.782 61.663 62.2858 62.4291C59.6273 63.9745 59.6457 66.4767 62.2858 68.0221C63.7817 68.7838 65.4366 69.1809 67.1153 69.1809C68.794 69.1809 70.4489 68.7838 71.9448 68.0221C74.6493 66.4767 74.6309 63.9745 71.954 62.4291Z" fill="#363633"/>
<path d="M56.5452 117.136C54.7052 118.07 52.6708 118.557 50.6072 118.557C48.5437 118.557 46.5093 118.07 44.6693 117.136C43.0134 116.216 42.1855 114.928 42.1855 113.668V115.213C42.1855 116.464 43.0134 117.715 44.6693 118.672C46.5061 119.611 48.5397 120.101 50.6026 120.101C52.6656 120.101 54.6991 119.611 56.536 118.672C58.1642 117.752 58.9737 116.492 58.9829 115.259V113.714C58.9921 114.956 58.1734 116.188 56.5452 117.136Z" fill="url(#paint63_linear)"/>
<path d="M56.5459 110.255C54.7059 109.321 52.6715 108.834 50.6079 108.834C48.5444 108.834 46.51 109.321 44.6699 110.255C41.3951 112.159 41.4135 115.232 44.6699 117.136C46.51 118.07 48.5444 118.557 50.6079 118.557C52.6715 118.557 54.7059 118.07 56.5459 117.136C59.8207 115.232 59.8023 112.159 56.5459 110.255Z" fill="url(#paint64_linear)"/>
<path d="M54.1895 111.607C53.0721 111.04 51.8366 110.744 50.5835 110.744C49.3303 110.744 48.0949 111.04 46.9775 111.607C44.9905 112.757 45.0089 114.633 46.9775 115.783C48.0933 116.351 49.3273 116.646 50.5789 116.646C51.8306 116.646 53.0645 116.351 54.1803 115.783C56.1949 114.624 56.1857 112.757 54.1895 111.607Z" fill="#212121"/>
<path opacity="0.7" d="M57.4663 113.52V75.8044H43.7598V113.75C43.8461 114.328 44.0745 114.875 44.4245 115.342C44.7746 115.809 45.2353 116.182 45.7651 116.427C47.2627 117.189 48.9191 117.586 50.5992 117.586C52.2794 117.586 53.9358 117.189 55.4333 116.427C56.8316 115.655 57.4663 114.587 57.4663 113.52Z" fill="url(#paint65_linear)"/>
<path style="mix-blend-mode:screen" d="M55.7898 110.614C58.7151 112.306 58.7151 115.038 55.7898 116.731C54.1486 117.561 52.3351 117.994 50.4958 117.994C48.6565 117.994 46.843 117.561 45.2018 116.731C42.2765 115.038 42.2765 112.306 45.2018 110.614C46.843 109.783 48.6565 109.351 50.4958 109.351C52.3351 109.351 54.1486 109.783 55.7898 110.614Z" fill="url(#paint66_radial)"/>
<path style="mix-blend-mode:screen" d="M55.7898 110.614C58.7151 112.306 58.7151 115.038 55.7898 116.731C54.1486 117.561 52.3351 117.994 50.4958 117.994C48.6565 117.994 46.843 117.561 45.2018 116.731C42.2765 115.038 42.2765 112.306 45.2018 110.614C46.843 109.783 48.6565 109.351 50.4958 109.351C52.3351 109.351 54.1486 109.783 55.7898 110.614Z" fill="url(#paint67_radial)"/>
<path d="M49.0778 114.44C47.4128 114.137 47.0725 113.383 47.0725 112.803C47.0769 112.483 47.1556 112.168 47.3024 111.883C48.073 110.568 48.9996 109.351 50.0621 108.259C49.731 108.259 49.3814 108.167 49.0594 108.112C48.7024 108.083 48.355 107.982 48.0386 107.814C47.7221 107.647 47.4434 107.416 47.2196 107.136C47.0933 106.893 47.0321 106.621 47.0418 106.347C47.0514 106.073 47.1317 105.806 47.2748 105.573C48.0473 104.262 48.9738 103.048 50.0345 101.957L49.0318 101.801C47.3668 101.488 47.0265 100.734 47.0265 100.164C47.0285 99.8429 47.1073 99.5275 47.2564 99.2437C48.0262 97.9282 48.9529 96.7112 50.0161 95.6192L49.0134 95.4629C48.6559 95.4368 48.3077 95.3366 47.991 95.1688C47.6743 95.0009 47.3959 94.769 47.1736 94.4878C47.0473 94.2461 46.9859 93.9757 46.9956 93.7031C47.0053 93.4306 47.0857 93.1652 47.2288 92.9331C48.0009 91.6193 48.9274 90.4025 49.9885 89.3087C49.6574 89.3087 49.3078 89.2167 48.9858 89.1523C47.3208 88.8396 46.9805 88.0945 46.9805 87.5149C46.9839 87.1945 47.0627 86.8794 47.2104 86.595C47.981 85.2801 48.9076 84.0631 49.9701 82.9706C49.6298 82.9706 49.2894 82.8786 48.9675 82.8142C48.6096 82.7898 48.2608 82.6904 47.9438 82.5224C47.6268 82.3544 47.3488 82.1216 47.1277 81.8391C47.0465 81.5998 47.0241 81.3444 47.0626 81.0946C47.101 80.8448 47.199 80.6079 47.3484 80.4041C48.1613 79.042 49.1341 77.782 50.2461 76.6509L50.6877 76.4209H50.7613C51.9479 76.5681 53.1622 76.7245 53.7233 77.3408C54.2845 77.9571 53.7877 79.4842 51.9939 81.508C51.6444 81.9219 51.2764 82.3359 50.9176 82.7406C51.9096 82.7599 52.8722 83.0807 53.6773 83.6605C53.7638 83.7523 53.8305 83.861 53.8732 83.9797C53.916 84.0984 53.9338 84.2246 53.9257 84.3505C53.9257 85.1508 53.2634 86.3558 51.9939 87.8461C51.6444 88.26 51.2764 88.674 50.9176 89.0787C51.9089 89.102 52.8704 89.4225 53.6773 89.9986C54.3213 90.6886 53.7417 92.142 51.9939 94.1934C51.6444 94.6073 51.2764 95.0213 50.9176 95.4261C52.0307 95.5732 53.1438 95.7388 53.6773 96.346C53.8465 96.5387 53.9354 96.7889 53.9257 97.0451C53.9257 97.8362 53.2634 99.0505 51.9939 100.541L50.9176 101.773C52.0307 101.921 53.1438 102.086 53.6773 102.693C54.2109 103.3 53.7417 104.837 51.9939 106.888L50.9176 108.001C51.9104 108.016 52.8744 108.337 53.6773 108.921C53.8482 109.113 53.9373 109.364 53.9257 109.62C53.9257 110.411 53.2634 111.616 51.9939 113.116C51.967 113.124 51.9381 113.124 51.9111 113.116H51.6628C51.6423 113.118 51.6216 113.114 51.6035 113.104C51.5854 113.094 51.5708 113.079 51.5616 113.061C51.548 113.045 51.5405 113.026 51.5405 113.005C51.5405 112.985 51.548 112.965 51.5616 112.95C53.1254 111.11 53.7233 109.74 53.2082 109.188C52.693 108.636 51.626 108.525 50.5497 108.387C49.488 109.454 48.5612 110.646 47.79 111.938C47.6693 112.13 47.6007 112.349 47.5911 112.575C47.5814 112.801 47.6309 113.025 47.7348 113.226C48.1412 113.705 48.7192 114.006 49.3446 114.063C49.3641 114.066 49.3823 114.075 49.397 114.088C49.4117 114.101 49.4223 114.118 49.4274 114.137C49.4379 114.15 49.4436 114.166 49.4436 114.183C49.4436 114.2 49.4379 114.216 49.4274 114.229L49.1882 114.44C49.1582 114.449 49.1263 114.449 49.0962 114.44C49.0962 114.44 49.0778 114.486 49.0778 114.44ZM50.5497 102.04C49.4904 103.108 48.5638 104.301 47.79 105.591C47.6693 105.782 47.6007 106.002 47.5911 106.228C47.5814 106.453 47.6309 106.678 47.7348 106.879C47.9348 107.118 48.1799 107.314 48.4562 107.458C48.7325 107.602 49.0344 107.689 49.3446 107.716C49.6942 107.78 50.0621 107.836 50.4301 107.882C50.8073 107.458 51.1844 107.035 51.5432 106.612C53.107 104.772 53.7049 103.392 53.1898 102.84C52.6747 102.289 51.626 102.215 50.5497 102.077V102.04ZM50.5497 95.7296C49.4904 96.798 48.5638 97.9902 47.79 99.2804C47.6693 99.4717 47.6007 99.6911 47.5911 99.917C47.5814 100.143 47.6309 100.367 47.7348 100.568C48.1403 101.05 48.7181 101.354 49.3446 101.415C49.6942 101.479 50.0621 101.525 50.4301 101.571C50.8073 101.157 51.1844 100.725 51.5432 100.302C53.107 98.4617 53.7049 97.0911 53.1898 96.5299C52.6747 95.9688 51.626 95.9044 50.5497 95.7664V95.7296ZM50.5497 89.4191C49.4925 90.4893 48.5661 91.6813 47.79 92.9699C47.6693 93.1612 47.6007 93.3806 47.5911 93.6065C47.5814 93.8324 47.6309 94.0569 47.7348 94.2578C48.1403 94.7393 48.7181 95.0431 49.3446 95.1041C49.6942 95.1685 50.0621 95.2145 50.4301 95.2605C50.8073 94.8465 51.1844 94.4142 51.5432 93.991C53.107 92.1512 53.7049 90.7806 53.1898 90.2194C52.6747 89.6583 51.626 89.6031 50.5497 89.4559V89.4191ZM50.5497 83.1178C49.488 84.1841 48.5612 85.3766 47.79 86.6686C47.6693 86.8581 47.6006 87.0761 47.5909 87.3005C47.5812 87.525 47.6308 87.7481 47.7348 87.9473C48.1403 88.4288 48.7181 88.7325 49.3446 88.7936C49.6942 88.858 50.0621 88.904 50.4301 88.9592C50.8073 88.536 51.1844 88.1037 51.5432 87.6805C53.107 85.8407 53.7049 84.47 53.1898 83.9181C52.6747 83.3662 51.626 83.2926 50.5497 83.1638V83.1178ZM50.5497 76.8073C49.488 77.8736 48.5612 79.0661 47.79 80.3581C47.6693 80.5476 47.6006 80.7655 47.5909 80.99C47.5812 81.2145 47.6308 81.4375 47.7348 81.6367C47.9343 81.8767 48.1792 82.075 48.4554 82.2202C48.7316 82.3654 49.0338 82.4548 49.3446 82.4831C49.6942 82.5474 50.0621 82.6026 50.4301 82.6486C50.8073 82.2255 51.1844 81.7931 51.5432 81.37C53.107 79.5302 53.7049 78.1595 53.1898 77.6076C52.6747 77.0556 51.626 76.982 50.5497 76.8441V76.8073Z" fill="url(#paint68_linear)"/>
<path style="mix-blend-mode:screen" opacity="0.6" d="M55.8005 75.8044H52.2129V117.467C53.3465 117.334 54.4433 116.98 55.4417 116.427C55.5662 116.355 55.686 116.275 55.8005 116.188V75.8044Z" fill="url(#paint69_linear)"/>
<path d="M56.5452 78.2147C54.7052 79.1488 52.6708 79.6356 50.6072 79.6356C48.5437 79.6356 46.5093 79.1488 44.6693 78.2147C43.0134 77.2948 42.1855 76.0069 42.1855 74.7559V76.2921C42.1855 77.5432 43.0134 78.7942 44.6693 79.7509C46.5061 80.69 48.5397 81.1796 50.6026 81.1796C52.6656 81.1796 54.6991 80.69 56.536 79.7509C58.1642 78.831 58.9737 77.5708 58.9829 76.3381V74.8019C58.9921 76.0345 58.1734 77.2672 56.5452 78.2147Z" fill="url(#paint70_linear)"/>
<path d="M56.5459 71.334C54.7059 70.3999 52.6715 69.9131 50.6079 69.9131C48.5444 69.9131 46.51 70.3999 44.6699 71.334C41.3951 73.2382 41.4135 76.3199 44.6699 78.2149C46.51 79.1489 48.5444 79.6358 50.6079 79.6358C52.6715 79.6358 54.7059 79.1489 56.5459 78.2149C59.8207 76.3107 59.8023 73.2382 56.5459 71.334Z" fill="url(#paint71_linear)"/>
<path d="M55.4144 71.978C53.9169 71.2162 52.2605 70.8191 50.5804 70.8191C48.9002 70.8191 47.2438 71.2162 45.7463 71.978C43.0878 73.5234 43.097 76.0255 45.7463 77.571C47.2425 78.3371 48.8994 78.7366 50.5804 78.7366C52.2613 78.7366 53.9182 78.3371 55.4144 77.571C58.1098 76.0255 58.0914 73.5234 55.4144 71.978Z" fill="#363633"/>
<defs>
<radialGradient id="paint0_radial" cx="0" cy="0" r="1" gradientUnits="userSpaceOnUse" gradientTransform="translate(97.9881 59.9544) scale(7.5064)">
<stop stop-color="#E1E7E8"/>
<stop offset="0.21" stop-color="#DDE3E4"/>
<stop offset="0.41" stop-color="#D2D8D9"/>
<stop offset="0.61" stop-color="#BEC5C7"/>
<stop offset="0.71" stop-color="#B2B9BB"/>
<stop offset="0.81" stop-color="#B6BDBF"/>
<stop offset="0.93" stop-color="#C3CACB"/>
<stop offset="1" stop-color="#D0D6D7"/>
</radialGradient>
<linearGradient id="paint1_linear" x1="77.5787" y1="71.1683" x2="78.5814" y2="72.9069" gradientUnits="userSpaceOnUse">
<stop offset="0.14" stop-color="#D5DBDC"/>
<stop offset="1" stop-color="#B3BABC"/>
</linearGradient>
<linearGradient id="paint2_linear" x1="11259.3" y1="1653.2" x2="11244" y2="1696.1" gradientUnits="userSpaceOnUse">
<stop offset="0.14" stop-color="#D5DBDC"/>
<stop offset="1" stop-color="#B3BABC"/>
</linearGradient>
<radialGradient id="paint3_radial" cx="0" cy="0" r="1" gradientUnits="userSpaceOnUse" gradientTransform="translate(3767.59 974.086) scale(78.3669 78.3943)">
<stop stop-color="#E1E7E8"/>
<stop offset="0.21" stop-color="#DDE3E4"/>
<stop offset="0.41" stop-color="#D2D8D9"/>
<stop offset="0.61" stop-color="#BEC5C7"/>
<stop offset="0.71" stop-color="#B2B9BB"/>
<stop offset="0.81" stop-color="#B6BDBF"/>
<stop offset="0.93" stop-color="#C3CACB"/>
<stop offset="1" stop-color="#D0D6D7"/>
</radialGradient>
<radialGradient id="paint4_radial" cx="0" cy="0" r="1" gradientUnits="userSpaceOnUse" gradientTransform="translate(2964.84 963.145) scale(78.3668)">
<stop stop-color="#E1E7E8"/>
<stop offset="0.21" stop-color="#DDE3E4"/>
<stop offset="0.41" stop-color="#D2D8D9"/>
<stop offset="0.61" stop-color="#BEC5C7"/>
<stop offset="0.71" stop-color="#B2B9BB"/>
<stop offset="0.81" stop-color="#B6BDBF"/>
<stop offset="0.93" stop-color="#C3CACB"/>
<stop offset="1" stop-color="#D0D6D7"/>
</radialGradient>
<linearGradient id="paint5_linear" x1="11232.4" y1="2108.48" x2="11247.6" y2="2151.39" gradientUnits="userSpaceOnUse">
<stop offset="0.14" stop-color="#D5DBDC"/>
<stop offset="1" stop-color="#B3BABC"/>
</linearGradient>
<linearGradient id="paint6_linear" x1="10046.4" y1="2092.05" x2="10031.2" y2="2134.95" gradientUnits="userSpaceOnUse">
<stop offset="0.14" stop-color="#D5DBDC"/>
<stop offset="1" stop-color="#B3BABC"/>
</linearGradient>
<linearGradient id="paint7_linear" x1="134.85" y1="78.5549" x2="132.881" y2="80.8914" gradientUnits="userSpaceOnUse">
<stop stop-color="#E1E7E8"/>
<stop offset="0.3" stop-color="#DDE3E4"/>
<stop offset="0.58" stop-color="#D2D8D9"/>
<stop offset="0.86" stop-color="#BEC5C7"/>
<stop offset="1" stop-color="#B2B9BB"/>
</linearGradient>
<linearGradient id="paint8_linear" x1="1424.15" y1="258.346" x2="1418.43" y2="267.412" gradientUnits="userSpaceOnUse">
<stop stop-color="#E1E7E8"/>
<stop offset="0.3" stop-color="#DDE3E4"/>
<stop offset="0.58" stop-color="#D2D8D9"/>
<stop offset="0.86" stop-color="#BEC5C7"/>
<stop offset="1" stop-color="#B2B9BB"/>
</linearGradient>
<linearGradient id="paint9_linear" x1="1244.1" y1="342.035" x2="1238.34" y2="351.119" gradientUnits="userSpaceOnUse">
<stop stop-color="#E1E7E8"/>
<stop offset="0.3" stop-color="#DDE3E4"/>
<stop offset="0.58" stop-color="#D2D8D9"/>
<stop offset="0.86" stop-color="#BEC5C7"/>
<stop offset="1" stop-color="#B2B9BB"/>
</linearGradient>
<linearGradient id="paint10_linear" x1="95.2279" y1="48.2353" x2="97.1689" y2="48.2353" gradientUnits="userSpaceOnUse">
<stop stop-color="#B3BABC"/>
<stop offset="0.86" stop-color="#D5DBDC"/>
</linearGradient>
<linearGradient id="paint11_linear" x1="850.255" y1="1818.39" x2="854.31" y2="1818.39" gradientUnits="userSpaceOnUse">
<stop stop-color="#B3BABC"/>
<stop offset="0.86" stop-color="#D5DBDC"/>
</linearGradient>
<radialGradient id="paint12_radial" cx="0" cy="0" r="1" gradientUnits="userSpaceOnUse" gradientTransform="translate(3357.09 450.096) scale(78.3668)">
<stop stop-color="#E1E7E8"/>
<stop offset="0.21" stop-color="#DDE3E4"/>
<stop offset="0.41" stop-color="#D2D8D9"/>
<stop offset="0.61" stop-color="#BEC5C7"/>
<stop offset="0.71" stop-color="#B2B9BB"/>
<stop offset="0.81" stop-color="#B6BDBF"/>
<stop offset="0.93" stop-color="#C3CACB"/>
<stop offset="1" stop-color="#D0D6D7"/>
</radialGradient>
<linearGradient id="paint13_linear" x1="9982.73" y1="1105.64" x2="9997.93" y2="1148.54" gradientUnits="userSpaceOnUse">
<stop offset="0.14" stop-color="#D5DBDC"/>
<stop offset="1" stop-color="#B3BABC"/>
</linearGradient>
<linearGradient id="paint14_linear" x1="11259.3" y1="1105.33" x2="11244" y2="1148.22" gradientUnits="userSpaceOnUse">
<stop offset="0.14" stop-color="#D5DBDC"/>
<stop offset="1" stop-color="#B3BABC"/>
</linearGradient>
<radialGradient id="paint15_radial" cx="0" cy="0" r="1" gradientUnits="userSpaceOnUse" gradientTransform="translate(2931.81 549.766) scale(59.007)">
<stop stop-color="#E1E7E8"/>
<stop offset="0.21" stop-color="#DDE3E4"/>
<stop offset="0.41" stop-color="#D2D8D9"/>
<stop offset="0.61" stop-color="#BEC5C7"/>
<stop offset="0.71" stop-color="#B2B9BB"/>
<stop offset="0.81" stop-color="#B6BDBF"/>
<stop offset="0.93" stop-color="#C3CACB"/>
<stop offset="1" stop-color="#D0D6D7"/>
</radialGradient>
<linearGradient id="paint16_linear" x1="1254.44" y1="193.243" x2="1250.26" y2="200.033" gradientUnits="userSpaceOnUse">
<stop stop-color="#E1E7E8"/>
<stop offset="0.3" stop-color="#DDE3E4"/>
<stop offset="0.58" stop-color="#D2D8D9"/>
<stop offset="0.86" stop-color="#BEC5C7"/>
<stop offset="1" stop-color="#B2B9BB"/>
</linearGradient>
<radialGradient id="paint17_radial" cx="0" cy="0" r="1" gradientUnits="userSpaceOnUse" gradientTransform="translate(3767.59 687.32) scale(78.3669 78.3943)">
<stop stop-color="#E1E7E8"/>
<stop offset="0.21" stop-color="#DDE3E4"/>
<stop offset="0.41" stop-color="#D2D8D9"/>
<stop offset="0.61" stop-color="#BEC5C7"/>
<stop offset="0.71" stop-color="#B2B9BB"/>
<stop offset="0.81" stop-color="#B6BDBF"/>
<stop offset="0.93" stop-color="#C3CACB"/>
<stop offset="1" stop-color="#D0D6D7"/>
</radialGradient>
<radialGradient id="paint18_radial" cx="0" cy="0" r="1" gradientUnits="userSpaceOnUse" gradientTransform="translate(2964.84 676.257) scale(78.3669 78.3395)">
<stop stop-color="#E1E7E8"/>
<stop offset="0.21" stop-color="#DDE3E4"/>
<stop offset="0.41" stop-color="#D2D8D9"/>
<stop offset="0.61" stop-color="#BEC5C7"/>
<stop offset="0.71" stop-color="#B2B9BB"/>
<stop offset="0.81" stop-color="#B6BDBF"/>
<stop offset="0.93" stop-color="#C3CACB"/>
<stop offset="1" stop-color="#D0D6D7"/>
</radialGradient>
<linearGradient id="paint19_linear" x1="11242.2" y1="1563.99" x2="11257.5" y2="1606.98" gradientUnits="userSpaceOnUse">
<stop offset="0.14" stop-color="#D5DBDC"/>
<stop offset="1" stop-color="#B3BABC"/>
</linearGradient>
<linearGradient id="paint20_linear" x1="10040.5" y1="1539.09" x2="10025.4" y2="1581.88" gradientUnits="userSpaceOnUse">
<stop offset="0.14" stop-color="#D5DBDC"/>
<stop offset="1" stop-color="#B3BABC"/>
</linearGradient>
<linearGradient id="paint21_linear" x1="1612.74" y1="240.265" x2="1607" y2="249.343" gradientUnits="userSpaceOnUse">
<stop stop-color="#E1E7E8"/>
<stop offset="0.3" stop-color="#DDE3E4"/>
<stop offset="0.58" stop-color="#D2D8D9"/>
<stop offset="0.86" stop-color="#BEC5C7"/>
<stop offset="1" stop-color="#B2B9BB"/>
</linearGradient>
<linearGradient id="paint22_linear" x1="1424.15" y1="153.453" x2="1418.44" y2="162.543" gradientUnits="userSpaceOnUse">
<stop stop-color="#E1E7E8"/>
<stop offset="0.3" stop-color="#DDE3E4"/>
<stop offset="0.58" stop-color="#D2D8D9"/>
<stop offset="0.86" stop-color="#BEC5C7"/>
<stop offset="1" stop-color="#B2B9BB"/>
</linearGradient>
<linearGradient id="paint23_linear" x1="1244.1" y1="236.798" x2="1238.35" y2="245.877" gradientUnits="userSpaceOnUse">
<stop stop-color="#E1E7E8"/>
<stop offset="0.3" stop-color="#DDE3E4"/>
<stop offset="0.58" stop-color="#D2D8D9"/>
<stop offset="0.86" stop-color="#BEC5C7"/>
<stop offset="1" stop-color="#B2B9BB"/>
</linearGradient>
<radialGradient id="paint24_radial" cx="0" cy="0" r="1" gradientUnits="userSpaceOnUse" gradientTransform="translate(3167.41 861.643) scale(59.0068 59.007)">
<stop stop-color="#E1E7E8"/>
<stop offset="0.21" stop-color="#DDE3E4"/>
<stop offset="0.41" stop-color="#D2D8D9"/>
<stop offset="0.61" stop-color="#BEC5C7"/>
<stop offset="0.71" stop-color="#B2B9BB"/>
<stop offset="0.81" stop-color="#B6BDBF"/>
<stop offset="0.93" stop-color="#C3CACB"/>
<stop offset="1" stop-color="#D0D6D7"/>
</radialGradient>
<linearGradient id="paint25_linear" x1="1364.25" y1="308.215" x2="1360.09" y2="315.001" gradientUnits="userSpaceOnUse">
<stop stop-color="#E1E7E8"/>
<stop offset="0.3" stop-color="#DDE3E4"/>
<stop offset="0.58" stop-color="#D2D8D9"/>
<stop offset="0.86" stop-color="#BEC5C7"/>
<stop offset="1" stop-color="#B2B9BB"/>
</linearGradient>
<radialGradient id="paint26_radial" cx="0" cy="0" r="1" gradientUnits="userSpaceOnUse" gradientTransform="translate(2714.35 857.617) scale(61.3405 61.3159)">
<stop stop-color="#E1E7E8"/>
<stop offset="0.21" stop-color="#DDE3E4"/>
<stop offset="0.41" stop-color="#D2D8D9"/>
<stop offset="0.61" stop-color="#BEC5C7"/>
<stop offset="0.71" stop-color="#B2B9BB"/>
<stop offset="0.81" stop-color="#B6BDBF"/>
<stop offset="0.93" stop-color="#C3CACB"/>
<stop offset="1" stop-color="#D0D6D7"/>
</radialGradient>
<linearGradient id="paint27_linear" x1="2093.38" y1="307.206" x2="2089.25" y2="313.965" gradientUnits="userSpaceOnUse">
<stop stop-color="#E1E7E8"/>
<stop offset="0.3" stop-color="#DDE3E4"/>
<stop offset="0.58" stop-color="#D2D8D9"/>
<stop offset="0.86" stop-color="#BEC5C7"/>
<stop offset="1" stop-color="#B2B9BB"/>
</linearGradient>
<radialGradient id="paint28_radial" cx="0" cy="0" r="1" gradientUnits="userSpaceOnUse" gradientTransform="translate(3375.37 1200.23) scale(78.3668)">
<stop stop-color="#E1E7E8"/>
<stop offset="0.21" stop-color="#DDE3E4"/>
<stop offset="0.41" stop-color="#D2D8D9"/>
<stop offset="0.61" stop-color="#BEC5C7"/>
<stop offset="0.71" stop-color="#B2B9BB"/>
<stop offset="0.81" stop-color="#B6BDBF"/>
<stop offset="0.93" stop-color="#C3CACB"/>
<stop offset="1" stop-color="#D0D6D7"/>
</radialGradient>
<linearGradient id="paint29_linear" x1="1432.18" y1="428.255" x2="1426.44" y2="437.358" gradientUnits="userSpaceOnUse">
<stop stop-color="#E1E7E8"/>
<stop offset="0.3" stop-color="#DDE3E4"/>
<stop offset="0.58" stop-color="#D2D8D9"/>
<stop offset="0.86" stop-color="#BEC5C7"/>
<stop offset="1" stop-color="#B2B9BB"/>
</linearGradient>
<linearGradient id="paint30_linear" x1="744.335" y1="2315.09" x2="748.39" y2="2315.09" gradientUnits="userSpaceOnUse">
<stop stop-color="#B3BABC"/>
<stop offset="0.86" stop-color="#D5DBDC"/>
</linearGradient>
<radialGradient id="paint31_radial" cx="0" cy="0" r="1" gradientUnits="userSpaceOnUse" gradientTransform="translate(3375.38 913.28) scale(78.3669 78.3395)">
<stop stop-color="#E1E7E8"/>
<stop offset="0.21" stop-color="#DDE3E4"/>
<stop offset="0.41" stop-color="#D2D8D9"/>
<stop offset="0.61" stop-color="#BEC5C7"/>
<stop offset="0.71" stop-color="#B2B9BB"/>
<stop offset="0.81" stop-color="#B6BDBF"/>
<stop offset="0.93" stop-color="#C3CACB"/>
<stop offset="1" stop-color="#D0D6D7"/>
</radialGradient>
<linearGradient id="paint32_linear" x1="1432.18" y1="323.149" x2="1426.44" y2="332.221" gradientUnits="userSpaceOnUse">
<stop stop-color="#E1E7E8"/>
<stop offset="0.3" stop-color="#DDE3E4"/>
<stop offset="0.58" stop-color="#D2D8D9"/>
<stop offset="0.86" stop-color="#BEC5C7"/>
<stop offset="1" stop-color="#B2B9BB"/>
</linearGradient>
<linearGradient id="paint33_linear" x1="10056.6" y1="3906.21" x2="11652.4" y2="3906.21" gradientUnits="userSpaceOnUse">
<stop stop-color="#B2B9BB"/>
<stop offset="1" stop-color="#D6DCDD"/>
</linearGradient>
<linearGradient id="paint34_linear" x1="10033.4" y1="1626.29" x2="11621.5" y2="1626.29" gradientUnits="userSpaceOnUse">
<stop offset="0.68" stop-color="#E9ECED"/>
<stop offset="0.84" stop-color="#E5E8E9"/>
<stop offset="1" stop-color="#D9DDDE"/>
</linearGradient>
<linearGradient id="paint35_linear" x1="29.4435" y1="41.4737" x2="60.711" y2="41.4737" gradientUnits="userSpaceOnUse">
<stop stop-color="#85FFF3"/>
<stop offset="0.33" stop-color="#14B5AD"/>
<stop offset="1" stop-color="#6EF0E5"/>
</linearGradient>
<radialGradient id="paint36_radial" cx="0" cy="0" r="1" gradientUnits="userSpaceOnUse" gradientTransform="translate(18513.8 -6738.58) rotate(-30.1137) scale(516.003 258.529)">
<stop stop-color="#96FFFA"/>
<stop offset="0.18" stop-color="#14B5AD"/>
<stop offset="0.28" stop-color="#0F8882"/>
<stop offset="0.4" stop-color="#0A5F5A"/>
<stop offset="0.51" stop-color="#073C3A"/>
<stop offset="0.63" stop-color="#042220"/>
<stop offset="0.75" stop-color="#020F0E"/>
<stop offset="0.87" stop-color="#000404"/>
<stop offset="1"/>
</radialGradient>
<radialGradient id="paint37_radial" cx="0" cy="0" r="1" gradientUnits="userSpaceOnUse" gradientTransform="translate(4172.71 -1474.75) rotate(-30.1137) scale(27.9587 14.0044)">
<stop stop-color="#96FFFA"/>
<stop offset="0.18" stop-color="#14B5AD"/>
<stop offset="0.28" stop-color="#0F8882"/>
<stop offset="0.4" stop-color="#0A5F5A"/>
<stop offset="0.51" stop-color="#073C3A"/>
<stop offset="0.63" stop-color="#042220"/>
<stop offset="0.75" stop-color="#020F0E"/>
<stop offset="0.87" stop-color="#000404"/>
<stop offset="1"/>
</radialGradient>
<radialGradient id="paint38_radial" cx="0" cy="0" r="1" gradientUnits="userSpaceOnUse" gradientTransform="translate(4224.3 -1486.73) rotate(-30.1137) scale(27.983 14.0044)">
<stop stop-color="#96FFFA"/>
<stop offset="0.18" stop-color="#14B5AD"/>
<stop offset="0.28" stop-color="#0F8882"/>
<stop offset="0.4" stop-color="#0A5F5A"/>
<stop offset="0.51" stop-color="#073C3A"/>
<stop offset="0.63" stop-color="#042220"/>
<stop offset="0.75" stop-color="#020F0E"/>
<stop offset="0.87" stop-color="#000404"/>
<stop offset="1"/>
</radialGradient>
<radialGradient id="paint39_radial" cx="0" cy="0" r="1" gradientUnits="userSpaceOnUse" gradientTransform="translate(4239.52 -1540.72) rotate(-30.1137) scale(27.983 14.0326)">
<stop stop-color="#96FFFA"/>
<stop offset="0.18" stop-color="#14B5AD"/>
<stop offset="0.28" stop-color="#0F8882"/>
<stop offset="0.4" stop-color="#0A5F5A"/>
<stop offset="0.51" stop-color="#073C3A"/>
<stop offset="0.63" stop-color="#042220"/>
<stop offset="0.75" stop-color="#020F0E"/>
<stop offset="0.87" stop-color="#000404"/>
<stop offset="1"/>
</radialGradient>
<radialGradient id="paint40_radial" cx="0" cy="0" r="1" gradientUnits="userSpaceOnUse" gradientTransform="translate(4121.63 -1450.5) rotate(-30.1137) scale(27.9587 14.0204)">
<stop stop-color="#96FFFA"/>
<stop offset="0.18" stop-color="#14B5AD"/>
<stop offset="0.28" stop-color="#0F8882"/>
<stop offset="0.4" stop-color="#0A5F5A"/>
<stop offset="0.51" stop-color="#073C3A"/>
<stop offset="0.63" stop-color="#042220"/>
<stop offset="0.75" stop-color="#020F0E"/>
<stop offset="0.87" stop-color="#000404"/>
<stop offset="1"/>
</radialGradient>
<radialGradient id="paint41_radial" cx="0" cy="0" r="1" gradientUnits="userSpaceOnUse" gradientTransform="translate(4066.88 -1459.48) rotate(-30.1137) scale(27.983 14.025)">
<stop stop-color="#96FFFA"/>
<stop offset="0.18" stop-color="#14B5AD"/>
<stop offset="0.28" stop-color="#0F8882"/>
<stop offset="0.4" stop-color="#0A5F5A"/>
<stop offset="0.51" stop-color="#073C3A"/>
<stop offset="0.63" stop-color="#042220"/>
<stop offset="0.75" stop-color="#020F0E"/>
<stop offset="0.87" stop-color="#000404"/>
<stop offset="1"/>
</radialGradient>
<radialGradient id="paint42_radial" cx="0" cy="0" r="1" gradientUnits="userSpaceOnUse" gradientTransform="translate(4107.21 -1493.34) rotate(-30.1137) scale(27.9749 14.0279)">
<stop stop-color="#96FFFA"/>
<stop offset="0.18" stop-color="#14B5AD"/>
<stop offset="0.28" stop-color="#0F8882"/>
<stop offset="0.4" stop-color="#0A5F5A"/>
<stop offset="0.51" stop-color="#073C3A"/>
<stop offset="0.63" stop-color="#042220"/>
<stop offset="0.75" stop-color="#020F0E"/>
<stop offset="0.87" stop-color="#000404"/>
<stop offset="1"/>
</radialGradient>
<radialGradient id="paint43_radial" cx="0" cy="0" r="1" gradientUnits="userSpaceOnUse" gradientTransform="translate(4154.05 -1522.21) rotate(-30.1137) scale(27.9587 14.0204)">
<stop stop-color="#96FFFA"/>
<stop offset="0.18" stop-color="#14B5AD"/>
<stop offset="0.28" stop-color="#0F8882"/>
<stop offset="0.4" stop-color="#0A5F5A"/>
<stop offset="0.51" stop-color="#073C3A"/>
<stop offset="0.63" stop-color="#042220"/>
<stop offset="0.75" stop-color="#020F0E"/>
<stop offset="0.87" stop-color="#000404"/>
<stop offset="1"/>
</radialGradient>
<linearGradient id="paint44_linear" x1="36.9782" y1="54.4351" x2="48.7438" y2="29.8094" gradientUnits="userSpaceOnUse">
<stop stop-color="#85FFF3"/>
<stop offset="1" stop-color="#3ABCB7"/>
</linearGradient>
<linearGradient id="paint45_linear" x1="56.5646" y1="41.3449" x2="48.773" y2="41.3449" gradientUnits="userSpaceOnUse">
<stop stop-color="#85FFF3"/>
<stop offset="0.3" stop-color="#59E2D8"/>
<stop offset="0.6" stop-color="#33C9C0"/>
<stop offset="0.85" stop-color="#1CBAB2"/>
<stop offset="1" stop-color="#14B5AD"/>
</linearGradient>
<linearGradient id="paint46_linear" x1="10056.6" y1="384.32" x2="11652.4" y2="384.32" gradientUnits="userSpaceOnUse">
<stop stop-color="#B2B9BB"/>
<stop offset="1" stop-color="#D6DCDD"/>
</linearGradient>
<linearGradient id="paint47_linear" x1="10033.4" y1="389.918" x2="11621.5" y2="389.918" gradientUnits="userSpaceOnUse">
<stop offset="0.68" stop-color="#E9ECED"/>
<stop offset="0.84" stop-color="#E5E8E9"/>
<stop offset="1" stop-color="#D9DDDE"/>
</linearGradient>
<linearGradient id="paint48_linear" x1="57.8143" y1="74.0751" x2="57.8143" y2="89.6398" gradientUnits="userSpaceOnUse">
<stop stop-color="#96FFFA"/>
<stop offset="0.06" stop-color="#89F3EE"/>
<stop offset="0.27" stop-color="#5ECFC9"/>
<stop offset="0.48" stop-color="#3CB2AC"/>
<stop offset="0.67" stop-color="#249D97"/>
<stop offset="0.85" stop-color="#15908A"/>
<stop offset="1" stop-color="#108C86"/>
</linearGradient>
<radialGradient id="paint49_radial" cx="0" cy="0" r="1" gradientUnits="userSpaceOnUse" gradientTransform="translate(3047.49 941.747) scale(55.3509)">
<stop stop-color="#96FFFA"/>
<stop offset="0.18" stop-color="#14B5AD"/>
<stop offset="0.28" stop-color="#0F8882"/>
<stop offset="0.4" stop-color="#0A5F5A"/>
<stop offset="0.51" stop-color="#073C3A"/>
<stop offset="0.63" stop-color="#042220"/>
<stop offset="0.75" stop-color="#020F0E"/>
<stop offset="0.87" stop-color="#000404"/>
<stop offset="1"/>
</radialGradient>
<radialGradient id="paint50_radial" cx="0" cy="0" r="1" gradientUnits="userSpaceOnUse" gradientTransform="translate(3047.49 986.168) scale(55.3509)">
<stop stop-color="#96FFFA"/>
<stop offset="0.18" stop-color="#14B5AD"/>
<stop offset="0.28" stop-color="#0F8882"/>
<stop offset="0.4" stop-color="#0A5F5A"/>
<stop offset="0.51" stop-color="#073C3A"/>
<stop offset="0.63" stop-color="#042220"/>
<stop offset="0.75" stop-color="#020F0E"/>
<stop offset="0.87" stop-color="#000404"/>
<stop offset="1"/>
</radialGradient>
<radialGradient id="paint51_radial" cx="0" cy="0" r="1" gradientUnits="userSpaceOnUse" gradientTransform="translate(3047.49 1030.72) scale(55.3509 55.3512)">
<stop stop-color="#96FFFA"/>
<stop offset="0.18" stop-color="#14B5AD"/>
<stop offset="0.28" stop-color="#0F8882"/>
<stop offset="0.4" stop-color="#0A5F5A"/>
<stop offset="0.51" stop-color="#073C3A"/>
<stop offset="0.63" stop-color="#042220"/>
<stop offset="0.75" stop-color="#020F0E"/>
<stop offset="0.87" stop-color="#000404"/>
<stop offset="1"/>
</radialGradient>
<radialGradient id="paint52_radial" cx="0" cy="0" r="1" gradientUnits="userSpaceOnUse" gradientTransform="translate(3047.49 1075.1) scale(55.3509)">
<stop stop-color="#96FFFA"/>
<stop offset="0.18" stop-color="#14B5AD"/>
<stop offset="0.28" stop-color="#0F8882"/>
<stop offset="0.4" stop-color="#0A5F5A"/>
<stop offset="0.51" stop-color="#073C3A"/>
<stop offset="0.63" stop-color="#042220"/>
<stop offset="0.75" stop-color="#020F0E"/>
<stop offset="0.87" stop-color="#000404"/>
<stop offset="1"/>
</radialGradient>
<radialGradient id="paint53_radial" cx="0" cy="0" r="1" gradientUnits="userSpaceOnUse" gradientTransform="translate(3047.49 1119.59) scale(55.3508)">
<stop stop-color="#96FFFA"/>
<stop offset="0.18" stop-color="#14B5AD"/>
<stop offset="0.28" stop-color="#0F8882"/>
<stop offset="0.4" stop-color="#0A5F5A"/>
<stop offset="0.51" stop-color="#073C3A"/>
<stop offset="0.63" stop-color="#042220"/>
<stop offset="0.75" stop-color="#020F0E"/>
<stop offset="0.87" stop-color="#000404"/>
<stop offset="1"/>
</radialGradient>
<linearGradient id="paint54_linear" x1="5050.75" y1="889.725" x2="5357.8" y2="889.725" gradientUnits="userSpaceOnUse">
<stop stop-color="#B2B9BB"/>
<stop offset="1" stop-color="#D6DCDD"/>
</linearGradient>
<linearGradient id="paint55_linear" x1="5042.19" y1="1255.23" x2="5348.01" y2="1255.23" gradientUnits="userSpaceOnUse">
<stop offset="0.68" stop-color="#E9ECED"/>
<stop offset="0.84" stop-color="#E5E8E9"/>
<stop offset="1" stop-color="#D9DDDE"/>
</linearGradient>
<linearGradient id="paint56_linear" x1="4145.96" y1="4259.89" x2="4349.97" y2="4259.89" gradientUnits="userSpaceOnUse">
<stop stop-color="#85FFF3"/>
<stop offset="0.33" stop-color="#14B5AD"/>
<stop offset="1" stop-color="#6EF0E5"/>
</linearGradient>
<radialGradient id="paint57_radial" cx="0" cy="0" r="1" gradientUnits="userSpaceOnUse" gradientTransform="translate(68.3834 103.05) rotate(-30.1137) scale(6.11473 5.30761)">
<stop stop-color="#96FFFA"/>
<stop offset="0.18" stop-color="#14B5AD"/>
<stop offset="0.33" stop-color="#0E837D"/>
<stop offset="0.49" stop-color="#095451"/>
<stop offset="0.64" stop-color="#05302E"/>
<stop offset="0.78" stop-color="#021515"/>
<stop offset="0.9" stop-color="#010605"/>
<stop offset="1"/>
</radialGradient>
<radialGradient id="paint58_radial" cx="0" cy="0" r="1" gradientUnits="userSpaceOnUse" gradientTransform="translate(6310.2 2087) scale(86.0723 49.6822)">
<stop stop-color="#96FFFA"/>
<stop offset="0.18" stop-color="#14B5AD"/>
<stop offset="0.33" stop-color="#0E837D"/>
<stop offset="0.49" stop-color="#095451"/>
<stop offset="0.64" stop-color="#05302E"/>
<stop offset="0.78" stop-color="#021515"/>
<stop offset="0.9" stop-color="#010605"/>
<stop offset="1"/>
</radialGradient>
<linearGradient id="paint59_linear" x1="67.04" y1="103.889" x2="67.04" y2="71.9042" gradientUnits="userSpaceOnUse">
<stop stop-color="#6BFFF0"/>
<stop offset="1" stop-color="#C3FC9D"/>
</linearGradient>
<linearGradient id="paint60_linear" x1="1187.88" y1="4249.64" x2="1174.53" y2="4249.64" gradientUnits="userSpaceOnUse">
<stop stop-color="#85FFF3"/>
<stop offset="0.3" stop-color="#59E2D8"/>
<stop offset="0.6" stop-color="#33C9C0"/>
<stop offset="0.85" stop-color="#1CBAB2"/>
<stop offset="1" stop-color="#14B5AD"/>
</linearGradient>
<linearGradient id="paint61_linear" x1="5050.75" y1="579.558" x2="5357.8" y2="579.558" gradientUnits="userSpaceOnUse">
<stop stop-color="#B2B9BB"/>
<stop offset="1" stop-color="#D6DCDD"/>
</linearGradient>
<linearGradient id="paint62_linear" x1="5042.2" y1="804.149" x2="5348.01" y2="804.149" gradientUnits="userSpaceOnUse">
<stop offset="0.68" stop-color="#E9ECED"/>
<stop offset="0.84" stop-color="#E5E8E9"/>
<stop offset="1" stop-color="#D9DDDE"/>
</linearGradient>
<linearGradient id="paint63_linear" x1="4734.72" y1="967.063" x2="5042.12" y2="967.063" gradientUnits="userSpaceOnUse">
<stop stop-color="#B2B9BB"/>
<stop offset="1" stop-color="#D6DCDD"/>
</linearGradient>
<linearGradient id="paint64_linear" x1="4728.99" y1="1364.91" x2="5035.29" y2="1364.91" gradientUnits="userSpaceOnUse">
<stop offset="0.68" stop-color="#E9ECED"/>
<stop offset="0.84" stop-color="#E5E8E9"/>
<stop offset="1" stop-color="#D9DDDE"/>
</linearGradient>
<linearGradient id="paint65_linear" x1="3895.43" y1="4703.13" x2="4100.07" y2="4703.13" gradientUnits="userSpaceOnUse">
<stop stop-color="#85FFF3"/>
<stop offset="0.33" stop-color="#14B5AD"/>
<stop offset="1" stop-color="#6EF0E5"/>
</linearGradient>
<radialGradient id="paint66_radial" cx="0" cy="0" r="1" gradientUnits="userSpaceOnUse" gradientTransform="translate(6066.49 2099.11) scale(86.1118 49.6965)">
<stop stop-color="#96FFFA"/>
<stop offset="0.18" stop-color="#14B5AD"/>
<stop offset="0.33" stop-color="#0E837D"/>
<stop offset="0.49" stop-color="#095451"/>
<stop offset="0.64" stop-color="#05302E"/>
<stop offset="0.78" stop-color="#021515"/>
<stop offset="0.9" stop-color="#010605"/>
<stop offset="1"/>
</radialGradient>
<radialGradient id="paint67_radial" cx="0" cy="0" r="1" gradientUnits="userSpaceOnUse" gradientTransform="translate(6027.26 2097.13) scale(86.1118 49.6965)">
<stop stop-color="#96FFFA"/>
<stop offset="0.18" stop-color="#14B5AD"/>
<stop offset="0.33" stop-color="#0E837D"/>
<stop offset="0.49" stop-color="#095451"/>
<stop offset="0.64" stop-color="#05302E"/>
<stop offset="0.78" stop-color="#021515"/>
<stop offset="0.9" stop-color="#010605"/>
<stop offset="1"/>
</radialGradient>
<linearGradient id="paint68_linear" x1="2054.98" y1="4980.15" x2="2054.98" y2="3657.5" gradientUnits="userSpaceOnUse">
<stop stop-color="#6BFFF0"/>
<stop offset="1" stop-color="#C3FC9D"/>
</linearGradient>
<linearGradient id="paint69_linear" x1="1106.83" y1="4687.41" x2="1093.48" y2="4687.41" gradientUnits="userSpaceOnUse">
<stop stop-color="#85FFF3"/>
<stop offset="0.3" stop-color="#59E2D8"/>
<stop offset="0.6" stop-color="#33C9C0"/>
<stop offset="0.85" stop-color="#1CBAB2"/>
<stop offset="1" stop-color="#14B5AD"/>
</linearGradient>
<linearGradient id="paint70_linear" x1="4734.72" y1="655.142" x2="5042.12" y2="655.142" gradientUnits="userSpaceOnUse">
<stop stop-color="#B2B9BB"/>
<stop offset="1" stop-color="#D6DCDD"/>
</linearGradient>
<linearGradient id="paint71_linear" x1="4728.99" y1="914.62" x2="5035.29" y2="914.62" gradientUnits="userSpaceOnUse">
<stop offset="0.68" stop-color="#E9ECED"/>
<stop offset="0.84" stop-color="#E5E8E9"/>
<stop offset="1" stop-color="#D9DDDE"/>
</linearGradient>
</defs>
</svg>
