<svg width="184" height="134" viewBox="0 0 184 134" fill="none" xmlns="http://www.w3.org/2000/svg">
<path opacity="0.2" d="M91.6242 133.971C142.227 133.971 183.248 110.287 183.248 81.0706C183.248 51.8542 142.227 28.1697 91.6242 28.1697C41.0216 28.1697 0 51.8542 0 81.0706C0 110.287 41.0216 133.971 91.6242 133.971Z" fill="#F55B28" fill-opacity="0.15"/>
<g style="mix-blend-mode:multiply" opacity="0.5">
<g style="mix-blend-mode:multiply" opacity="0.5">
<path d="M96.2438 92.2484L82.3762 84.2498L80.1566 85.5196L58.1604 72.8118L60.8599 71.252L46.9823 63.2534L44.2828 64.8131L41.2033 63.0334L18.3673 76.2211L19.3671 76.8011L13.748 80.0505L29.7453 89.2589L35.3643 86.0095L55.3609 97.5275L49.5919 100.747L65.5891 109.955L74.2476 104.956L82.1163 109.495L98.8734 99.8271L91.0047 95.2779L96.2438 92.2484Z" fill="#005E7A"/>
</g>
<g style="mix-blend-mode:multiply" opacity="0.5">
<path d="M125.699 88.2491C136.952 88.2491 146.075 82.9804 146.075 76.4811C146.075 69.9818 136.952 64.7131 125.699 64.7131C114.445 64.7131 105.322 69.9818 105.322 76.4811C105.322 82.9804 114.445 88.2491 125.699 88.2491Z" fill="#005E7A"/>
</g>
<g style="mix-blend-mode:multiply" opacity="0.5">
<path d="M139.578 108.436L112.813 93.0084C112.06 92.6264 111.227 92.4272 110.383 92.4272C109.539 92.4272 108.706 92.6264 107.953 93.0084L93.366 101.427C92.0262 102.207 92.0162 103.427 93.366 104.246L120.101 119.664C120.855 120.048 121.69 120.249 122.536 120.249C123.382 120.249 124.217 120.048 124.971 119.664L139.578 111.255C140.888 110.475 140.898 109.216 139.578 108.436Z" fill="#005E7A"/>
</g>
</g>
<path d="M142.777 65.5333C141.787 64.7652 140.752 64.0574 139.677 63.4137C138.714 62.8271 137.712 62.306 136.678 61.8539C137.277 62.1069 137.859 62.4009 138.418 62.7338C143.807 65.9532 143.677 71.0923 138.138 74.2018C132.599 77.3113 123.73 77.2013 118.341 74.0019C112.952 70.8024 113.072 65.6433 118.621 62.5338C119.105 62.2587 119.606 62.0149 120.121 61.804C119.273 62.1661 118.445 62.5732 117.641 63.0237C116.356 63.7531 115.123 64.5716 113.952 65.4733C108.753 69.4726 109.233 75.2216 115.482 78.951C122.4 83.0903 133.778 83.2003 140.897 79.211C147.416 75.5416 148.086 69.6826 142.777 65.5333Z" fill="url(#paint0_linear)"/>
<path d="M138.116 72.732C132.577 75.8415 123.709 75.7315 118.32 72.5321C115.67 70.9523 114.32 68.9027 114.32 66.863V68.3228C114.32 70.3724 115.64 72.4121 118.32 74.0018C123.709 77.2213 132.567 77.3112 138.116 74.2018C140.936 72.622 142.355 70.5124 142.355 68.4028V66.933C142.355 69.0427 140.936 71.1523 138.116 72.732Z" fill="#A8AEAF"/>
<path d="M140.878 79.2111C133.759 83.2104 122.381 83.0904 115.462 78.9511C112.053 76.9515 110.363 74.2919 110.373 71.6724V76.2316C110.373 78.8511 112.053 81.4807 115.452 83.5203C122.371 87.6496 133.759 87.7696 140.878 83.7703C144.487 81.7706 146.317 79.0411 146.317 76.3316V71.7724C146.317 74.4819 144.497 77.1814 140.878 79.2111Z" fill="url(#paint1_linear)"/>
<path d="M147.576 50.4959C147.446 39.4079 143.097 14.2222 138.867 7.98328C136.308 4.20393 130.449 2.29426 125.23 3.52404C118.481 5.13377 116.931 9.76297 115.681 13.5223C111.682 25.3803 106.433 54.5152 110.912 65.6333C112.842 70.4425 116.441 73.372 122.23 74.8317C125.346 75.5757 128.57 75.7552 131.748 75.3617C134.502 75.0488 137.17 74.2105 139.607 72.8921C142.681 71.1697 145 68.3591 146.106 65.0134C147.676 60.5542 147.576 54.4953 147.576 50.4959ZM131.439 8.74314C130.526 9.19973 129.517 9.43243 128.497 9.422C127.476 9.41156 126.473 9.1583 125.57 8.68316C123.97 7.73332 124.01 6.21358 125.65 5.29374C126.562 4.83799 127.57 4.60492 128.59 4.61361C129.61 4.6223 130.614 4.8725 131.519 5.34374C133.108 6.30357 133.068 7.8233 131.429 8.74314H131.439Z" fill="url(#paint2_linear)"/>
<path style="mix-blend-mode:screen" opacity="0.9" d="M147.576 50.4959C147.446 39.4079 143.097 14.2222 138.867 7.98328C136.308 4.20393 130.449 2.29426 125.23 3.52404C118.481 5.13377 116.931 9.76297 115.681 13.5223C111.682 25.3803 106.433 54.5152 110.912 65.6333C112.842 70.4425 116.441 73.372 122.23 74.8317C125.346 75.5757 128.57 75.7552 131.748 75.3617C134.502 75.0488 137.17 74.2105 139.607 72.8921C142.681 71.1697 145 68.3591 146.106 65.0134C147.676 60.5542 147.576 54.4953 147.576 50.4959Z" fill="url(#paint3_radial)"/>
<path d="M135.713 4.43459C135.72 2.13749 132.506 0.266333 128.536 0.255246C124.566 0.244159 121.342 2.09734 121.336 4.39444C121.329 6.69154 124.543 8.5627 128.513 8.57379C132.483 8.58487 135.707 6.73169 135.713 4.43459Z" fill="url(#paint4_linear)"/>
<path d="M136.678 3.624C134.999 0.714502 130.589 -0.125354 128.03 0.0146222C121.721 0.37456 120.261 3.594 119.971 4.57383C119.771 5.24372 118.971 8.73312 124.25 10.7528C125.876 11.3129 127.597 11.5447 129.314 11.4349C131.03 11.325 132.707 10.8757 134.249 10.1129C136.248 8.96309 137.248 7.48334 137.248 5.73364C137.254 4.99162 137.057 4.2621 136.678 3.624ZM133.579 7.41334C131.998 8.19863 130.253 8.59893 128.488 8.58155C126.722 8.56417 124.986 8.12963 123.421 7.31337C120.651 5.66365 120.721 3.0241 123.561 1.43438C125.141 0.645945 126.886 0.243887 128.652 0.261268C130.418 0.27865 132.154 0.714981 133.719 1.53436C136.458 3.18408 136.388 5.82361 133.579 7.41334Z" fill="url(#paint5_linear)"/>
<path d="M147.126 43.5073C146.786 40.0578 146.266 36.1685 145.616 32.2492C145.616 32.1492 145.616 32.0492 145.566 31.9492C144.496 37.9482 135.628 40.8777 129.329 40.9477C128.873 40.9477 128.436 41.1289 128.113 41.4514C127.791 41.7739 127.609 42.2113 127.609 42.6674V49.4562C127.611 49.6898 127.659 49.9208 127.751 50.1354C127.843 50.35 127.978 50.5438 128.147 50.7053C128.316 50.8667 128.516 50.9924 128.734 51.075C128.953 51.1576 129.186 51.1953 129.419 51.1859C141.417 50.736 146.466 46.0668 147.126 43.5073Z" fill="url(#paint6_radial)"/>
<g style="mix-blend-mode:screen">
<g style="mix-blend-mode:screen">
<g style="mix-blend-mode:screen">
<path d="M154.303 24.8704H127.607V60.0843H154.303V24.8704Z" fill="black"/>
</g>
<g style="mix-blend-mode:screen">
<path d="M148.984 48.5185C154.876 40.6857 156.06 31.6343 151.63 28.3017C147.199 24.9691 138.831 28.6173 132.939 36.4502C127.048 44.283 125.863 53.3344 130.294 56.667C134.724 59.9996 143.092 56.3514 148.984 48.5185Z" fill="black"/>
</g>
<g style="mix-blend-mode:screen">
<path d="M148.8 48.3805C154.555 40.7285 155.712 31.8857 151.383 28.6295C147.054 25.3732 138.878 28.9366 133.123 36.5886C127.367 44.2405 126.211 53.0833 130.54 56.3396C134.869 59.5958 143.044 56.0324 148.8 48.3805Z" fill="black"/>
</g>
<g style="mix-blend-mode:screen">
<path d="M148.609 48.2364C154.225 40.7698 155.355 32.1418 151.131 28.9652C146.908 25.7886 138.932 29.2664 133.316 36.733C127.699 44.1996 126.57 52.8276 130.793 56.0041C135.016 59.1807 142.993 55.703 148.609 48.2364Z" fill="black"/>
</g>
<g style="mix-blend-mode:screen">
<path d="M148.425 48.0981C153.905 40.8124 155.006 32.393 150.885 29.2927C146.763 26.1925 138.979 29.5855 133.499 36.8711C128.019 44.1568 126.917 52.5762 131.039 55.6765C135.161 58.7767 142.945 55.3837 148.425 48.0981Z" fill="#000101"/>
</g>
<g style="mix-blend-mode:screen">
<path d="M153.053 35.4884C153.053 42.1772 147.644 50.7158 140.955 54.5751C134.266 58.4344 128.857 56.1448 128.857 49.466C128.857 42.7871 134.276 34.2386 140.955 30.3793C147.634 26.5199 153.053 28.8095 153.053 35.4884Z" fill="#000202"/>
</g>
<g style="mix-blend-mode:screen">
<path d="M148.05 47.8155C153.254 40.8961 154.301 32.9 150.386 29.9558C146.472 27.0116 139.08 30.2341 133.875 37.1535C128.67 44.0729 127.624 52.0689 131.538 55.0131C135.453 57.9573 142.845 54.7349 148.05 47.8155Z" fill="#000303"/>
</g>
<g style="mix-blend-mode:screen">
<path d="M147.696 47.0365C152.752 40.2954 153.76 32.5127 149.948 29.6535C146.136 26.7942 138.947 29.9412 133.891 36.6823C128.835 43.4234 127.827 51.206 131.639 54.0653C135.451 56.9245 142.641 53.7776 147.696 47.0365Z" fill="#010504"/>
</g>
<g style="mix-blend-mode:screen">
<path d="M147.675 47.5328C152.604 40.9797 153.595 33.407 149.888 30.6188C146.181 27.8306 139.18 30.8827 134.251 37.4358C129.322 43.9889 128.331 51.5616 132.038 54.3498C135.745 57.138 142.746 54.086 147.675 47.5328Z" fill="#010606"/>
</g>
<g style="mix-blend-mode:screen">
<path d="M147.482 47.3888C152.272 41.021 153.236 33.6631 149.635 30.9546C146.034 28.246 139.232 31.2124 134.442 37.5802C129.652 43.948 128.689 51.3058 132.29 54.0144C135.89 56.7229 142.692 53.7565 147.482 47.3888Z" fill="#010808"/>
</g>
<g style="mix-blend-mode:screen">
<path d="M147.298 47.2507C151.952 41.0638 152.887 33.9146 149.388 31.2823C145.888 28.6501 139.279 31.5317 134.625 37.7186C129.972 43.9054 129.036 51.0547 132.535 53.6869C136.035 56.3191 142.644 53.4375 147.298 47.2507Z" fill="#010B0A"/>
</g>
<g style="mix-blend-mode:screen">
<path d="M147.105 47.1064C151.62 41.1048 152.528 34.1704 149.135 31.6179C145.741 29.0653 139.331 31.8613 134.816 37.8628C130.302 43.8643 129.394 50.7987 132.787 53.3513C136.181 55.9038 142.591 53.1079 147.105 47.1064Z" fill="#010D0D"/>
</g>
<g style="mix-blend-mode:screen">
<path d="M150.874 36.7482C150.874 42.2272 146.434 49.236 140.955 52.3955C135.476 55.5549 131.037 53.6752 131.037 48.2062C131.037 42.7371 135.476 35.7283 140.955 32.5589C146.434 29.3894 150.874 31.2791 150.874 36.7482Z" fill="#021010"/>
</g>
<g style="mix-blend-mode:screen">
<path d="M146.732 46.8237C150.971 41.1885 151.824 34.6774 148.638 32.2809C145.452 29.8844 139.433 32.5099 135.194 38.1451C130.956 43.7803 130.102 50.2914 133.288 52.6879C136.475 55.0845 142.494 52.459 146.732 46.8237Z" fill="#021413"/>
</g>
<g style="mix-blend-mode:screen">
<path d="M146.548 46.6856C150.647 41.2357 151.47 34.9368 148.385 32.6166C145.301 30.2964 139.477 32.8335 135.378 38.2834C131.278 43.7333 130.456 50.0323 133.54 52.3525C136.625 54.6726 142.449 52.1355 146.548 46.6856Z" fill="#031716"/>
</g>
<g style="mix-blend-mode:screen">
<path d="M146.355 46.5416C150.319 41.2726 151.117 35.185 148.138 32.9444C145.16 30.7039 139.532 33.159 135.569 38.4279C131.605 43.6969 130.807 49.7846 133.786 52.0251C136.765 54.2656 142.392 51.8106 146.355 46.5416Z" fill="#031B1A"/>
</g>
<g style="mix-blend-mode:screen">
<path d="M146.171 46.403C149.995 41.3193 150.762 35.4438 147.885 33.2796C145.008 31.1154 139.576 33.4821 135.752 38.5658C131.928 43.6494 131.161 49.5249 134.038 51.6891C136.915 53.8533 142.347 51.4866 146.171 46.403Z" fill="#04201E"/>
</g>
<g style="mix-blend-mode:screen">
<path d="M149.315 37.6182C149.315 42.2274 145.576 48.1263 140.957 50.7959C136.337 53.4654 132.578 51.9157 132.578 47.2965C132.578 42.6773 136.317 36.7883 140.927 34.1188C145.536 31.4492 149.315 33.0389 149.315 37.6182Z" fill="#042423"/>
</g>
<g style="mix-blend-mode:screen">
<path d="M145.794 46.1204C149.343 41.403 150.055 35.9509 147.385 33.9427C144.715 31.9345 139.674 34.1307 136.126 38.8481C132.578 43.5655 131.865 49.0176 134.535 51.0258C137.205 53.034 142.246 50.8377 145.794 46.1204Z" fill="#052928"/>
</g>
<g style="mix-blend-mode:screen">
<path d="M145.612 45.9825C149.024 41.4461 149.708 36.2025 147.14 34.2707C144.572 32.3388 139.723 34.4503 136.311 38.9867C132.899 43.5232 132.215 48.7667 134.783 50.6986C137.351 52.6304 142.2 50.519 145.612 45.9825Z" fill="#052F2D"/>
</g>
<g style="mix-blend-mode:screen">
<path d="M148.375 38.198C148.375 42.2873 145.055 47.5264 140.956 49.896C136.857 52.2656 133.537 50.8958 133.537 46.7566C133.537 42.6173 136.857 37.4282 140.956 35.0586C145.055 32.689 148.375 34.0987 148.375 38.198Z" fill="#063532"/>
</g>
<g style="mix-blend-mode:screen">
<path d="M145.237 45.6999C148.374 41.5297 149.003 36.7095 146.642 34.9337C144.281 33.1579 139.824 35.0989 136.687 39.2691C133.551 43.4392 132.922 48.2594 135.283 50.0352C137.643 51.8111 142.1 49.8701 145.237 45.6999Z" fill="#063B38"/>
</g>
<g style="mix-blend-mode:screen">
<path d="M147.756 38.5581C147.756 42.3075 144.706 47.1067 140.957 49.2763C137.207 51.4459 134.168 50.1561 134.168 46.3968C134.168 42.6374 137.167 37.8483 140.957 35.6886C144.746 33.529 147.756 34.8088 147.756 38.5581Z" fill="#07413E"/>
</g>
<g style="mix-blend-mode:screen">
<path d="M147.436 38.7378C147.436 42.3172 144.537 46.8964 140.957 48.9561C137.378 51.0157 134.479 49.7959 134.479 46.2166C134.479 42.6372 137.378 38.068 140.957 35.9983C144.537 33.9287 147.436 35.1585 147.436 38.7378Z" fill="#084845"/>
</g>
<g style="mix-blend-mode:screen">
<path d="M147.125 38.9177C147.125 42.3272 144.365 46.6764 140.956 48.6461C137.547 50.6157 134.787 49.446 134.787 46.0365C134.787 42.6271 137.547 38.2779 140.956 36.3082C144.365 34.3386 147.125 35.5083 147.125 38.9177Z" fill="#094F4B"/>
</g>
<g style="mix-blend-mode:screen">
<path d="M146.816 39.0979C146.816 42.3274 144.196 46.4666 140.957 48.3363C137.717 50.206 135.098 49.0962 135.098 45.8567C135.098 42.6173 137.727 38.488 140.957 36.6183C144.186 34.7487 146.816 35.8585 146.816 39.0979Z" fill="#0A5653"/>
</g>
<g style="mix-blend-mode:screen">
<path d="M146.506 39.2778C146.506 42.3373 144.016 46.2766 140.957 48.0263C137.898 49.776 135.418 48.7361 135.418 45.6767C135.418 42.6172 137.898 38.6779 140.957 36.9382C144.016 35.1985 146.506 36.2183 146.506 39.2778Z" fill="#0A5E5A"/>
</g>
<g style="mix-blend-mode:screen">
<path d="M144.11 44.8525C146.42 41.7812 146.884 38.2311 145.145 36.9233C143.406 35.6155 140.124 37.0452 137.814 40.1165C135.504 43.1879 135.04 46.7379 136.779 48.0457C138.518 49.3535 141.8 47.9239 144.11 44.8525Z" fill="#0B6662"/>
</g>
<g style="mix-blend-mode:screen">
<path d="M145.875 39.6178C145.875 42.3373 143.676 45.8067 140.956 47.3764C138.237 48.9462 136.037 48.0163 136.037 45.2968C136.037 42.5772 138.237 39.1079 140.956 37.5381C143.676 35.9684 145.875 36.9182 145.875 39.6178Z" fill="#0C6F6A"/>
</g>
<g style="mix-blend-mode:screen">
<path d="M145.576 39.818C145.576 42.3676 143.516 45.617 140.967 47.0867C138.417 48.5565 136.357 47.6866 136.357 45.0871C136.357 42.4875 138.427 39.2881 140.967 37.8183C143.506 36.3486 145.576 37.2684 145.576 39.818Z" fill="#0D7873"/>
</g>
<g style="mix-blend-mode:screen">
<path d="M145.257 39.9978C145.257 42.3674 143.327 45.4069 140.957 46.7766C138.588 48.1464 136.658 47.3265 136.658 44.9569C136.658 42.5873 138.588 39.5479 140.957 38.1781C143.327 36.8083 145.257 37.6182 145.257 39.9978Z" fill="#0E817B"/>
</g>
<g style="mix-blend-mode:screen">
<path d="M144.946 40.1778C144.946 42.3774 143.156 45.177 140.947 46.4567C138.737 47.7365 136.947 46.9767 136.947 44.777C137.075 43.4902 137.504 42.2514 138.198 41.1607C138.893 40.07 139.834 39.158 140.947 38.4981C143.156 37.2283 144.946 37.9782 144.946 40.1778Z" fill="#0F8B85"/>
</g>
<g style="mix-blend-mode:screen">
<path d="M144.626 40.3576C144.51 41.5425 144.118 42.6838 143.481 43.6893C142.844 44.6949 141.979 45.5366 140.956 46.1466C138.957 47.3164 137.287 46.6265 137.287 44.5969C137.402 43.4119 137.795 42.2707 138.432 41.2651C139.069 40.2596 139.934 39.4179 140.956 38.8079C142.986 37.6181 144.626 38.3279 144.626 40.3576Z" fill="#10958E"/>
</g>
<g style="mix-blend-mode:screen">
<path d="M144.316 40.5377C144.208 41.6214 143.847 42.6648 143.264 43.5847C142.681 44.5047 141.891 45.2758 140.957 45.8367C139.107 46.9066 137.598 46.2766 137.598 44.417C137.707 43.3332 138.067 42.2898 138.65 41.3699C139.234 40.4499 140.023 39.6788 140.957 39.1179C142.817 38.0481 144.316 38.688 144.316 40.5377Z" fill="#129F98"/>
</g>
<g style="mix-blend-mode:screen">
<path d="M144.005 40.7178C143.907 41.7017 143.58 42.649 143.051 43.4841C142.521 44.3191 141.804 45.0187 140.956 45.527C139.276 46.5268 137.906 45.9169 137.906 44.2372C138.004 43.2533 138.331 42.306 138.861 41.4709C139.39 40.6359 140.108 39.9363 140.956 39.428C142.635 38.4582 144.005 39.0381 144.005 40.7178Z" fill="#13AAA2"/>
</g>
<g style="mix-blend-mode:screen">
<path d="M143.696 40.8974C143.607 41.781 143.313 42.6317 142.838 43.3816C142.362 44.1315 141.718 44.7599 140.956 45.2166C139.446 46.0865 138.227 45.5666 138.227 44.0568C138.312 43.175 138.604 42.3257 139.078 41.5772C139.552 40.8287 140.196 40.202 140.956 39.7476C142.466 38.8677 143.696 39.3876 143.696 40.8974Z" fill="#14B5AD"/>
</g>
<g style="mix-blend-mode:screen">
<path d="M143.374 41.0776C143.299 41.8596 143.041 42.6129 142.621 43.2765C142.201 43.94 141.63 44.4952 140.955 44.897C139.615 45.6768 138.535 45.2169 138.535 43.8971C138.61 43.1152 138.868 42.3619 139.289 41.6983C139.709 41.0347 140.28 40.4796 140.955 40.0778C142.295 39.2879 143.374 39.7379 143.374 41.0776Z" fill="#14B5AD"/>
</g>
<g style="mix-blend-mode:screen">
<path d="M143.286 41.1377C143.211 41.8886 142.961 42.6115 142.556 43.2486C142.152 43.8857 141.604 44.4194 140.956 44.807C139.677 45.5469 138.637 45.107 138.637 43.8072C138.712 43.0574 138.96 42.3354 139.363 41.6985C139.766 41.0615 140.311 40.5272 140.956 40.1378C142.246 39.408 143.286 39.8479 143.286 41.1377Z" fill="#19B8B0"/>
</g>
<g style="mix-blend-mode:screen">
<path d="M143.188 41.1876C143.117 41.9077 142.878 42.6011 142.491 43.2123C142.104 43.8235 141.579 44.3354 140.958 44.707C139.728 45.4169 138.729 44.9969 138.729 43.7671C138.799 43.0471 139.038 42.3536 139.425 41.7424C139.812 41.1312 140.337 40.6193 140.958 40.2478C142.188 39.5379 143.188 39.9578 143.188 41.1876Z" fill="#1FBBB3"/>
</g>
<g style="mix-blend-mode:screen">
<path d="M143.085 41.2475C143.019 41.9354 142.792 42.598 142.422 43.1817C142.052 43.7653 141.55 44.2536 140.956 44.6069C139.776 45.2868 138.826 44.8869 138.826 43.7071C138.892 43.0192 139.12 42.3566 139.49 41.773C139.86 41.1893 140.362 40.701 140.956 40.3477C142.136 39.6678 143.085 40.0677 143.085 41.2475Z" fill="#24BEB7"/>
</g>
<g style="mix-blend-mode:screen">
<path d="M142.997 41.3072C142.937 41.9609 142.724 42.5913 142.377 43.1485C142.03 43.7057 141.558 44.1741 140.998 44.5167C139.878 45.1566 138.998 44.7766 138.998 43.6568C139.057 43.0028 139.269 42.3717 139.616 41.8143C139.963 41.2569 140.437 40.7887 140.998 40.4474C142.088 39.7975 142.997 40.1774 142.997 41.3072Z" fill="#2AC1BA"/>
</g>
<g style="mix-blend-mode:screen">
<path d="M142.895 41.3576C142.835 41.9843 142.628 42.588 142.291 43.1196C141.954 43.6512 141.497 44.0958 140.955 44.4171C139.885 45.037 139.016 44.6671 139.016 43.5973C139.075 42.9706 139.282 42.3669 139.619 41.8353C139.956 41.3037 140.414 40.8591 140.955 40.5378C142.025 39.9179 142.895 40.2878 142.895 41.3576Z" fill="#2FC4BD"/>
</g>
<g style="mix-blend-mode:screen">
<path d="M142.797 41.4174C142.738 42.0107 142.54 42.582 142.221 43.0855C141.901 43.589 141.469 44.0107 140.957 44.3169C139.957 44.9068 139.117 44.5568 139.117 43.537C139.176 42.9436 139.373 42.3723 139.693 41.8688C140.012 41.3653 140.445 40.9436 140.957 40.6375C141.977 40.0476 142.797 40.3975 142.797 41.4174Z" fill="#34C7C0"/>
</g>
<g style="mix-blend-mode:screen">
<path d="M142.704 41.4677C142.648 42.0322 142.46 42.5757 142.156 43.0548C141.853 43.5339 141.441 43.9354 140.955 44.2272C139.955 44.7771 139.215 44.4471 139.215 43.4873C139.269 42.9246 139.454 42.3824 139.756 41.9047C140.058 41.4271 140.469 41.0273 140.955 40.7378C141.914 40.1779 142.704 40.5078 142.704 41.4677Z" fill="#3ACBC3"/>
</g>
<g style="mix-blend-mode:screen">
<path d="M142.577 41.5274C142.523 42.0593 142.346 42.5714 142.06 43.0228C141.774 43.4741 141.386 43.8523 140.927 44.127C140.017 44.6469 139.277 44.3369 139.277 43.4271C139.331 42.8952 139.508 42.3831 139.794 41.9318C140.081 41.4804 140.468 41.1023 140.927 40.8275C141.867 40.3076 142.577 40.6176 142.577 41.5274Z" fill="#3FCEC7"/>
</g>
<g style="mix-blend-mode:screen">
<path d="M142.508 41.6176C142.459 42.1173 142.293 42.5985 142.024 43.0223C141.755 43.4462 141.39 43.8006 140.958 44.0572C140.098 44.5571 139.408 44.2571 139.408 43.4073C139.455 42.9058 139.62 42.4226 139.89 41.9969C140.159 41.5713 140.525 41.2152 140.958 40.9577C141.818 40.4378 142.508 40.7277 142.508 41.6176Z" fill="#45D1CA"/>
</g>
<g style="mix-blend-mode:screen">
<path d="M142.405 41.6177C142.36 42.0863 142.206 42.5377 141.954 42.9355C141.702 43.3333 141.36 43.6662 140.956 43.9073C140.156 44.3772 139.506 44.0972 139.506 43.2974C139.551 42.8287 139.706 42.3773 139.957 41.9795C140.209 41.5817 140.551 41.2489 140.956 41.0078C141.755 40.5579 142.405 40.8378 142.405 41.6177Z" fill="#4AD4CD"/>
</g>
<g style="mix-blend-mode:screen">
<path d="M142.317 41.6972C142.273 42.1351 142.126 42.5564 141.89 42.9279C141.654 43.2993 141.335 43.6106 140.957 43.8369C140.208 44.2668 139.598 44.0069 139.598 43.257C139.642 42.8192 139.788 42.3978 140.025 42.0264C140.261 41.655 140.58 41.3437 140.957 41.1174C141.707 40.6874 142.317 40.9474 142.317 41.6972Z" fill="#50D7D0"/>
</g>
<g style="mix-blend-mode:screen">
<path d="M142.215 41.7473C142.178 42.1564 142.044 42.551 141.825 42.8986C141.606 43.2461 141.308 43.5369 140.955 43.747C140.265 44.1469 139.695 43.9069 139.695 43.217C139.734 42.8083 139.868 42.4144 140.087 42.0671C140.306 41.7197 140.603 41.4287 140.955 41.2174C141.655 40.8175 142.215 41.0574 142.215 41.7473Z" fill="#55DAD3"/>
</g>
<g style="mix-blend-mode:screen">
<path d="M142.116 41.8075C142.079 42.1818 141.955 42.5423 141.754 42.86C141.552 43.1777 141.279 43.4439 140.957 43.6371C140.317 44.0071 139.797 43.7871 139.797 43.1472C139.834 42.7729 139.958 42.4124 140.16 42.0947C140.361 41.777 140.634 41.5108 140.957 41.3176C141.577 40.9476 142.116 41.1676 142.116 41.8075Z" fill="#5ADDD7"/>
</g>
<g style="mix-blend-mode:screen">
<path d="M142.028 41.8673C141.993 42.2113 141.878 42.5423 141.692 42.8339C141.506 43.1255 141.255 43.3697 140.958 43.547C140.368 43.887 139.898 43.677 139.898 43.0971C139.93 42.7521 140.043 42.4194 140.227 42.1259C140.411 41.8324 140.661 41.5862 140.958 41.4074C141.578 41.0675 142.028 41.2774 142.028 41.8673Z" fill="#60E0DA"/>
</g>
<g style="mix-blend-mode:screen">
<path d="M141.927 41.9173C141.894 42.2334 141.786 42.5371 141.612 42.8031C141.439 43.0692 141.204 43.2899 140.928 43.4471C140.398 43.757 139.928 43.5771 139.928 43.0372C139.961 42.7211 140.069 42.4174 140.243 42.1514C140.417 41.8854 140.651 41.6646 140.928 41.5074C141.497 41.1975 141.927 41.3874 141.927 41.9173Z" fill="#65E3DD"/>
</g>
<g style="mix-blend-mode:screen">
<path d="M141.828 41.9773C141.799 42.2576 141.706 42.5274 141.555 42.7652C141.404 43.003 141.199 43.2022 140.958 43.3471C140.478 43.627 140.088 43.467 140.088 42.9771C140.116 42.6969 140.21 42.4271 140.361 42.1893C140.512 41.9515 140.716 41.7522 140.958 41.6074C141.438 41.3274 141.828 41.4974 141.828 41.9773Z" fill="#6BE6E0"/>
</g>
<g style="mix-blend-mode:screen">
<path d="M141.735 42.0274C141.71 42.279 141.627 42.5213 141.491 42.7349C141.356 42.9484 141.172 43.1273 140.955 43.2572C140.526 43.4971 140.186 43.3572 140.186 42.9272C140.208 42.6774 140.289 42.4365 140.423 42.2243C140.557 42.0122 140.739 41.835 140.955 41.7074C141.385 41.4575 141.735 41.6175 141.735 42.0274Z" fill="#70E9E4"/>
</g>
<g style="mix-blend-mode:screen">
<path d="M141.637 42.0875C141.615 42.3065 141.542 42.5173 141.424 42.7031C141.306 42.8889 141.146 43.0444 140.957 43.1573C140.587 43.3773 140.277 43.2473 140.277 42.8673C140.302 42.649 140.375 42.439 140.493 42.2536C140.611 42.0681 140.77 41.9121 140.957 41.7975C141.337 41.6175 141.637 41.7075 141.637 42.0875Z" fill="#75ECE7"/>
</g>
<g style="mix-blend-mode:screen">
<path d="M141.576 42.1372C141.559 42.3256 141.498 42.5073 141.397 42.6673C141.296 42.8273 141.159 42.9609 140.996 43.0571C140.676 43.247 140.416 43.1371 140.416 42.8171C140.434 42.6292 140.496 42.4481 140.597 42.2884C140.697 42.1287 140.834 41.9947 140.996 41.8973C141.276 41.7073 141.576 41.8173 141.576 42.1372Z" fill="#7BF0EA"/>
</g>
<g style="mix-blend-mode:screen">
<path d="M141.446 42.1974C141.432 42.3554 141.38 42.5077 141.294 42.6415C141.209 42.7754 141.093 42.8871 140.956 42.9673C140.687 43.1173 140.477 43.0273 140.477 42.7573C140.492 42.602 140.543 42.4524 140.626 42.3204C140.71 42.1885 140.823 42.0779 140.956 41.9975C141.226 41.8375 141.446 41.9275 141.446 42.1974Z" fill="#80F3ED"/>
</g>
<g style="mix-blend-mode:screen">
<path d="M141.348 42.2574C141.335 42.3824 141.293 42.5025 141.225 42.6084C141.158 42.7142 141.066 42.8029 140.958 42.8673C140.748 42.9873 140.568 42.9173 140.568 42.6973C140.583 42.5728 140.626 42.4533 140.693 42.3476C140.761 42.242 140.851 42.1531 140.958 42.0875C141.178 41.9675 141.348 42.0375 141.348 42.2574Z" fill="#86F6F0"/>
</g>
<g style="mix-blend-mode:screen">
<path d="M141.246 42.3075C141.237 42.4016 141.206 42.4923 141.156 42.5722C141.106 42.6521 141.037 42.719 140.956 42.7674C140.796 42.8574 140.666 42.7674 140.666 42.6474C140.675 42.5533 140.706 42.4626 140.756 42.3827C140.806 42.3028 140.875 42.2359 140.956 42.1875C141.116 42.0975 141.246 42.1475 141.246 42.3075Z" fill="#8BF9F4"/>
</g>
<g style="mix-blend-mode:screen">
<path d="M141.146 42.3675C141.142 42.4294 141.122 42.4893 141.089 42.5417C141.056 42.5942 141.01 42.6374 140.956 42.6674C140.846 42.7374 140.766 42.6674 140.766 42.5874C140.771 42.526 140.791 42.4667 140.824 42.4146C140.858 42.3624 140.902 42.3189 140.956 42.2875C141.066 42.2175 141.146 42.2575 141.146 42.3675Z" fill="#91FCF7"/>
</g>
<g style="mix-blend-mode:screen">
<path d="M141.055 42.4174C141.052 42.45 141.042 42.4815 141.024 42.5092C141.007 42.537 140.983 42.5603 140.955 42.5773C140.905 42.5773 140.855 42.5773 140.855 42.5773C140.859 42.5447 140.869 42.5133 140.886 42.4855C140.904 42.4577 140.927 42.4344 140.955 42.4174C141.005 42.3474 141.055 42.3674 141.055 42.4174Z" fill="#96FFFA"/>
</g>
</g>
</g>
<g style="mix-blend-mode:screen" opacity="0.5">
<path d="M142.407 41.6174C142.362 42.086 142.208 42.5375 141.956 42.9353C141.704 43.333 141.362 43.6659 140.958 43.907C140.158 44.3769 139.508 44.097 139.508 43.2971C139.553 42.8285 139.708 42.377 139.959 41.9793C140.211 41.5815 140.553 41.2486 140.958 41.0075C141.757 40.5576 142.407 40.8375 142.407 41.6174Z" fill="#E3FFFD"/>
</g>
<path d="M114.701 79.9707V81.8504L118.551 84.07V82.1903L114.701 79.9707Z" fill="#313436"/>
<path opacity="0.4" d="M117.681 83.2404L117.991 83.4104L119.061 82.7905L118.761 82.6206L117.681 83.2404ZM117.021 82.8505L117.321 83.0305L118.391 82.4106L118.091 82.2306L117.021 82.8505ZM116.351 82.4706L116.661 82.6405L117.731 82.0207L117.431 81.8507L116.351 82.4706ZM115.691 82.0906L115.991 82.2606L117.061 81.6407L116.761 81.4707L115.691 82.0906ZM115.021 81.7007L115.321 81.8807L116.401 81.2608L116.101 81.0808L115.021 81.7007Z" fill="#A88038"/>
<path d="M118.35 83.0899L119.339 82.51V82.1001L118.35 82.67V83.0899Z" fill="#2C4D5E"/>
<path d="M118.351 82.6705L119.341 82.1006L116.072 80.2109L115.082 80.7908L118.351 82.6705Z" fill="#477C97"/>
<path d="M115.08 80.7908V81.2107L118.35 83.0904V82.6705L115.08 80.7908Z" fill="#3F6F87"/>
<path d="M118.548 83.6001V82.6903L118.328 82.5603V83.4701L118.548 83.6001Z" fill="#9BA3A8"/>
<path d="M114.921 81.5105V80.6007L114.701 80.4707V81.3805L114.921 81.5105Z" fill="#9BA3A8"/>
<path d="M115 80.5505L118.249 82.4202V82.2002L115 80.3306V80.5505Z" fill="#9BA3A8"/>
<path d="M115 81.8704L118.249 83.74V83.5201L115 81.6504V81.8704Z" fill="#9BA3A8"/>
<path d="M95.8932 90.1891C95.5933 89.1893 93.0637 82.6904 93.5136 78.7711C93.852 75.935 93.9623 73.0763 93.8436 70.2225C93.7667 69.3043 93.5369 68.4055 93.1637 67.563C92.8036 66.7566 92.3251 66.0084 91.7439 65.3434C91.1731 64.6813 90.4976 64.1172 89.7443 63.6737C89.1554 63.2627 88.4698 63.0117 87.7548 62.9451C87.0398 62.8785 86.3197 62.9986 85.665 63.2937L79.666 66.7631C80.3183 66.465 81.0373 66.3431 81.7514 66.4098C82.4655 66.4765 83.1495 66.7293 83.7353 67.1431C84.4903 67.5842 85.1662 68.1486 85.735 68.8128C86.3183 69.4762 86.7971 70.2247 87.1547 71.0324C87.528 71.8749 87.7578 72.7737 87.8346 73.6919C87.9586 76.5423 87.8482 79.3981 87.5047 82.2305C87.0548 86.1498 89.5843 92.6987 89.8943 93.6585C90.1342 94.4384 89.9743 95.0283 89.5943 95.2482L95.5933 91.7788C95.9832 91.6089 96.1432 90.969 95.8932 90.1891Z" fill="url(#paint7_linear)"/>
<path d="M83.7642 67.143C84.9171 67.8331 85.8904 68.7862 86.6046 69.9244C87.3188 71.0626 87.7536 72.3535 87.8735 73.6919C87.9975 76.5423 87.8871 79.3981 87.5436 82.2304C87.0936 86.1497 89.6232 92.6986 89.9332 93.6584C90.3331 94.9482 89.6332 95.7281 88.6334 95.1482L81.6346 91.0889C80.443 90.3245 79.5773 89.1453 79.205 87.7795C78.0952 83.5102 79.9949 79.061 78.7151 73.312C78.3352 71.6222 77.8352 70.3625 78.2452 68.8627C78.995 66.0832 81.4946 65.8332 83.7642 67.143Z" fill="#B2B9BB"/>
<path d="M89.204 55.6147V65.253C89.2635 65.8393 89.1672 66.4308 88.925 66.968C88.6827 67.5052 88.303 67.969 87.8242 68.3125L93.8232 64.8431C94.3035 64.501 94.6844 64.0375 94.9268 63.4999C95.1692 62.9624 95.2645 62.3701 95.203 61.7836V52.1453L89.204 55.6147Z" fill="#C7CECF"/>
<path d="M94.6828 50.0157C94.3988 49.3853 94.025 48.7993 93.573 48.276C93.2182 47.8585 92.7957 47.5036 92.3232 47.2262L87.774 44.6167C87.488 44.4098 87.1523 44.2824 86.8011 44.2472C86.4499 44.2121 86.0957 44.2706 85.7744 44.4167L79.7754 47.8861C80.0967 47.74 80.4509 47.6815 80.8022 47.7166C81.1534 47.7518 81.489 47.8792 81.775 48.0861L86.3242 50.7056C86.7947 50.9899 87.2167 51.3477 87.574 51.7654C88.0316 52.2845 88.406 52.8714 88.6839 53.5052C88.9909 54.1812 89.1575 54.9125 89.1738 55.6548L95.1727 52.1854C95.1592 51.4363 94.9925 50.6979 94.6828 50.0157Z" fill="url(#paint8_linear)"/>
<path d="M86.3542 50.6856C87.1861 51.2272 87.8779 51.9579 88.3732 52.8181C88.8684 53.6783 89.1531 54.6435 89.2038 55.6348V65.2731C89.2038 68.2726 87.0641 69.5124 84.4346 67.9926L83.6747 67.5627C82.294 66.6622 81.1452 65.4486 80.3217 64.0205C79.4982 62.5925 79.0233 60.9903 78.9355 59.3441V49.7058C78.9355 47.8861 80.2253 47.1462 81.805 48.0661L86.3542 50.6856Z" fill="#B2B9BB"/>
<path d="M60.6982 69.2025C53.6495 48.4561 60.5883 57.7545 59.9184 50.4458C59.8149 49.4083 59.5413 48.3949 59.1085 47.4463C58.6275 46.3578 57.9873 45.3469 57.2088 44.4468C56.7321 43.901 56.1917 43.4143 55.5991 42.9971L55.0892 42.6671C54.5947 42.3083 54.0136 42.0877 53.4056 42.028C52.7976 41.9682 52.1847 42.0715 51.6298 42.3272L45.6309 45.7966C46.1857 45.5409 46.7986 45.4376 47.4066 45.4974C48.0147 45.5571 48.5958 45.7777 49.0903 46.1365C49.2602 46.2365 49.4302 46.3365 49.6002 46.4565C50.193 46.8772 50.7333 47.3673 51.2099 47.9162C51.9957 48.8128 52.6397 49.8243 53.1196 50.9157C53.5445 51.8664 53.8145 52.8791 53.9194 53.9152C54.5893 61.2239 47.6505 51.9155 54.6993 72.6719C55.0492 73.6718 54.8593 74.5316 54.3494 74.8216L60.3483 71.3522C60.8582 71.0622 61.0482 70.2424 60.6982 69.2025Z" fill="url(#paint9_linear)"/>
<path d="M54.729 72.6717C47.6802 51.9253 54.619 61.2237 53.9491 53.915C53.7578 52.4535 53.2774 51.0448 52.5358 49.7711C51.7942 48.4973 50.8064 47.3841 49.6298 46.4963C49.4599 46.3763 49.2899 46.2763 49.1199 46.1763C46.8503 44.8665 44.9506 45.5564 44.4007 47.6561C43.2409 52.8652 43.3209 62.0636 43.2109 66.5828C43.2335 67.2932 43.427 67.9876 43.7751 68.6073C44.1232 69.2269 44.6156 69.7534 45.2106 70.1422L53.0892 74.6914C54.429 75.4612 55.3089 74.3714 54.729 72.6717Z" fill="#B2B9BB"/>
<path d="M58.8908 41.3171L56.1413 48.8758C55.9502 49.4731 55.5534 49.9832 55.0215 50.3155L61.0204 46.8461C61.5524 46.5138 61.9491 46.0037 62.1403 45.4063L64.8798 37.8477L58.8908 41.3171Z" fill="#C7CECF"/>
<path d="M64.5088 34.7283C64.2371 34.0966 63.8658 33.5126 63.409 32.9986C63.3069 32.8747 63.1967 32.7578 63.079 32.6486L58.7798 28.4694C58.5014 28.1983 58.1928 27.9601 57.8599 27.7595C57.5719 27.5573 57.2366 27.4326 56.8863 27.3976C56.5361 27.3626 56.1827 27.4184 55.8603 27.5595L49.8613 31.0289C50.1826 30.8828 50.5369 30.8243 50.8881 30.8595C51.2393 30.8946 51.575 31.022 51.861 31.2289C52.1961 31.4261 52.5051 31.6646 52.7808 31.9388L57.0801 36.108C57.2001 36.228 57.31 36.338 57.42 36.468C57.868 36.9829 58.2355 37.5627 58.5099 38.1877C59.0005 39.1544 59.1248 40.266 58.8598 41.3172L64.8587 37.8478C65.1297 36.8003 65.0051 35.6897 64.5088 34.7283Z" fill="url(#paint10_linear)"/>
<path d="M51.8916 31.229C52.2267 31.4262 52.5357 31.6647 52.8115 31.9389L57.1107 36.1082C58.6104 37.5579 59.4003 39.8975 58.8904 41.3173L56.1409 48.876C55.461 50.7656 53.6113 51.1256 51.6317 49.9858C51.0719 49.6533 50.5548 49.2538 50.0919 48.796L49.3821 48.1061C46.8925 45.6865 45.5727 41.8172 46.3826 39.4476L49.1221 31.8889C49.592 30.7591 50.7018 30.5391 51.8916 31.229Z" fill="#B2B9BB"/>
<path d="M90.4739 60.1541C90.2753 58.1755 89.7516 56.2432 88.9242 54.435C88.0178 52.3743 86.8042 50.4629 85.3248 48.766C84.4778 47.7843 83.5218 46.9021 82.4753 46.1365C82.0893 45.8588 81.6888 45.6018 81.2755 45.3666C80.0979 44.6336 78.7597 44.1978 77.3762 44.0968C75.126 43.9548 72.9438 43.2686 71.0173 42.0972L62.7887 37.348C60.4089 35.8914 58.2675 34.0771 56.4398 31.9689C55.314 30.6953 53.9988 29.6027 52.5405 28.7295C52.1529 28.5057 51.7523 28.3054 51.3407 28.1296C50.5062 27.6982 49.5805 27.4731 48.6411 27.4731C47.7018 27.4731 46.7761 27.6982 45.9416 28.1296L33.5938 35.2783C34.43 34.8469 35.3573 34.6218 36.2983 34.6218C37.2392 34.6218 38.1666 34.8469 39.0028 35.2783C39.4102 35.4562 39.8074 35.6565 40.1926 35.8782C41.6547 36.7463 42.9706 37.8395 44.0919 39.1177C45.923 41.2263 48.0678 43.0406 50.4508 44.4968L58.6694 49.2459C60.6 50.4164 62.7852 51.1024 65.0383 51.2456C66.4218 51.3466 67.76 51.7824 68.9377 52.5154C69.3276 52.7453 69.7275 52.9953 70.1275 53.2852C71.1739 54.0509 72.1299 54.933 72.977 55.9148C74.462 57.6205 75.6791 59.5421 76.5863 61.6138C77.4046 63.4253 77.9278 65.356 78.1361 67.3328C78.446 70.9222 77.3762 73.4318 75.4765 74.5316L87.7844 67.3828C89.7141 66.253 90.7939 63.7434 90.4739 60.1541Z" fill="url(#paint11_linear)"/>
<path d="M62.7901 37.3777L50.4922 44.5365L58.7108 49.2856L71.0186 42.1368L62.7901 37.3777Z" fill="#2E3030"/>
<path d="M90.4726 60.1542C90.274 58.1756 89.7503 56.2433 88.9229 54.4351C88.0164 52.3745 86.8029 50.4631 85.3235 48.7661L73.0156 55.9149C74.4866 57.6233 75.69 59.5448 76.585 61.6139C77.4033 63.4254 77.9264 65.3561 78.1347 67.3329C78.4447 70.9223 77.3749 73.4319 75.4752 74.5317L87.7831 67.3829C89.7128 66.2531 90.7926 63.7435 90.4726 60.1542Z" fill="#C7CECF"/>
<path d="M78.1762 67.3026C77.831 64.5575 76.9466 61.9077 75.5739 59.5055C74.2013 57.1033 72.3673 54.9961 70.1776 53.305C69.7777 53.015 69.3777 52.7651 68.9878 52.5351C67.8102 51.8021 66.472 51.3663 65.0885 51.2653C62.8353 51.1222 60.6502 50.4361 58.7196 49.2657L50.501 44.5165C48.1179 43.0604 45.9732 41.2461 44.1421 39.1374C43.0208 37.8593 41.7048 36.766 40.2428 35.898C39.8575 35.6762 39.4603 35.476 39.053 35.2981C34.8437 33.4784 31.4743 35.4581 30.9944 40.0373C30.3645 46.1162 34.7137 54.0849 40.1928 57.2443C41.3558 57.9601 42.6711 58.3917 44.0321 58.5041C46.3787 58.676 48.6523 59.3951 50.671 60.6037L58.4596 65.1029C60.9393 66.6078 63.1747 68.4824 65.0885 70.662C66.1938 71.9097 67.4855 72.9788 68.9178 73.8315C74.3869 77.0109 78.7761 74.0914 78.1762 67.3026Z" fill="#B2B9BB"/>
<path d="M50.4922 44.5369L50.6622 60.6241L58.4508 65.1233L58.7108 49.286L50.4922 44.5369Z" fill="#212121"/>
<path d="M74.8893 102.327C74.5793 101.327 72.0498 94.8184 72.4997 90.899C72.843 88.0667 72.9534 85.2109 72.8296 82.3605C72.7575 81.4383 72.5276 80.5353 72.1498 79.6909C71.7934 78.8825 71.3145 78.1339 70.73 77.4713C70.161 76.8101 69.4851 76.2491 68.7304 75.8116C68.1454 75.396 67.4612 75.142 66.7467 75.0753C66.0323 75.0086 65.3128 75.1315 64.6611 75.4317L58.6621 78.9011C59.3153 78.6016 60.0354 78.4782 60.751 78.5431C61.4666 78.608 62.1528 78.8589 62.7414 79.271C63.4928 79.7173 64.1679 80.281 64.741 80.9407C65.3289 81.6007 65.8082 82.3499 66.1608 83.1603C66.5386 84.0047 66.7686 84.9077 66.8407 85.8299C66.9642 88.6803 66.8539 91.5361 66.5108 94.3684C66.0608 98.2878 68.5904 104.827 68.9003 105.796C69.1403 106.566 68.9903 107.156 68.6004 107.386L74.5994 103.917C74.9693 103.697 75.1292 103.097 74.8893 102.327Z" fill="url(#paint12_linear)"/>
<path d="M62.7606 79.2712C63.9124 79.9641 64.8841 80.9194 65.5965 82.0592C66.3089 83.199 66.7417 84.4911 66.8598 85.83C66.9834 88.6805 66.873 91.5362 66.5299 94.3686C66.08 98.2879 68.6095 104.827 68.9195 105.797C69.3194 107.076 68.6295 107.866 67.6297 107.286L60.6309 103.217C59.4336 102.457 58.5635 101.276 58.1913 99.9076C57.0815 95.6483 58.9812 91.1891 57.7014 85.4401C57.3215 83.7604 56.8216 82.5006 57.2315 80.9909C57.9814 78.2114 60.4909 77.9614 62.7606 79.2712Z" fill="#B2B9BB"/>
<path d="M68.1886 67.7626V77.4109C68.2462 77.9966 68.148 78.5871 67.9039 79.1227C67.6599 79.6582 67.2786 80.1197 66.7988 80.4604L72.7978 76.991C73.2776 76.6503 73.6588 76.1888 73.9029 75.6533C74.1469 75.1177 74.2452 74.5272 74.1876 73.9415V64.2932L68.1886 67.7626Z" fill="#C7CECF"/>
<path d="M73.6672 62.1436C73.3869 61.5112 73.0128 60.9246 72.5574 60.4039C72.1999 59.9892 71.7779 59.6347 71.3076 59.3541L66.7584 56.7246C66.4724 56.5177 66.1367 56.3903 65.7855 56.3551C65.4343 56.32 65.08 56.3785 64.7587 56.5246L58.7598 59.994C59.0811 59.8479 59.4353 59.7894 59.7865 59.8245C60.1378 59.8597 60.4734 59.9871 60.7594 60.194L65.3086 62.8235C65.7789 63.1041 66.2009 63.4586 66.5584 63.8733C67.0138 64.394 67.388 64.9806 67.6682 65.613C67.9798 66.2875 68.1468 67.0198 68.1581 67.7627L74.1571 64.2933C74.1457 63.5504 73.9788 62.8181 73.6672 62.1436Z" fill="url(#paint13_linear)"/>
<path d="M65.3389 62.8236C66.1711 63.3623 66.8633 64.0911 67.3588 64.9498C67.8542 65.8085 68.1385 66.7726 68.1884 67.7627V77.411C68.1884 80.4105 66.0388 81.6503 63.4092 80.1306L62.6593 79.6907C61.2739 78.7942 60.1211 77.5818 59.2954 76.1531C58.4698 74.7243 57.9951 73.12 57.9102 71.4721V61.8338C57.9102 60.0141 59.1999 59.2842 60.7797 60.194L65.3389 62.8236Z" fill="#B2B9BB"/>
<path d="M39.6824 81.3302C32.6836 60.5938 39.5724 69.8922 38.9025 62.5834C38.8029 61.5464 38.5327 60.5329 38.1027 59.5839C37.6212 58.4934 36.9773 57.4822 36.193 56.5845C35.7191 56.0329 35.1784 55.5426 34.5833 55.1247C34.4202 55.0074 34.2499 54.9005 34.0734 54.8048C33.5818 54.4439 33.0021 54.222 32.3952 54.1621C31.7883 54.1023 31.1766 54.2069 30.624 54.4648L24.625 57.9342C25.1786 57.6733 25.7925 57.5671 26.4016 57.6269C27.0107 57.6868 27.5922 57.9105 28.0844 58.2742C28.2563 58.3724 28.4232 58.4792 28.5843 58.5941C29.1815 59.0094 29.7225 59.5 30.194 60.0539C30.9784 60.9516 31.6222 61.9628 32.1037 63.0533C32.5321 64.0035 32.8055 65.0162 32.9136 66.0528C33.5735 73.3616 26.6347 64.0532 33.6834 84.7996C34.0334 85.8494 33.8434 86.6593 33.3335 86.9592L39.3325 83.4898C39.8424 83.1899 40.0323 82.38 39.6824 81.3302Z" fill="url(#paint14_linear)"/>
<path d="M33.7138 84.7998C26.665 64.0534 33.6038 73.3618 32.9439 66.053C32.7543 64.585 32.2715 63.17 31.5244 61.8921C30.7773 60.6143 29.781 59.4996 28.5947 58.6143C28.4335 58.4993 28.2667 58.3926 28.0948 58.2943C25.8251 56.9746 23.9155 57.6645 23.3656 59.7641C22.2158 64.9832 22.2858 74.1816 22.1758 78.7008C22.2008 79.4107 22.3954 80.1042 22.7432 80.7234C23.0911 81.3427 23.5822 81.8696 24.1754 82.2602L32.0541 86.8094C33.4138 87.6093 34.2937 86.4995 33.7138 84.7998Z" fill="#B2B9BB"/>
<path d="M37.8732 53.4552L35.1337 61.0139C34.9357 61.6079 34.536 62.1137 34.0039 62.4437L40.0029 58.9743C40.5373 58.6469 40.9377 58.1401 41.1327 57.5445L43.8722 49.9858L37.8732 53.4552Z" fill="#C7CECF"/>
<path d="M43.4912 46.8562C43.2146 46.2294 42.8474 45.6466 42.4014 45.1265C42.2914 45.0065 42.1814 44.8865 42.0615 44.7766L37.7622 40.5973C37.4832 40.3269 37.1746 40.0888 36.8424 39.8874C36.5554 39.6821 36.2193 39.5565 35.8681 39.5231C35.5169 39.4898 35.1632 39.5499 34.8427 39.6974L28.8438 43.1568C29.1651 43.0107 29.5193 42.9523 29.8705 42.9874C30.2217 43.0225 30.5574 43.1499 30.8434 43.3568C31.1774 43.5556 31.4863 43.794 31.7633 44.0667L36.0625 48.246C36.1825 48.3559 36.2925 48.4759 36.4024 48.5959C36.8482 49.1182 37.2184 49.7004 37.5023 50.3256C37.9905 51.2933 38.1112 52.4051 37.8422 53.455L43.8412 49.9856C44.1118 48.9348 43.9873 47.8213 43.4912 46.8562Z" fill="url(#paint15_linear)"/>
<path d="M30.874 43.3569C31.2081 43.5557 31.5169 43.7941 31.7939 44.0668L36.0931 48.246C37.5929 49.6958 38.3827 52.0254 37.8728 53.4551L35.1333 61.0138C34.4434 62.8935 32.5938 63.2534 30.6141 62.1136C30.0544 61.785 29.5373 61.3887 29.0743 60.9338L28.3645 60.234C25.8749 57.8244 24.5551 53.945 25.365 51.5754L28.1045 44.0268C28.5944 42.887 29.6842 42.667 30.874 43.3569Z" fill="#B2B9BB"/>
<path d="M84.745 34.3686L82.9453 35.4184C83.3391 35.1922 83.7925 35.0911 84.2451 35.1285L86.0348 34.0786C85.5862 34.0521 85.1391 34.1526 84.745 34.3686Z" fill="url(#paint16_linear)"/>
<path d="M91.3333 38.8577C90.9152 37.9089 90.3556 37.029 89.6736 36.2481L89.5536 36.1082L87.7539 37.158L87.8739 37.288C88.5537 38.0705 89.1131 38.95 89.5336 39.8975C90.0016 40.9075 90.2535 42.004 90.2735 43.117C90.3269 43.6448 90.2394 44.1775 90.0199 44.6605C89.8003 45.1435 89.4566 45.5597 89.0237 45.8665L90.8234 44.8667C91.2562 44.5598 91.6 44.1437 91.8196 43.6607C92.0391 43.1777 92.1266 42.645 92.0731 42.1171C92.0558 40.991 91.8039 39.8809 91.3333 38.8577Z" fill="url(#paint17_linear)"/>
<path d="M87.7639 27.7698L87.7539 37.1582L89.5536 36.1083V26.72L87.7639 27.7698Z" fill="#C7CECF"/>
<path d="M89.2542 25.4001C89.0778 25.014 88.849 24.654 88.5743 24.3303C88.3541 24.0766 88.0941 23.8605 87.8044 23.6904C87.6248 23.5735 87.4178 23.5055 87.2038 23.4932C86.9899 23.481 86.7764 23.5248 86.5846 23.6204L84.7949 24.6203C84.9959 24.5286 85.2178 24.4923 85.4375 24.5152C85.6572 24.538 85.8669 24.6192 86.0447 24.7502C86.3318 24.9198 86.5886 25.1361 86.8046 25.3901C87.0837 25.7105 87.3129 26.0712 87.4845 26.4599C87.6774 26.8734 87.7797 27.3234 87.7844 27.7797L89.5841 26.7799C89.5721 26.3019 89.4597 25.8318 89.2542 25.4001Z" fill="url(#paint18_linear)"/>
<path d="M87.7543 37.1581V27.7697C87.7199 27.1683 87.5445 26.5834 87.2423 26.0623C86.9401 25.5413 86.5195 25.0986 86.0146 24.7702C85.0147 24.2003 84.2549 24.6602 84.2449 25.77V35.1584C82.7751 35.0684 81.7353 36.1582 81.6953 38.0979C81.7685 39.572 82.1811 41.0092 82.9008 42.2977C83.6205 43.5862 84.6279 44.6912 85.8446 45.5266L85.9646 45.5966C88.3442 46.9664 90.2639 45.8665 90.2738 43.147C90.1718 40.9148 89.2787 38.7918 87.7543 37.1581Z" fill="#B2B9BB"/>
<path d="M102.491 51.086C102.416 50.9111 102.318 50.7465 102.202 50.596L102.132 50.526L84.0247 31.5293C83.8089 31.3235 83.5708 31.1423 83.3148 30.9894C83.0383 30.8049 82.7157 30.7014 82.3835 30.6908C82.0513 30.6802 81.7228 30.7629 81.4351 30.9294L70.207 37.4583C70.4947 37.2918 70.8232 37.2091 71.1554 37.2197C71.4877 37.2303 71.8103 37.3338 72.0867 37.5183C72.3447 37.6682 72.5832 37.8496 72.7966 38.0582L90.9035 57.0549L90.9635 57.1249C91.0859 57.2733 91.1869 57.4382 91.2634 57.6148C92.1732 59.6145 91.6633 64.7336 90.2136 65.6134L101.442 59.0946C102.901 58.2047 103.401 53.1356 102.491 51.086Z" fill="url(#paint19_linear)"/>
<path d="M90.9041 57.0551L72.7972 38.0584C72.5838 37.8498 72.3454 37.6684 72.0874 37.5185C67.2982 34.759 65.5085 51.826 69.4078 54.0656L89.2644 65.5337C91.584 66.9034 92.5039 58.7248 90.9041 57.0551Z" fill="#B2B9BB"/>
<path d="M71.8073 41.8373L70.0176 42.8371C70.4109 42.6198 70.8593 42.5224 71.3074 42.5572L73.107 41.5073C72.6503 41.482 72.1967 41.5971 71.8073 41.8373Z" fill="#C7CECF"/>
<path d="M78.3956 46.3265C77.979 45.3739 77.4193 44.4905 76.7358 43.7069L76.5859 43.6169L74.8262 44.6168L74.9362 44.7468C75.6225 45.5264 76.1856 46.4064 76.6059 47.3563C77.07 48.3676 77.3218 49.4633 77.3458 50.5757C77.3992 51.1036 77.3117 51.6363 77.0922 52.1193C76.8726 52.6023 76.5289 53.0185 76.096 53.3253L77.8856 52.3254C78.3201 52.0178 78.6649 51.6 78.8845 51.115C79.1042 50.6301 79.1907 50.0954 79.1354 49.5659C79.1204 48.446 78.8682 47.3419 78.3956 46.3265Z" fill="url(#paint20_linear)"/>
<path d="M74.8262 35.2385V44.6169L76.6159 43.5771L76.6259 34.1887L74.8262 35.2385Z" fill="#C7CECF"/>
<path d="M76.3154 32.8689C76.1471 32.4785 75.9176 32.1173 75.6355 31.7991C75.4166 31.548 75.1603 31.3322 74.8757 31.1592C74.6973 31.0288 74.4871 30.9489 74.2672 30.9277C74.0473 30.9066 73.8258 30.9452 73.6259 31.0393L71.8262 32.0391C72.0268 31.9481 72.2478 31.9112 72.4671 31.9323C72.6864 31.9533 72.8963 32.0315 73.076 32.1591C73.3651 32.3299 73.6222 32.5498 73.8358 32.809C74.1179 33.1271 74.3474 33.4883 74.5157 33.8788C74.7127 34.2913 74.8184 34.7414 74.8257 35.1985L76.6254 34.1487C76.6105 33.7054 76.505 33.2699 76.3154 32.8689Z" fill="url(#paint21_linear)"/>
<path d="M74.8265 44.6169V35.2286C74.7887 34.6268 74.6108 34.0423 74.3071 33.5215C74.0033 33.0007 73.582 32.5582 73.0768 32.2291C72.077 31.6692 71.3172 32.1291 71.3172 33.2289V42.6173C69.8474 42.5273 68.8076 43.6171 68.7676 45.5568C68.8416 47.0293 69.2545 48.4648 69.9742 49.7516C70.6939 51.0384 71.7009 52.1417 72.9169 52.9755L73.0468 53.0555C75.4164 54.4253 77.3461 53.3254 77.3561 50.6059C77.247 48.3734 76.3509 46.2517 74.8265 44.6169Z" fill="#B9C0C2"/>
<g style="mix-blend-mode:multiply" opacity="0.5">
<path d="M76.3875 48.6163C75.8179 47.009 74.7715 45.6138 73.388 44.617C72.845 44.2194 72.2072 43.9712 71.5383 43.8971C69.7286 43.7571 68.9688 45.6768 69.8386 48.1663C70.4099 49.7727 71.4559 51.1675 72.8381 52.1656C73.3811 52.5632 74.0189 52.8114 74.6878 52.8855C76.4975 52.9755 77.2573 51.0559 76.3875 48.6163ZM74.5878 52.4156C73.9806 52.3432 73.4022 52.116 72.9081 51.7557C71.6525 50.8474 70.7038 49.5778 70.1886 48.1164C69.3987 45.8667 70.0986 44.1171 71.7283 44.247C72.3348 44.3156 72.9133 44.5395 73.408 44.8969C74.6638 45.8092 75.6123 47.0821 76.1275 48.5463C76.8574 50.7959 76.1675 52.5356 74.5878 52.4156Z" fill="#B2B9BB"/>
</g>
<g style="mix-blend-mode:multiply" opacity="0.5">
<path d="M66.3289 75.0616C65.756 73.4561 64.7102 72.0618 63.3294 71.0623C62.7829 70.6694 62.1473 70.4186 61.4798 70.3324C59.6601 70.2024 58.9002 72.1221 59.77 74.6117C60.3413 76.218 61.3874 77.6128 62.7695 78.611C63.3125 79.0085 63.9503 79.2567 64.6192 79.3309C66.4289 79.4708 67.1987 77.5512 66.3289 75.0616ZM64.4692 78.9009C63.8647 78.837 63.2882 78.6127 62.7995 78.251C61.5384 77.3461 60.5857 76.0757 60.07 74.6117C59.2901 72.3521 59.98 70.6124 61.6197 70.7423C62.223 70.8113 62.7983 71.0352 63.2894 71.3922C64.5453 72.3045 65.4938 73.5774 66.009 75.0416C66.7988 77.2912 66.1089 79.0209 64.4692 78.9009Z" fill="#B2B9BB"/>
</g>
<g style="mix-blend-mode:multiply" opacity="0.5">
<path d="M65.2589 84.6099C64.6922 83.0011 63.6452 81.6051 62.2594 80.6106C61.7141 80.2155 61.0779 79.9644 60.4097 79.8807C58.6 79.7508 57.8301 81.6704 58.7 84.16C59.2757 85.764 60.3208 87.1575 61.6995 88.1593C62.2425 88.5568 62.8803 88.805 63.5491 88.8792C65.3688 89.0592 66.1287 87.1395 65.2589 84.6099ZM63.3992 88.4493C62.7946 88.3854 62.2182 88.161 61.7295 87.7994C60.4739 86.8911 59.5252 85.6215 59.0099 84.16C58.2201 81.9004 58.9199 80.1607 60.5497 80.2907C61.153 80.3596 61.7282 80.5835 62.2194 80.9406C63.4812 81.8491 64.4339 83.1229 64.9489 84.59C65.7288 86.8796 65.0389 88.6093 63.3992 88.4893V88.4493Z" fill="#B2B9BB"/>
</g>
<g style="mix-blend-mode:multiply" opacity="0.5">
<path d="M31.2352 64.1837C30.6622 62.5782 29.6165 61.1839 28.2357 60.1844C27.6892 59.7915 27.0535 59.5407 26.386 59.4545C24.5663 59.3245 23.8064 61.2442 24.6763 63.7337C25.2475 65.3401 26.2936 66.7349 27.6758 67.733C28.2188 68.1306 28.8566 68.3788 29.5254 68.4529C31.3351 68.6129 32.105 66.6732 31.2352 64.1837ZM29.3755 68.023C28.7709 67.9591 28.1944 67.7347 27.7058 67.3731C26.4447 66.4681 25.4919 65.1977 24.9762 63.7337C24.1964 61.4741 24.8862 59.7344 26.526 59.8644C27.1293 59.9334 27.7045 60.1572 28.1957 60.5143C29.4515 61.4266 30.4 62.6994 30.9152 64.1637C31.7051 66.4133 31.0152 68.143 29.3755 68.023Z" fill="#B2B9BB"/>
</g>
<g style="mix-blend-mode:multiply" opacity="0.5">
<path d="M33.6746 56.8248C33.1005 55.22 32.055 53.826 30.6751 52.8255C30.1321 52.428 29.4943 52.1798 28.8254 52.1056C27.0157 51.9756 26.2559 53.8853 27.1257 56.3849C27.6981 57.9906 28.7439 59.3851 30.1252 60.3842C30.6682 60.7817 31.306 61.0299 31.9749 61.1041C33.7746 61.234 34.5944 59.3144 33.6746 56.8248ZM31.8149 60.6742C31.2127 60.6009 30.6385 60.3774 30.1452 60.0243C28.8857 59.1134 27.9336 57.8405 27.4157 56.3749C26.6358 54.1253 27.3257 52.3756 28.9654 52.5056C29.5687 52.5745 30.1439 52.7984 30.6351 53.1555C31.8887 54.07 32.8366 55.3421 33.3547 56.8048C34.1445 59.0544 33.4446 60.7941 31.8149 60.6742Z" fill="#B2B9BB"/>
</g>
<path d="M102.493 51.086C102.417 50.9111 102.32 50.7465 102.203 50.5961L102.133 50.5261L89.9749 37.7783L78.7168 44.2772L90.9047 57.055L90.9647 57.125C91.085 57.2713 91.1858 57.4326 91.2646 57.6049C91.4832 58.1757 91.6179 58.7751 91.6645 59.3846L102.893 52.8957C102.857 52.275 102.722 51.6641 102.493 51.086Z" fill="#2E3030"/>
<path d="M80.1465 50.6157L91.6645 59.3642C91.6553 58.5283 91.3902 57.7152 90.9047 57.0346L78.7168 44.2568L80.1465 50.6157Z" fill="#212121"/>
<path style="mix-blend-mode:screen" d="M94.1436 36.618C101.622 38.8376 105.792 45.0466 103.462 50.4856C101.132 55.9247 93.1638 58.5343 85.6851 56.3146C78.2064 54.095 74.0371 47.8861 76.3667 42.447C78.6963 37.0079 86.6649 34.3884 94.1436 36.618Z" fill="url(#paint22_radial)"/>
<path d="M137.987 105.976L112.122 91.0585C110.802 90.2986 94.3646 100.127 94.3646 100.127C91.6951 102.856 120.77 117.764 120.77 117.764C122.09 118.524 139.317 106.746 137.987 105.976ZM120.79 116.704L95.2444 102.946L112.192 93.1581L137.117 107.536L120.79 116.704Z" fill="#888888"/>
<path d="M94.4746 101.977L119.71 116.544L137.407 106.336L112.172 91.7686L94.4746 101.977Z" fill="#212121"/>
<path d="M140.327 107.816C140.299 108.116 140.191 108.404 140.016 108.65C139.84 108.896 139.602 109.091 139.327 109.215L126.059 116.874C125.316 117.253 124.494 117.451 123.66 117.451C122.825 117.451 122.003 117.253 121.26 116.874L94.8846 101.667C94.61 101.547 94.3726 101.356 94.1968 101.113C94.021 100.87 93.9132 100.585 93.8848 100.287V102.077C93.9152 102.374 94.0238 102.659 94.1993 102.901C94.3749 103.143 94.6112 103.335 94.8846 103.456L121.26 118.664C122.003 119.043 122.825 119.241 123.66 119.241C124.494 119.241 125.316 119.043 126.059 118.664L139.327 110.995C139.603 110.872 139.841 110.677 140.017 110.431C140.193 110.185 140.3 109.896 140.327 109.595V107.816Z" fill="url(#paint23_linear)"/>
<path d="M139.338 106.436L112.973 91.2187C112.23 90.8395 111.407 90.6418 110.573 90.6418C109.739 90.6418 108.917 90.8395 108.174 91.2187L94.8959 98.8874C93.5762 99.6573 93.5662 100.887 94.8959 101.667L121.271 116.874C122.014 117.253 122.837 117.451 123.671 117.451C124.505 117.451 125.327 117.253 126.071 116.874L139.338 109.216C140.658 108.446 140.668 107.196 139.338 106.436ZM120.132 115.605L95.2159 101.227L112.163 91.4387L137.089 105.816L120.132 115.605Z" fill="#E9ECED"/>
<path d="M132.939 110.815L132.239 110.405C132.026 110.308 131.792 110.261 131.558 110.27C131.324 110.279 131.095 110.342 130.889 110.455L128.37 111.915C128.245 111.978 128.141 112.075 128.07 112.195C128.037 112.251 128.017 112.313 128.01 112.377C128.004 112.441 128.01 112.505 128.03 112.567C128.05 112.628 128.082 112.684 128.125 112.732C128.168 112.78 128.221 112.819 128.28 112.845L128.989 113.255C129.197 113.36 129.427 113.415 129.659 113.415C129.892 113.415 130.122 113.36 130.329 113.255L132.859 111.795C132.978 111.729 133.078 111.632 133.149 111.515C133.192 111.459 133.222 111.392 133.235 111.322C133.248 111.252 133.244 111.18 133.223 111.111C133.203 111.043 133.166 110.981 133.117 110.929C133.067 110.878 133.006 110.839 132.939 110.815Z" fill="#B2B9BB"/>
<path opacity="0.9" d="M132.939 111.075L132.239 110.665C132.026 110.567 131.792 110.521 131.558 110.53C131.324 110.538 131.094 110.602 130.889 110.715L128.369 112.175C128.247 112.241 128.144 112.338 128.07 112.455C128.065 112.491 128.065 112.528 128.07 112.565C128.118 112.684 128.206 112.783 128.319 112.845L129.029 113.255C129.237 113.36 129.466 113.415 129.699 113.415C129.932 113.415 130.162 113.36 130.369 113.255L132.899 111.795C133.018 111.729 133.118 111.632 133.189 111.515C133.193 111.478 133.193 111.442 133.189 111.405C133.172 111.336 133.141 111.271 133.098 111.214C133.055 111.157 133.001 111.11 132.939 111.075Z" fill="#E9ECED"/>
<path d="M103.844 94.478L100.584 96.3877C100.324 96.5376 100.294 96.7676 100.524 96.8976C100.659 96.9615 100.806 96.9947 100.954 96.9947C101.103 96.9947 101.25 96.9615 101.384 96.8976L104.694 94.9879C104.954 94.8379 104.984 94.608 104.764 94.488C104.622 94.4128 104.465 94.3726 104.305 94.3709C104.145 94.3692 103.987 94.4059 103.844 94.478Z" fill="#424144"/>
<path d="M102.105 106.756C102.071 106.671 102.028 106.591 101.975 106.516C101.917 106.432 101.842 106.36 101.755 106.306L99.585 105.086C99.544 105.063 99.4974 105.05 99.4501 105.05C99.4027 105.05 99.3561 105.063 99.3151 105.086L99.0352 105.246C99.0762 105.223 99.1227 105.21 99.1701 105.21C99.2175 105.21 99.2641 105.223 99.3051 105.246L101.435 106.476C101.524 106.523 101.6 106.592 101.655 106.676C101.708 106.751 101.751 106.831 101.785 106.916C101.793 106.989 101.793 107.063 101.785 107.136V107.256C101.789 107.305 101.78 107.354 101.759 107.398C101.738 107.442 101.705 107.479 101.665 107.506L101.945 107.346C101.985 107.319 102.018 107.282 102.039 107.238C102.06 107.194 102.069 107.145 102.065 107.096V106.976C102.087 106.905 102.1 106.831 102.105 106.756Z" fill="#E9ECED"/>
<path d="M101.474 106.476L99.3448 105.246C99.1348 105.116 98.9648 105.246 98.9648 105.466V105.606C98.971 105.74 99.0085 105.87 99.0746 105.987C99.1406 106.103 99.2332 106.202 99.3448 106.276L101.474 107.506C101.684 107.626 101.864 107.506 101.864 107.276V107.156C101.86 107.02 101.821 106.886 101.754 106.768C101.686 106.649 101.59 106.549 101.474 106.476Z" fill="#B8BFC1"/>
<path d="M97.8339 104.296C97.8083 104.21 97.7677 104.129 97.7139 104.056C97.6563 103.974 97.5812 103.906 97.494 103.856L95.3643 102.607C95.3233 102.583 95.2767 102.571 95.2294 102.571C95.182 102.571 95.1354 102.583 95.0944 102.607L94.8145 102.767C94.8555 102.743 94.902 102.731 94.9494 102.731C94.9968 102.731 95.0434 102.743 95.0844 102.767L97.214 103.996C97.3032 104.043 97.3789 104.112 97.434 104.196C97.4869 104.271 97.5306 104.351 97.564 104.436C97.5731 104.509 97.5731 104.583 97.564 104.656V104.776C97.5706 104.824 97.5639 104.873 97.5445 104.917C97.525 104.961 97.4937 104.999 97.454 105.026L97.7339 104.866C97.7736 104.839 97.805 104.801 97.8244 104.757C97.8438 104.713 97.8506 104.664 97.8439 104.616V104.496C97.8518 104.43 97.8484 104.362 97.8339 104.296Z" fill="#E9ECED"/>
<path d="M97.2147 104.017L95.085 102.787C94.8751 102.657 94.7051 102.787 94.7051 103.007V103.127C94.7112 103.261 94.7488 103.391 94.8148 103.507C94.8809 103.624 94.9734 103.723 95.085 103.797L97.2147 105.027C97.4246 105.147 97.5946 105.027 97.5946 104.797V104.677C97.5885 104.544 97.5509 104.415 97.4848 104.3C97.4187 104.186 97.3261 104.088 97.2147 104.017Z" fill="#B8BFC1"/>
<path d="M98.1654 98.9271C97.9956 99.0156 97.807 99.0619 97.6155 99.0619C97.424 99.0619 97.2354 99.0156 97.0656 98.9271C96.9985 98.9062 96.9398 98.8643 96.8981 98.8077C96.8565 98.751 96.834 98.6825 96.834 98.6122C96.834 98.5419 96.8565 98.4734 96.8981 98.4167C96.9398 98.3601 96.9985 98.3182 97.0656 98.2972C97.2336 98.2088 97.4206 98.1626 97.6105 98.1626C97.8004 98.1626 97.9874 98.2088 98.1554 98.2972C98.2229 98.3171 98.2823 98.3581 98.3248 98.414C98.3674 98.47 98.391 98.5382 98.3921 98.6085C98.3932 98.6788 98.3718 98.7477 98.331 98.805C98.2903 98.8624 98.2322 98.9051 98.1654 98.9271Z" fill="#212121"/>
<path opacity="0.1" d="M97.2548 98.8274C97.3598 98.8818 97.4764 98.9101 97.5947 98.9101C97.713 98.9101 97.8296 98.8818 97.9346 98.8274C98.1246 98.7074 98.1246 98.5275 97.9346 98.4275C97.8286 98.3706 97.7101 98.3408 97.5897 98.3408C97.4693 98.3408 97.3508 98.3706 97.2448 98.4275C97.0548 98.5475 97.0548 98.7274 97.2548 98.8274Z" fill="#D0D6D6"/>
<path opacity="0.1" d="M97.3946 98.7276C97.4524 98.7551 97.5156 98.7694 97.5796 98.7694C97.6436 98.7694 97.7068 98.7551 97.7646 98.7276C97.8745 98.6576 97.8645 98.5676 97.7646 98.5076C97.7057 98.4777 97.6406 98.4622 97.5746 98.4622C97.5086 98.4622 97.4435 98.4777 97.3846 98.5076C97.2846 98.6076 97.2946 98.6676 97.3946 98.7276Z" fill="#D0D6D6"/>
<g style="mix-blend-mode:screen" opacity="0.2">
<path d="M97.5254 98.6076C97.5474 98.6176 97.5713 98.6227 97.5954 98.6227C97.6195 98.6227 97.6434 98.6176 97.6654 98.6076C97.6654 98.6076 97.6654 98.5477 97.6654 98.5277C97.646 98.5152 97.6234 98.5085 97.6004 98.5085C97.5773 98.5085 97.5548 98.5152 97.5354 98.5277L97.5254 98.6076Z" fill="#D0D6D6"/>
</g>
<g style="mix-blend-mode:screen">
<g style="mix-blend-mode:screen">
<g style="mix-blend-mode:screen">
<path d="M128.999 96.2776H103.264V111.135H128.999V96.2776Z" fill="black"/>
</g>
<g style="mix-blend-mode:screen">
<path d="M116.132 110.475C122.604 110.475 127.85 107.445 127.85 103.706C127.85 99.968 122.604 96.9375 116.132 96.9375C109.66 96.9375 104.414 99.968 104.414 103.706C104.414 107.445 109.66 110.475 116.132 110.475Z" fill="black"/>
</g>
<g style="mix-blend-mode:screen">
<path d="M124.221 99.0372C128.7 101.617 128.7 105.806 124.221 108.386C119.742 110.965 112.503 110.965 108.034 108.386C103.564 105.806 103.564 101.617 108.034 99.0372C112.503 96.4577 119.752 96.4577 124.221 99.0372Z" fill="black"/>
</g>
<g style="mix-blend-mode:screen">
<path d="M116.131 110.155C122.305 110.155 127.309 107.268 127.309 103.706C127.309 100.145 122.305 97.2576 116.131 97.2576C109.958 97.2576 104.953 100.145 104.953 103.706C104.953 107.268 109.958 110.155 116.131 110.155Z" fill="black"/>
</g>
<g style="mix-blend-mode:screen">
<path d="M116.132 109.995C122.151 109.995 127.031 107.18 127.031 103.706C127.031 100.233 122.151 97.4175 116.132 97.4175C110.114 97.4175 105.234 100.233 105.234 103.706C105.234 107.18 110.114 109.995 116.132 109.995Z" fill="#000101"/>
</g>
<g style="mix-blend-mode:screen">
<path d="M116.132 109.846C122.002 109.846 126.76 107.097 126.76 103.707C126.76 100.316 122.002 97.5676 116.132 97.5676C110.262 97.5676 105.504 100.316 105.504 103.707C105.504 107.097 110.262 109.846 116.132 109.846Z" fill="#000202"/>
</g>
<g style="mix-blend-mode:screen">
<path d="M116.131 109.685C121.847 109.685 126.48 107.008 126.48 103.706C126.48 100.404 121.847 97.7273 116.131 97.7273C110.416 97.7273 105.783 100.404 105.783 103.706C105.783 107.008 110.416 109.685 116.131 109.685Z" fill="#000303"/>
</g>
<g style="mix-blend-mode:screen">
<path d="M116.131 109.525C121.697 109.525 126.209 106.92 126.209 103.706C126.209 100.493 121.697 97.8875 116.131 97.8875C110.565 97.8875 106.053 100.493 106.053 103.706C106.053 106.92 110.565 109.525 116.131 109.525Z" fill="#010504"/>
</g>
<g style="mix-blend-mode:screen">
<path d="M116.133 109.366C121.55 109.366 125.941 106.832 125.941 103.707C125.941 100.581 121.55 98.0476 116.133 98.0476C110.716 98.0476 106.324 100.581 106.324 103.707C106.324 106.832 110.716 109.366 116.133 109.366Z" fill="#010606"/>
</g>
<g style="mix-blend-mode:screen">
<path d="M116.132 109.205C121.394 109.205 125.66 106.743 125.66 103.706C125.66 100.669 121.394 98.2073 116.132 98.2073C110.87 98.2073 106.604 100.669 106.604 103.706C106.604 106.743 110.87 109.205 116.132 109.205Z" fill="#010808"/>
</g>
<g style="mix-blend-mode:screen">
<path d="M122.672 99.9272C126.291 102.017 126.291 105.396 122.672 107.486C120.644 108.516 118.402 109.053 116.128 109.053C113.854 109.053 111.612 108.516 109.584 107.486C105.975 105.396 105.975 102.017 109.584 99.9272C111.613 98.9017 113.855 98.3674 116.128 98.3674C118.401 98.3674 120.643 98.9017 122.672 99.9272Z" fill="#010B0A"/>
</g>
<g style="mix-blend-mode:screen">
<path d="M122.48 100.047C125.99 102.047 125.99 105.346 122.48 107.376C120.514 108.377 118.338 108.898 116.131 108.898C113.925 108.898 111.749 108.377 109.782 107.376C106.273 105.376 106.273 102.067 109.782 100.047C111.749 99.0462 113.925 98.5244 116.131 98.5244C118.338 98.5244 120.514 99.0462 122.48 100.047Z" fill="#010D0D"/>
</g>
<g style="mix-blend-mode:screen">
<path d="M122.291 100.157C125.691 102.157 125.691 105.296 122.291 107.266C120.382 108.232 118.272 108.736 116.132 108.736C113.992 108.736 111.883 108.232 109.973 107.266C106.574 105.266 106.574 102.117 109.973 100.157C111.881 99.1861 113.992 98.6799 116.132 98.6799C118.273 98.6799 120.383 99.1861 122.291 100.157Z" fill="#021010"/>
</g>
<g style="mix-blend-mode:screen">
<path d="M122.09 100.267C125.39 102.167 125.39 105.266 122.09 107.156C120.242 108.092 118.199 108.58 116.126 108.58C114.054 108.58 112.011 108.092 110.162 107.156C106.873 105.246 106.873 102.157 110.162 100.267C112.011 99.3305 114.054 98.8425 116.126 98.8425C118.199 98.8425 120.242 99.3305 122.09 100.267Z" fill="#021413"/>
</g>
<g style="mix-blend-mode:screen">
<path d="M116.133 108.416C120.639 108.416 124.292 106.307 124.292 103.706C124.292 101.106 120.639 98.9973 116.133 98.9973C111.627 98.9973 107.975 101.106 107.975 103.706C107.975 106.307 111.627 108.416 116.133 108.416Z" fill="#031716"/>
</g>
<g style="mix-blend-mode:screen">
<path d="M116.133 108.256C120.49 108.256 124.021 106.219 124.021 103.706C124.021 101.194 120.49 99.1572 116.133 99.1572C111.776 99.1572 108.244 101.194 108.244 103.706C108.244 106.219 111.776 108.256 116.133 108.256Z" fill="#031B1A"/>
</g>
<g style="mix-blend-mode:screen">
<path d="M116.13 108.096C120.332 108.096 123.739 106.131 123.739 103.706C123.739 101.282 120.332 99.3171 116.13 99.3171C111.928 99.3171 108.521 101.282 108.521 103.706C108.521 106.131 111.928 108.096 116.13 108.096Z" fill="#04201E"/>
</g>
<g style="mix-blend-mode:screen">
<path d="M121.321 100.717C124.181 102.366 124.181 105.046 121.321 106.716C119.713 107.529 117.935 107.953 116.132 107.953C114.329 107.953 112.552 107.529 110.943 106.716C108.074 105.056 108.074 102.376 110.943 100.717C112.551 99.8985 114.329 99.4719 116.132 99.4719C117.936 99.4719 119.714 99.8985 121.321 100.717Z" fill="#042423"/>
</g>
<g style="mix-blend-mode:screen">
<path d="M121.121 100.827C123.88 102.417 123.88 104.996 121.121 106.596C119.572 107.381 117.859 107.79 116.122 107.79C114.385 107.79 112.672 107.381 111.123 106.596C108.373 104.996 108.373 102.417 111.123 100.827C112.672 100.042 114.385 99.6323 116.122 99.6323C117.859 99.6323 119.572 100.042 121.121 100.827Z" fill="#052928"/>
</g>
<g style="mix-blend-mode:screen">
<path d="M116.133 107.626C119.882 107.626 122.921 105.871 122.921 103.707C122.921 101.542 119.882 99.7874 116.133 99.7874C112.383 99.7874 109.344 101.542 109.344 103.707C109.344 105.871 112.383 107.626 116.133 107.626Z" fill="#052F2D"/>
</g>
<g style="mix-blend-mode:screen">
<path d="M120.732 101.047C123.282 102.517 123.282 104.896 120.732 106.366C119.306 107.091 117.728 107.468 116.128 107.468C114.528 107.468 112.95 107.091 111.524 106.366C108.984 104.896 108.984 102.517 111.524 101.047C112.95 100.322 114.528 99.9448 116.128 99.9448C117.728 99.9448 119.306 100.322 120.732 101.047Z" fill="#063532"/>
</g>
<g style="mix-blend-mode:screen">
<path d="M120.582 101.167C123.021 102.567 123.021 104.846 120.582 106.256C119.216 106.951 117.705 107.314 116.173 107.314C114.64 107.314 113.129 106.951 111.763 106.256C109.324 104.846 109.324 102.567 111.763 101.167C113.129 100.472 114.64 100.109 116.173 100.109C117.705 100.109 119.216 100.472 120.582 101.167Z" fill="#063B38"/>
</g>
<g style="mix-blend-mode:screen">
<path d="M120.352 101.277C122.681 102.617 122.681 104.796 120.352 106.146C119.043 106.807 117.598 107.151 116.132 107.151C114.667 107.151 113.222 106.807 111.913 106.146C109.584 104.796 109.584 102.617 111.913 101.277C113.22 100.611 114.666 100.264 116.132 100.264C117.599 100.264 119.045 100.611 120.352 101.277Z" fill="#07413E"/>
</g>
<g style="mix-blend-mode:screen">
<path d="M120.151 101.387C122.38 102.667 122.38 104.746 120.151 106.036C118.903 106.667 117.525 106.996 116.127 106.996C114.728 106.996 113.35 106.667 112.102 106.036C109.883 104.746 109.883 102.667 112.102 101.387C113.35 100.756 114.728 100.427 116.127 100.427C117.525 100.427 118.903 100.756 120.151 101.387Z" fill="#084845"/>
</g>
<g style="mix-blend-mode:screen">
<path d="M116.13 106.836C119.123 106.836 121.549 105.435 121.549 103.706C121.549 101.978 119.123 100.577 116.13 100.577C113.137 100.577 110.711 101.978 110.711 103.706C110.711 105.435 113.137 106.836 116.13 106.836Z" fill="#094F4B"/>
</g>
<g style="mix-blend-mode:screen">
<path d="M119.773 101.607C121.772 102.767 121.772 104.606 119.773 105.806C118.646 106.382 117.399 106.682 116.133 106.682C114.868 106.682 113.621 106.382 112.494 105.806C110.494 104.646 110.494 102.807 112.494 101.607C113.621 101.031 114.868 100.731 116.133 100.731C117.399 100.731 118.646 101.031 119.773 101.607Z" fill="#0A5653"/>
</g>
<g style="mix-blend-mode:screen">
<path d="M119.583 101.717C121.482 102.817 121.482 104.596 119.583 105.716C118.517 106.259 117.339 106.542 116.143 106.542C114.948 106.542 113.769 106.259 112.704 105.716C110.794 104.616 110.794 102.837 112.704 101.717C113.771 101.18 114.949 100.9 116.143 100.9C117.338 100.9 118.516 101.18 119.583 101.717Z" fill="#0A5E5A"/>
</g>
<g style="mix-blend-mode:screen">
<path d="M116.132 106.356C118.672 106.356 120.732 105.17 120.732 103.706C120.732 102.243 118.672 101.057 116.132 101.057C113.592 101.057 111.533 102.243 111.533 103.706C111.533 105.17 113.592 106.356 116.132 106.356Z" fill="#0B6662"/>
</g>
<g style="mix-blend-mode:screen">
<path d="M119.181 101.947C120.871 102.947 120.871 104.497 119.181 105.476C118.234 105.955 117.188 106.204 116.127 106.204C115.066 106.204 114.02 105.955 113.072 105.476C111.393 104.477 111.393 102.917 113.072 101.947C114.018 101.464 115.065 101.213 116.127 101.213C117.189 101.213 118.235 101.464 119.181 101.947Z" fill="#0C6F6A"/>
</g>
<g style="mix-blend-mode:screen">
<path d="M116.131 106.046C118.368 106.046 120.181 104.999 120.181 103.707C120.181 102.414 118.368 101.367 116.131 101.367C113.895 101.367 112.082 102.414 112.082 103.707C112.082 104.999 113.895 106.046 116.131 106.046Z" fill="#0D7873"/>
</g>
<g style="mix-blend-mode:screen">
<path d="M116.131 105.886C118.212 105.886 119.9 104.91 119.9 103.706C119.9 102.502 118.212 101.527 116.131 101.527C114.049 101.527 112.361 102.502 112.361 103.706C112.361 104.91 114.049 105.886 116.131 105.886Z" fill="#0E817B"/>
</g>
<g style="mix-blend-mode:screen">
<path d="M118.582 102.277C119.952 103.067 119.952 104.346 118.582 105.136C117.815 105.525 116.968 105.728 116.108 105.728C115.248 105.728 114.4 105.525 113.633 105.136C112.273 104.346 112.273 103.067 113.633 102.277C114.401 101.892 115.249 101.692 116.108 101.692C116.967 101.692 117.814 101.892 118.582 102.277Z" fill="#0F8B85"/>
</g>
<g style="mix-blend-mode:screen">
<path d="M116.132 105.566C117.91 105.566 119.351 104.734 119.351 103.707C119.351 102.68 117.91 101.847 116.132 101.847C114.354 101.847 112.912 102.68 112.912 103.707C112.912 104.734 114.354 105.566 116.132 105.566Z" fill="#10958E"/>
</g>
<g style="mix-blend-mode:screen">
<path d="M116.133 105.406C117.762 105.406 119.083 104.645 119.083 103.706C119.083 102.768 117.762 102.007 116.133 102.007C114.504 102.007 113.184 102.768 113.184 103.706C113.184 104.645 114.504 105.406 116.133 105.406Z" fill="#129F98"/>
</g>
<g style="mix-blend-mode:screen">
<path d="M118.021 102.607C118.248 102.686 118.445 102.834 118.584 103.03C118.723 103.226 118.798 103.461 118.798 103.701C118.798 103.942 118.723 104.177 118.584 104.373C118.445 104.569 118.248 104.717 118.021 104.796C117.435 105.092 116.788 105.247 116.132 105.247C115.475 105.247 114.828 105.092 114.242 104.796C114.015 104.717 113.818 104.569 113.679 104.373C113.54 104.177 113.465 103.942 113.465 103.701C113.465 103.461 113.54 103.226 113.679 103.03C113.818 102.834 114.015 102.686 114.242 102.607C114.828 102.311 115.475 102.156 116.132 102.156C116.788 102.156 117.435 102.311 118.021 102.607Z" fill="#13AAA2"/>
</g>
<g style="mix-blend-mode:screen">
<path d="M116.132 105.096C117.457 105.096 118.532 104.474 118.532 103.706C118.532 102.939 117.457 102.317 116.132 102.317C114.807 102.317 113.732 102.939 113.732 103.706C113.732 104.474 114.807 105.096 116.132 105.096Z" fill="#14B5AD"/>
</g>
<g style="mix-blend-mode:screen">
<path d="M117.632 102.837C117.813 102.899 117.97 103.017 118.082 103.172C118.193 103.328 118.253 103.515 118.253 103.707C118.253 103.898 118.193 104.085 118.082 104.241C117.97 104.397 117.813 104.514 117.632 104.577C117.167 104.811 116.653 104.934 116.132 104.934C115.611 104.934 115.098 104.811 114.632 104.577C114.451 104.514 114.294 104.397 114.183 104.241C114.072 104.085 114.012 103.898 114.012 103.707C114.012 103.515 114.072 103.328 114.183 103.172C114.294 103.017 114.451 102.899 114.632 102.837C115.098 102.602 115.611 102.48 116.132 102.48C116.653 102.48 117.167 102.602 117.632 102.837Z" fill="#14B5AD"/>
</g>
<g style="mix-blend-mode:screen">
<path d="M116.131 104.886C117.258 104.886 118.171 104.358 118.171 103.706C118.171 103.055 117.258 102.527 116.131 102.527C115.005 102.527 114.092 103.055 114.092 103.706C114.092 104.358 115.005 104.886 116.131 104.886Z" fill="#19B8B0"/>
</g>
<g style="mix-blend-mode:screen">
<path d="M116.132 104.837C117.214 104.837 118.091 104.331 118.091 103.707C118.091 103.083 117.214 102.577 116.132 102.577C115.049 102.577 114.172 103.083 114.172 103.707C114.172 104.331 115.049 104.837 116.132 104.837Z" fill="#1FBBB3"/>
</g>
<g style="mix-blend-mode:screen">
<path d="M116.133 104.786C117.166 104.786 118.003 104.303 118.003 103.707C118.003 103.11 117.166 102.627 116.133 102.627C115.101 102.627 114.264 103.11 114.264 103.707C114.264 104.303 115.101 104.786 116.133 104.786Z" fill="#24BEB7"/>
</g>
<g style="mix-blend-mode:screen">
<path d="M117.39 102.977C118.09 103.387 118.09 104.037 117.39 104.437C116.999 104.638 116.566 104.744 116.126 104.744C115.686 104.744 115.252 104.638 114.861 104.437C114.708 104.385 114.575 104.287 114.481 104.156C114.387 104.025 114.336 103.868 114.336 103.707C114.336 103.545 114.387 103.388 114.481 103.257C114.575 103.126 114.708 103.028 114.861 102.977C115.253 102.78 115.687 102.677 116.126 102.677C116.565 102.677 116.998 102.78 117.39 102.977Z" fill="#2AC1BA"/>
</g>
<g style="mix-blend-mode:screen">
<path d="M116.131 104.686C117.07 104.686 117.831 104.248 117.831 103.707C117.831 103.166 117.07 102.727 116.131 102.727C115.193 102.727 114.432 103.166 114.432 103.707C114.432 104.248 115.193 104.686 116.131 104.686Z" fill="#2FC4BD"/>
</g>
<g style="mix-blend-mode:screen">
<path d="M117.271 103.047C117.408 103.095 117.526 103.184 117.609 103.302C117.693 103.42 117.738 103.562 117.738 103.706C117.738 103.851 117.693 103.992 117.609 104.111C117.526 104.229 117.408 104.318 117.271 104.366C116.919 104.549 116.528 104.644 116.131 104.644C115.735 104.644 115.344 104.549 114.992 104.366C114.352 104.006 114.352 103.416 114.992 103.047C115.345 102.869 115.736 102.776 116.131 102.776C116.527 102.776 116.918 102.869 117.271 103.047Z" fill="#34C7C0"/>
</g>
<g style="mix-blend-mode:screen">
<path d="M117.211 103.087C117.811 103.427 117.811 103.986 117.211 104.336C116.876 104.504 116.506 104.592 116.131 104.592C115.756 104.592 115.387 104.504 115.051 104.336C114.452 103.986 114.452 103.427 115.051 103.087C115.385 102.914 115.756 102.824 116.131 102.824C116.507 102.824 116.877 102.914 117.211 103.087Z" fill="#3ACBC3"/>
</g>
<g style="mix-blend-mode:screen">
<path d="M117.152 103.117C117.722 103.447 117.722 103.976 117.152 104.296C116.841 104.452 116.499 104.533 116.152 104.533C115.805 104.533 115.462 104.452 115.152 104.296C114.582 103.976 114.582 103.447 115.152 103.117C115.464 102.965 115.805 102.887 116.152 102.887C116.498 102.887 116.84 102.965 117.152 103.117Z" fill="#3FCEC7"/>
</g>
<g style="mix-blend-mode:screen">
<path d="M117.092 103.157C117.206 103.198 117.305 103.273 117.375 103.372C117.445 103.472 117.482 103.59 117.482 103.711C117.482 103.833 117.445 103.951 117.375 104.051C117.305 104.15 117.206 104.225 117.092 104.266C116.795 104.419 116.466 104.499 116.132 104.499C115.798 104.499 115.469 104.419 115.173 104.266C114.633 103.956 114.633 103.456 115.173 103.157C115.469 103.004 115.798 102.924 116.132 102.924C116.466 102.924 116.795 103.004 117.092 103.157Z" fill="#45D1CA"/>
</g>
<g style="mix-blend-mode:screen">
<path d="M117.032 103.187C117.532 103.476 117.532 103.946 117.032 104.186C116.753 104.327 116.445 104.4 116.132 104.4C115.82 104.4 115.511 104.327 115.232 104.186C114.732 103.906 114.732 103.437 115.232 103.187C115.511 103.046 115.82 102.973 116.132 102.973C116.445 102.973 116.753 103.046 117.032 103.187Z" fill="#4AD4CD"/>
</g>
<g style="mix-blend-mode:screen">
<path d="M116.131 104.397C116.788 104.397 117.321 104.088 117.321 103.707C117.321 103.326 116.788 103.017 116.131 103.017C115.474 103.017 114.941 103.326 114.941 103.707C114.941 104.088 115.474 104.397 116.131 104.397Z" fill="#50D7D0"/>
</g>
<g style="mix-blend-mode:screen">
<path d="M116.131 104.346C116.744 104.346 117.241 104.06 117.241 103.707C117.241 103.353 116.744 103.067 116.131 103.067C115.518 103.067 115.021 103.353 115.021 103.707C115.021 104.06 115.518 104.346 116.131 104.346Z" fill="#55DAD3"/>
</g>
<g style="mix-blend-mode:screen">
<path d="M116.851 103.296C116.937 103.327 117.011 103.383 117.064 103.457C117.116 103.531 117.144 103.62 117.144 103.711C117.144 103.802 117.116 103.891 117.064 103.965C117.011 104.04 116.937 104.096 116.851 104.126C116.628 104.239 116.381 104.299 116.131 104.299C115.881 104.299 115.634 104.239 115.411 104.126C115.325 104.096 115.251 104.04 115.198 103.965C115.145 103.891 115.117 103.802 115.117 103.711C115.117 103.62 115.145 103.531 115.198 103.457C115.251 103.383 115.325 103.327 115.411 103.296C115.634 103.183 115.881 103.124 116.131 103.124C116.381 103.124 116.628 103.183 116.851 103.296Z" fill="#5ADDD7"/>
</g>
<g style="mix-blend-mode:screen">
<path d="M116.131 104.246C116.65 104.246 117.071 104.004 117.071 103.706C117.071 103.408 116.65 103.166 116.131 103.166C115.612 103.166 115.191 103.408 115.191 103.706C115.191 104.004 115.612 104.246 116.131 104.246Z" fill="#60E0DA"/>
</g>
<g style="mix-blend-mode:screen">
<path d="M116.732 103.366C116.806 103.389 116.872 103.434 116.918 103.496C116.964 103.558 116.989 103.634 116.989 103.711C116.989 103.789 116.964 103.864 116.918 103.927C116.872 103.989 116.806 104.034 116.732 104.056C116.546 104.15 116.341 104.199 116.132 104.199C115.924 104.199 115.718 104.15 115.532 104.056C115.192 103.866 115.192 103.556 115.532 103.366C115.717 103.268 115.923 103.216 116.132 103.216C116.341 103.216 116.548 103.268 116.732 103.366Z" fill="#65E3DD"/>
</g>
<g style="mix-blend-mode:screen">
<path d="M116.672 103.396C116.972 103.566 116.972 103.846 116.672 104.026C116.504 104.11 116.319 104.154 116.132 104.154C115.945 104.154 115.76 104.11 115.592 104.026C115.292 103.846 115.292 103.566 115.592 103.396C115.76 103.313 115.945 103.269 116.132 103.269C116.319 103.269 116.504 103.313 116.672 103.396Z" fill="#6BE6E0"/>
</g>
<g style="mix-blend-mode:screen">
<path d="M116.131 104.097C116.507 104.097 116.811 103.922 116.811 103.707C116.811 103.491 116.507 103.317 116.131 103.317C115.756 103.317 115.451 103.491 115.451 103.707C115.451 103.922 115.756 104.097 116.131 104.097Z" fill="#70E9E4"/>
</g>
<g style="mix-blend-mode:screen">
<path d="M116.131 104.046C116.462 104.046 116.731 103.894 116.731 103.706C116.731 103.519 116.462 103.366 116.131 103.366C115.8 103.366 115.531 103.519 115.531 103.706C115.531 103.894 115.8 104.046 116.131 104.046Z" fill="#75ECE7"/>
</g>
<g style="mix-blend-mode:screen">
<path d="M116.131 103.996C116.413 103.996 116.641 103.866 116.641 103.706C116.641 103.546 116.413 103.416 116.131 103.416C115.849 103.416 115.621 103.546 115.621 103.706C115.621 103.866 115.849 103.996 116.131 103.996Z" fill="#7BF0EA"/>
</g>
<g style="mix-blend-mode:screen">
<path d="M116.432 103.536C116.602 103.626 116.602 103.786 116.432 103.886C116.339 103.931 116.236 103.954 116.132 103.954C116.029 103.954 115.926 103.931 115.833 103.886C115.663 103.786 115.663 103.626 115.833 103.536C115.925 103.487 116.028 103.462 116.132 103.462C116.237 103.462 116.34 103.487 116.432 103.536Z" fill="#80F3ED"/>
</g>
<g style="mix-blend-mode:screen">
<path d="M116.131 103.907C116.319 103.907 116.471 103.817 116.471 103.707C116.471 103.596 116.319 103.507 116.131 103.507C115.943 103.507 115.791 103.596 115.791 103.707C115.791 103.817 115.943 103.907 116.131 103.907Z" fill="#86F6F0"/>
</g>
<g style="mix-blend-mode:screen">
<path d="M116.312 103.607C116.412 103.667 116.412 103.757 116.312 103.817C116.255 103.841 116.194 103.854 116.132 103.854C116.07 103.854 116.009 103.841 115.952 103.817C115.852 103.757 115.852 103.667 115.952 103.607C116.007 103.577 116.069 103.561 116.132 103.561C116.195 103.561 116.257 103.577 116.312 103.607Z" fill="#8BF9F4"/>
</g>
<g style="mix-blend-mode:screen">
<path d="M116.251 103.606C116.321 103.606 116.321 103.706 116.251 103.746C116.215 103.766 116.173 103.777 116.131 103.777C116.09 103.777 116.048 103.766 116.011 103.746C115.941 103.746 115.941 103.646 116.011 103.606C116.048 103.586 116.09 103.576 116.131 103.576C116.173 103.576 116.215 103.586 116.251 103.606Z" fill="#91FCF7"/>
</g>
</g>
</g>
<defs>
<linearGradient id="paint0_linear" x1="145.196" y1="71.9622" x2="110.532" y2="71.9622" gradientUnits="userSpaceOnUse">
<stop stop-color="#E9ECED"/>
<stop offset="1" stop-color="#D6DCDD"/>
</linearGradient>
<linearGradient id="paint1_linear" x1="110.363" y1="79.1811" x2="146.327" y2="79.1811" gradientUnits="userSpaceOnUse">
<stop stop-color="#B2B9BB"/>
<stop offset="1" stop-color="#D6DCDD"/>
</linearGradient>
<linearGradient id="paint2_linear" x1="110.082" y1="39.3379" x2="144.766" y2="39.3379" gradientUnits="userSpaceOnUse">
<stop stop-color="#BFC5C7"/>
<stop offset="0.15" stop-color="#B6BDBF"/>
<stop offset="0.33" stop-color="#B2B9BB"/>
<stop offset="0.74" stop-color="#CBD2D3"/>
<stop offset="1" stop-color="#D6DCDD"/>
</linearGradient>
<radialGradient id="paint3_radial" cx="0" cy="0" r="1" gradientUnits="userSpaceOnUse" gradientTransform="translate(140.687 6.97345) scale(61.5994)">
<stop stop-color="#E9ECED"/>
<stop offset="1"/>
</radialGradient>
<linearGradient id="paint4_linear" x1="121.324" y1="4.42787" x2="135.691" y2="4.42787" gradientUnits="userSpaceOnUse">
<stop stop-color="#E9ECED"/>
<stop offset="1" stop-color="#FBFEFF"/>
</linearGradient>
<linearGradient id="paint5_linear" x1="6431.23" y1="2843.34" x2="6141.73" y2="2843.34" gradientUnits="userSpaceOnUse">
<stop stop-color="#E9ECED"/>
<stop offset="1" stop-color="#D6DCDD"/>
</linearGradient>
<radialGradient id="paint6_radial" cx="0" cy="0" r="1" gradientUnits="userSpaceOnUse" gradientTransform="translate(140.997 42.6374) scale(8.61851)">
<stop stop-color="#42F2FF"/>
<stop offset="0.04" stop-color="#39D1DD"/>
<stop offset="0.1" stop-color="#2DA6AF"/>
<stop offset="0.16" stop-color="#227E85"/>
<stop offset="0.23" stop-color="#195C61"/>
<stop offset="0.31" stop-color="#113F43"/>
<stop offset="0.39" stop-color="#0B282A"/>
<stop offset="0.48" stop-color="#061617"/>
<stop offset="0.59" stop-color="#03090A"/>
<stop offset="0.73" stop-color="#010202"/>
<stop offset="1"/>
</radialGradient>
<linearGradient id="paint7_linear" x1="82.1456" y1="65.3234" x2="96.973" y2="91.009" gradientUnits="userSpaceOnUse">
<stop offset="0.19" stop-color="#E6E9EA"/>
<stop offset="0.32" stop-color="#DDE1E2"/>
<stop offset="0.52" stop-color="#C7CECF"/>
<stop offset="0.7" stop-color="#CED4D5"/>
<stop offset="0.95" stop-color="#E1E5E6"/>
<stop offset="1" stop-color="#E6E9EA"/>
</linearGradient>
<linearGradient id="paint8_linear" x1="84.9045" y1="44.8766" x2="90.6335" y2="54.8049" gradientUnits="userSpaceOnUse">
<stop offset="0.51" stop-color="#E6E9EA"/>
<stop offset="0.78" stop-color="#D7DCDD"/>
<stop offset="1" stop-color="#C7CECF"/>
</linearGradient>
<linearGradient id="paint9_linear" x1="47.3606" y1="44.8367" x2="62.108" y2="70.3623" gradientUnits="userSpaceOnUse">
<stop offset="0.19" stop-color="#E6E9EA"/>
<stop offset="0.23" stop-color="#E3E6E7"/>
<stop offset="0.26" stop-color="#DADEDF"/>
<stop offset="0.29" stop-color="#C7CECF"/>
<stop offset="1" stop-color="#E6E9EA"/>
</linearGradient>
<linearGradient id="paint10_linear" x1="4272.64" y1="3797.74" x2="4362.35" y2="3966.49" gradientUnits="userSpaceOnUse">
<stop offset="0.51" stop-color="#E6E9EA"/>
<stop offset="0.78" stop-color="#D7DCDD"/>
<stop offset="1" stop-color="#C7CECF"/>
</linearGradient>
<linearGradient id="paint11_linear" x1="16600.2" y1="13968.1" x2="16811.4" y2="14411.1" gradientUnits="userSpaceOnUse">
<stop offset="0.51" stop-color="#E6E9EA"/>
<stop offset="0.78" stop-color="#D7DCDD"/>
<stop offset="1" stop-color="#C7CECF"/>
</linearGradient>
<linearGradient id="paint12_linear" x1="4724.65" y1="10415.3" x2="5273.45" y2="10895.9" gradientUnits="userSpaceOnUse">
<stop offset="0.19" stop-color="#E6E9EA"/>
<stop offset="0.32" stop-color="#DDE1E2"/>
<stop offset="0.52" stop-color="#C7CECF"/>
<stop offset="0.7" stop-color="#CED4D5"/>
<stop offset="0.95" stop-color="#E1E5E6"/>
<stop offset="1" stop-color="#E6E9EA"/>
</linearGradient>
<linearGradient id="paint13_linear" x1="4497.81" y1="3474.73" x2="4552.47" y2="3602.47" gradientUnits="userSpaceOnUse">
<stop offset="0.51" stop-color="#E6E9EA"/>
<stop offset="0.78" stop-color="#D7DCDD"/>
<stop offset="1" stop-color="#C7CECF"/>
</linearGradient>
<linearGradient id="paint14_linear" x1="3900.32" y1="10082.9" x2="4326.34" y2="10425.6" gradientUnits="userSpaceOnUse">
<stop offset="0.19" stop-color="#E6E9EA"/>
<stop offset="0.23" stop-color="#E3E6E7"/>
<stop offset="0.26" stop-color="#DADEDF"/>
<stop offset="0.29" stop-color="#C7CECF"/>
<stop offset="1" stop-color="#E6E9EA"/>
</linearGradient>
<linearGradient id="paint15_linear" x1="3933.53" y1="3982" x2="4023.21" y2="4150.81" gradientUnits="userSpaceOnUse">
<stop offset="0.51" stop-color="#E6E9EA"/>
<stop offset="0.78" stop-color="#D7DCDD"/>
<stop offset="1" stop-color="#C7CECF"/>
</linearGradient>
<linearGradient id="paint16_linear" x1="1037.01" y1="406.279" x2="1037.16" y2="406.878" gradientUnits="userSpaceOnUse">
<stop offset="0.51" stop-color="#E6E9EA"/>
<stop offset="0.78" stop-color="#D7DCDD"/>
<stop offset="1" stop-color="#C7CECF"/>
</linearGradient>
<linearGradient id="paint17_linear" x1="1439.08" y1="2766.19" x2="1483.66" y2="2800.52" gradientUnits="userSpaceOnUse">
<stop offset="0.51" stop-color="#E6E9EA"/>
<stop offset="0.78" stop-color="#D7DCDD"/>
<stop offset="1" stop-color="#C7CECF"/>
</linearGradient>
<linearGradient id="paint18_linear" x1="1572.79" y1="1164.71" x2="1581.36" y2="1181.27" gradientUnits="userSpaceOnUse">
<stop offset="0.51" stop-color="#E6E9EA"/>
<stop offset="0.78" stop-color="#D7DCDD"/>
<stop offset="1" stop-color="#C7CECF"/>
</linearGradient>
<linearGradient id="paint19_linear" x1="10243.2" y1="10038" x2="10680.8" y2="10748.3" gradientUnits="userSpaceOnUse">
<stop offset="0.51" stop-color="#E6E9EA"/>
<stop offset="0.78" stop-color="#D7DCDD"/>
<stop offset="1" stop-color="#C7CECF"/>
</linearGradient>
<linearGradient id="paint20_linear" x1="1367.37" y1="2832.23" x2="1411.78" y2="2866.45" gradientUnits="userSpaceOnUse">
<stop offset="0.51" stop-color="#E6E9EA"/>
<stop offset="0.78" stop-color="#D7DCDD"/>
<stop offset="1" stop-color="#C7CECF"/>
</linearGradient>
<linearGradient id="paint21_linear" x1="1500.83" y1="1200.86" x2="1509.35" y2="1217.41" gradientUnits="userSpaceOnUse">
<stop offset="0.51" stop-color="#E6E9EA"/>
<stop offset="0.78" stop-color="#D7DCDD"/>
<stop offset="1" stop-color="#C7CECF"/>
</linearGradient>
<radialGradient id="paint22_radial" cx="0" cy="0" r="1" gradientUnits="userSpaceOnUse" gradientTransform="translate(92.2252 46.1266) rotate(-31.7989) scale(12.3405 12.2157)">
<stop stop-color="#96FFFA"/>
<stop offset="0.1" stop-color="#14B5AD"/>
<stop offset="0.13" stop-color="#119B94"/>
<stop offset="0.18" stop-color="#0D7772"/>
<stop offset="0.23" stop-color="#0A5753"/>
<stop offset="0.28" stop-color="#073B39"/>
<stop offset="0.35" stop-color="#042524"/>
<stop offset="0.42" stop-color="#021414"/>
<stop offset="0.51" stop-color="#010908"/>
<stop offset="0.64" stop-color="#000202"/>
<stop offset="1"/>
</radialGradient>
<linearGradient id="paint23_linear" x1="120.5" y1="109.765" x2="127.439" y2="109.765" gradientUnits="userSpaceOnUse">
<stop offset="0.43" stop-color="#B2B9BB"/>
<stop offset="0.56" stop-color="#D6DCDD"/>
</linearGradient>
</defs>
</svg>
