<svg width="175" height="156" viewBox="0 0 175 156" fill="none" xmlns="http://www.w3.org/2000/svg">
<path opacity="0.2" d="M87.3132 155.92C135.535 155.92 174.626 133.353 174.626 105.514C174.626 77.6751 135.535 55.1074 87.3132 55.1074C39.0914 55.1074 0 77.6751 0 105.514C0 133.353 39.0914 155.92 87.3132 155.92Z" fill="#F55B28" fill-opacity="0.15"/>
<g style="mix-blend-mode:multiply" opacity="0.5">
<g style="mix-blend-mode:multiply" opacity="0.5">
<path d="M137.066 130.236L135.699 131.033L123.597 124.045L121.226 125.411L112.23 120.235C112.364 120.018 112.489 119.8 112.603 119.573C113.031 118.652 113.192 117.63 113.066 116.623C112.939 115.616 112.531 114.664 111.888 113.879L115.191 111.974L113.255 110.866L114.663 110.048L108.058 106.228L106.65 107.046L104.714 105.928L99.9725 108.702C92.5601 108.133 85.3962 110.773 83.4085 115.08C82.8977 116.138 82.7626 117.34 83.0254 118.486L78.4496 121.125L80.3752 122.161L78.3047 123.341L84.9096 127.161L86.9801 125.981L88.9057 127.089L92.0114 125.266C92.6939 125.441 93.385 125.579 94.0819 125.681C98.2598 126.349 102.54 125.925 106.505 124.449L114.652 129.149L112.385 130.453L124.487 137.441L123.173 138.197L126.61 140.184L140.513 132.223L137.066 130.236ZM127.21 135.93L123.214 133.621L129.011 130.277L133.007 132.575L127.21 135.93Z" fill="#005E7A"/>
</g>
<g style="mix-blend-mode:multiply" opacity="0.5">
<path d="M77.7253 119.697C81.5971 118.465 75.8618 114.427 73.8845 113.227C69.5986 110.597 66.1512 108.268 61.0784 108.609C53.3694 109.291 45.9479 111.866 39.4727 116.105C38.6806 116.592 38.0116 117.256 37.5178 118.044C37.024 118.832 36.7187 119.724 36.6258 120.649C36.5108 121.894 36.7269 123.147 37.2523 124.282C37.7778 125.416 38.5938 126.392 39.6177 127.109C42.1023 128.921 45.7256 131.25 46.6367 131.385C49.2959 131.751 52.003 131.528 54.5667 130.733C57.3412 129.697 49.7528 124.335 56.337 121.674C62.9212 119.014 76.3795 120.09 77.7253 119.697Z" fill="#005E7A"/>
</g>
</g>
<path d="M137.078 106.052L136.074 105.473L137.306 102.708L138.31 103.288L137.078 106.052Z" fill="#C6CBCC"/>
<path d="M137.08 105.949V106.052L137.09 107.481V108.247L136.645 108.506L136.635 106.208L137.08 105.949Z" fill="#2D2D2A"/>
<path d="M136.643 108.506L135.639 107.916L135.629 105.617L136.633 106.208L136.643 108.506Z" fill="#222220"/>
<path d="M136.633 106.207L135.629 105.617L136.074 105.369L137.078 105.949L136.633 106.207Z" fill="#444442"/>
<path d="M138.299 99.5922L137.295 99.0125L138.403 98.3706L139.407 98.9504L138.299 99.5922Z" fill="#858C8F"/>
<path d="M138.309 103.288L137.305 102.709L137.295 99.0127L138.299 99.5924L138.309 103.288Z" fill="#8D9699"/>
<path d="M139.407 98.9504L139.418 103.433L137.088 107.481L137.078 106.052L138.31 103.288L138.3 99.5923L139.407 98.9504Z" fill="#B6BDBE"/>
<path d="M131.641 111.384L130.637 110.804V110.038L131.641 110.618V111.384Z" fill="#222220"/>
<path d="M131.641 110.618L130.637 110.038V108.609L131.641 109.199V110.618Z" fill="#222220"/>
<path d="M132.075 108.837V111.135L131.641 111.384V110.618V109.199V109.096L132.075 108.837Z" fill="#2D2D2A"/>
<path d="M131.641 109.199L130.637 108.609V108.506L131.641 109.096V109.199Z" fill="#222220"/>
<path d="M131.641 109.096L130.637 108.506L131.072 108.258L132.076 108.837L131.641 109.096Z" fill="#444442"/>
<path d="M129.282 104.799L128.277 104.22L129.375 103.588L130.379 104.168L129.282 104.799Z" fill="#858C8F"/>
<path d="M129.292 109.282L128.288 108.692L128.277 104.22L129.282 104.8L129.292 109.282Z" fill="#8D9699"/>
<path d="M130.381 104.168L130.391 107.864L131.644 109.199V110.618L129.294 109.282L129.283 104.799L130.381 104.168Z" fill="#B6BDBE"/>
<path d="M129.374 105.742L126.672 104.179L126.662 101.404L129.374 102.978V105.742Z" fill="#A3A7A8"/>
<path d="M129.374 102.978L126.662 101.404L129.343 95.8757L132.045 97.4493L129.374 102.978Z" fill="#B2B9BB"/>
<path d="M132.046 97.4492L129.344 95.8757L134.354 92.9873L137.056 94.5609L132.046 97.4492Z" fill="#E9ECED"/>
<path d="M137.055 94.561L139.757 96.9835L139.767 99.7477L129.373 105.742V102.978L132.044 97.4494L137.055 94.561Z" fill="#D6DCDD"/>
<path d="M109.683 119.438C104.507 122.42 96.163 122.42 90.9868 119.438C88.3572 117.916 87.0424 115.929 87.0528 113.941V117.047C87.0528 119.024 88.3676 121.012 90.9971 122.534C96.1734 125.525 104.549 125.525 109.694 122.534C112.282 121.032 113.566 119.076 113.576 117.119V114.013C113.597 115.949 112.272 117.937 109.683 119.438Z" fill="url(#paint0_linear)"/>
<path d="M109.673 108.578C104.497 105.566 96.0699 105.566 90.8833 108.578C85.6967 111.591 85.7692 116.426 90.9869 119.438C96.2045 122.451 104.549 122.42 109.684 119.438C114.818 116.457 114.849 111.57 109.673 108.578Z" fill="#E9ECED"/>
<path d="M105.944 103.412C104.201 104.298 102.273 104.759 100.318 104.759C98.3622 104.759 96.4344 104.298 94.691 103.412C94.0385 103.121 93.475 102.662 93.0584 102.082C92.6418 101.502 92.387 100.821 92.3203 100.11V112.471C92.3203 113.661 93.1071 114.852 94.691 115.773C96.4331 116.657 98.359 117.118 100.312 117.118C102.266 117.118 104.192 116.657 105.934 115.773C106.577 115.484 107.132 115.03 107.543 114.458C107.954 113.885 108.206 113.214 108.274 112.512V100.151C108.208 100.852 107.958 101.523 107.549 102.096C107.139 102.668 106.586 103.123 105.944 103.412Z" fill="url(#paint1_linear)"/>
<path d="M105.935 96.8797C104.185 95.9855 102.248 95.5193 100.283 95.5193C98.3174 95.5193 96.3802 95.9855 94.6302 96.8797C91.5244 98.6707 91.5244 101.59 94.6923 103.412C96.4357 104.298 98.3635 104.759 100.319 104.759C102.274 104.759 104.202 104.298 105.946 103.412C109.072 101.59 109.051 98.6707 105.935 96.8797Z" fill="#E9ECED"/>
<path d="M93.6777 83.8564V99.8511C93.7317 100.442 93.9425 101.008 94.2883 101.49C94.6341 101.972 95.1023 102.354 95.6447 102.595C97.0897 103.323 98.6853 103.702 100.303 103.702C101.921 103.702 103.517 103.323 104.962 102.595C105.494 102.355 105.953 101.978 106.293 101.504C106.633 101.029 106.842 100.474 106.898 99.8925V83.9186C106.919 84.8917 93.6777 84.8917 93.6777 83.8564Z" fill="url(#paint2_linear)"/>
<path d="M139.322 69.6423C139.202 69.3726 139.049 69.1187 138.867 68.8866L138.774 68.783C138.599 68.5789 138.393 68.4041 138.163 68.2654C137.928 68.111 137.645 68.045 137.366 68.0791C137.29 68.0975 137.217 68.1253 137.148 68.1619L135.875 68.8969C136.041 68.8213 136.225 68.791 136.407 68.8092C136.588 68.8274 136.762 68.8934 136.91 69.0004C137.141 69.142 137.351 69.3163 137.531 69.5181L137.614 69.6216C137.797 69.8538 137.95 70.1076 138.07 70.3773C138.222 70.6456 138.307 70.9466 138.318 71.2548C138.329 71.5631 138.265 71.8693 138.132 72.1476C138.069 72.2298 137.992 72.2999 137.904 72.3547L139.177 71.6093C139.264 71.5611 139.338 71.4938 139.395 71.4126C139.529 71.1342 139.592 70.8271 139.58 70.5184C139.567 70.2097 139.479 69.9088 139.322 69.6423Z" fill="#363633"/>
<path d="M137.595 69.6215C137.4 69.3731 137.161 69.1626 136.891 69.0004C136.404 68.7208 135.928 68.7312 135.659 69.1039C135.497 69.529 135.459 69.9915 135.551 70.4371C135.643 70.8827 135.86 71.2929 136.176 71.6195C136.368 71.8735 136.607 72.088 136.88 72.251C137.367 72.5306 137.843 72.5202 138.112 72.1475C138.276 71.721 138.315 71.2564 138.223 70.8088C138.131 70.3611 137.913 69.9491 137.595 69.6215Z" fill="#222220"/>
<path d="M137.253 70.0563C137.144 69.9141 137.011 69.7916 136.86 69.694C136.757 69.6132 136.626 69.5747 136.496 69.5862C136.365 69.5978 136.244 69.6585 136.156 69.7561C136.062 69.9987 136.04 70.263 136.091 70.5179C136.143 70.7727 136.266 71.0077 136.446 71.1951C136.559 71.3348 136.696 71.4539 136.85 71.5471C137.129 71.7127 137.398 71.7024 137.543 71.485C137.639 71.2444 137.662 70.9813 137.61 70.7276C137.559 70.474 137.435 70.2408 137.253 70.0563Z" fill="#B2B9BB"/>
<path d="M132.656 56.3598C132.536 56.0901 132.383 55.8363 132.201 55.6041L132.108 55.5006C131.936 55.2935 131.729 55.1182 131.497 54.9829C131.262 54.8286 130.979 54.7625 130.7 54.7966C130.624 54.8133 130.55 54.8412 130.482 54.8794L129.209 55.6144C129.375 55.5388 129.559 55.5085 129.741 55.5267C129.922 55.5449 130.096 55.6109 130.244 55.718C130.475 55.8595 130.685 56.0339 130.865 56.2356C130.887 56.2744 130.915 56.3094 130.948 56.3391C131.131 56.5713 131.284 56.8251 131.404 57.0949C131.549 57.3674 131.625 57.6713 131.625 57.98C131.625 58.2887 131.549 58.5926 131.404 58.8651C131.344 58.9468 131.271 59.017 131.186 59.0722L132.46 58.3268C132.546 58.2786 132.62 58.2113 132.677 58.1301C132.819 57.8559 132.891 57.5511 132.888 57.2424C132.884 56.9337 132.805 56.6306 132.656 56.3598Z" fill="#363633"/>
<path d="M130.928 56.339C130.733 56.0906 130.494 55.8801 130.224 55.7179C129.737 55.4384 129.261 55.4487 128.992 55.8214C128.824 56.2457 128.784 56.7095 128.876 57.1562C128.968 57.6029 129.188 58.0132 129.509 58.3371C129.701 58.591 129.94 58.8055 130.213 58.9686C130.7 59.2481 131.176 59.2377 131.435 58.865C131.603 58.4399 131.644 57.9753 131.554 57.5271C131.464 57.0789 131.247 56.6664 130.928 56.339Z" fill="#222220"/>
<path d="M130.587 56.7739C130.477 56.6317 130.344 56.5092 130.194 56.4116C129.914 56.2563 129.634 56.2667 129.49 56.4737C129.393 56.7159 129.37 56.9808 129.421 57.2362C129.472 57.4917 129.597 57.7267 129.779 57.9127C129.893 58.0524 130.029 58.1715 130.183 58.2647C130.463 58.4303 130.732 58.4096 130.877 58.2026C130.972 57.962 130.995 57.6989 130.944 57.4452C130.893 57.1916 130.768 56.9584 130.587 56.7739Z" fill="#B2B9BB"/>
<path d="M111.353 49.5168C111.173 49.1166 110.944 48.7409 110.669 48.3987L110.545 48.2434C110.286 47.9392 109.978 47.6802 109.634 47.4773C109.276 47.2453 108.846 47.1497 108.423 47.2081C108.306 47.2302 108.194 47.2723 108.092 47.3324L106.684 48.1502C106.924 48.0432 107.188 48.0012 107.45 48.0285C107.711 48.0557 107.961 48.1513 108.174 48.3055C108.52 48.5107 108.831 48.7692 109.096 49.0716L109.22 49.2269C109.494 49.5635 109.72 49.9362 109.893 50.3346C110.12 50.7312 110.246 51.1773 110.26 51.6339C110.275 52.0905 110.177 52.5437 109.976 52.9538C109.888 53.0768 109.775 53.1793 109.644 53.254L111.063 52.4362C111.195 52.3584 111.308 52.2524 111.394 52.1256C111.596 51.7192 111.698 51.2701 111.691 50.8161C111.684 50.3622 111.568 49.9166 111.353 49.5168Z" fill="#363633"/>
<g style="mix-blend-mode:screen" opacity="0.2">
<path d="M110.668 48.3984L110.544 48.2431C110.285 47.9389 109.977 47.68 109.633 47.4771L108.215 48.3053C108.56 48.5104 108.871 48.769 109.136 49.0713L109.26 49.2266C109.535 49.5632 109.761 49.936 109.933 50.3343L111.352 49.5165C111.172 49.1164 110.943 48.7407 110.668 48.3984Z" fill="#444442"/>
</g>
<path d="M109.26 49.2267C108.979 48.8544 108.627 48.5413 108.225 48.3054C107.51 47.8809 106.796 47.9016 106.403 48.4503C105.833 49.2785 106.165 50.9453 107.169 52.1772C107.452 52.5502 107.803 52.8664 108.204 53.1089C108.939 53.5334 109.643 53.5023 110.026 52.9536C110.606 52.1358 110.254 50.469 109.26 49.2267Z" fill="#222220"/>
<path d="M108.847 49.7962C108.674 49.5715 108.46 49.3817 108.216 49.2371C107.771 48.9783 107.346 48.9887 107.098 49.3303C106.949 49.7147 106.914 50.1337 106.997 50.5374C107.079 50.9411 107.276 51.3126 107.563 51.6079C107.742 51.8337 107.96 52.0265 108.205 52.1773C108.651 52.4361 109.075 52.4154 109.313 52.0841C109.464 51.6983 109.5 51.2773 109.417 50.8715C109.335 50.4657 109.137 50.0924 108.847 49.7962Z" fill="#9BA3A6"/>
<path d="M108.421 52.0427C108.176 51.8919 107.959 51.6991 107.78 51.4733C107.49 51.179 107.293 50.8068 107.213 50.4023C107.132 49.9978 107.17 49.5785 107.324 49.1957C107.324 49.1957 107.386 49.1336 107.428 49.1025C107.291 49.1383 107.171 49.2184 107.086 49.3303C106.938 49.7147 106.903 50.1336 106.985 50.5373C107.068 50.941 107.264 51.3126 107.552 51.6078C107.731 51.8337 107.948 52.0264 108.194 52.1772C108.34 52.2967 108.523 52.3619 108.711 52.3619C108.9 52.3619 109.083 52.2967 109.229 52.1772C109.092 52.2109 108.95 52.2163 108.811 52.1932C108.672 52.17 108.54 52.1188 108.421 52.0427Z" fill="#B6BDBE"/>
<path d="M111.009 49.9726C110.72 49.3201 110.348 48.7076 109.901 48.1505L109.694 47.9021C109.264 47.4114 108.761 46.989 108.204 46.6494C107.634 46.2786 106.951 46.1243 106.278 46.2146C106.092 46.2453 105.914 46.3084 105.75 46.401L103.441 47.7468C103.835 47.5699 104.267 47.4997 104.696 47.5434C105.125 47.587 105.535 47.7428 105.885 47.9953C106.45 48.3285 106.957 48.7516 107.386 49.2479L107.603 49.4964C108.049 50.0535 108.422 50.6659 108.711 51.3184C109.425 52.9541 109.529 54.6416 108.835 55.594C108.698 55.8008 108.514 55.9713 108.297 56.0909L110.616 54.7451C110.827 54.6219 111.008 54.4519 111.144 54.2482C111.827 53.2958 111.723 51.6083 111.009 49.9726Z" fill="#363633"/>
<g style="mix-blend-mode:screen" opacity="0.7">
<path d="M109.9 48.1508L109.693 47.9023C109.262 47.4116 108.759 46.9892 108.202 46.6497L105.883 47.9955C106.448 48.3287 106.955 48.7518 107.384 49.2481L107.601 49.4966C108.048 50.0537 108.42 50.6661 108.709 51.3186L111.018 49.9728C110.725 49.3197 110.349 48.7073 109.9 48.1508Z" fill="#444442"/>
</g>
<path d="M107.592 49.4964C107.119 48.8962 106.54 48.3874 105.884 47.9953C104.703 47.312 103.554 47.3534 102.912 48.2438C101.96 49.5896 102.519 52.3123 104.144 54.3414C104.613 54.9631 105.192 55.4931 105.852 55.9046C107.043 56.5879 108.192 56.5465 108.824 55.6458C109.786 54.2689 109.217 51.5359 107.592 49.4964Z" fill="#222220"/>
<path d="M119.041 86.1963C118.878 84.837 118.529 83.5065 118.005 82.2416C115.935 77.0654 111.038 59.6628 110.966 55.2216C110.958 54.7979 110.917 54.3755 110.841 53.9586C110.691 53.1196 110.437 52.3025 110.086 51.5257C109.592 50.3964 108.929 49.3491 108.119 48.42C107.487 47.6864 106.742 47.0575 105.914 46.5565C105.376 46.2407 104.787 46.0201 104.174 45.9043C103.531 45.7785 102.863 45.8849 102.29 46.2045L99.7539 47.6746C100.324 47.3583 100.989 47.2556 101.628 47.3847C102.242 47.4941 102.832 47.7152 103.367 48.0369C104.201 48.5344 104.949 49.1637 105.582 49.9004C106.386 50.8342 107.049 51.8806 107.549 53.0061C107.89 53.7869 108.143 54.6027 108.305 55.439C108.375 55.8602 108.416 56.2856 108.429 56.7123C108.502 61.1536 113.44 78.5976 115.469 83.7221C115.987 84.9925 116.335 86.3256 116.504 87.6871C116.825 90.6582 115.935 92.8633 114.268 93.8986L116.805 92.4182C118.471 91.4347 119.362 89.1778 119.041 86.1963Z" fill="#D6DCDD"/>
<path d="M103.398 48.0471C104.674 48.8839 105.768 49.9685 106.617 51.2365C107.465 52.5045 108.05 53.93 108.337 55.4284C108.406 55.8496 108.448 56.275 108.461 56.7018C108.533 61.143 113.471 78.587 115.501 83.7115C116.018 84.9819 116.367 86.3151 116.536 87.6765C117.012 92.0867 114.828 94.9233 111.359 94.3125C110.436 94.1219 109.553 93.7716 108.751 93.2772C106.795 92.0056 105.116 90.3527 103.814 88.4174C102.512 86.4821 101.614 84.3041 101.173 82.0137C100.992 81.0483 100.939 80.0631 101.017 79.0839C101.38 74.9429 100.158 58.2547 98.688 53.5546C98.4603 52.8251 98.3213 52.0709 98.2739 51.3081C98.129 48.6682 99.5369 47.0429 101.638 47.3949C102.26 47.5018 102.857 47.723 103.398 48.0471Z" fill="#B2B9BB"/>
<g style="mix-blend-mode:screen" opacity="0.6">
<path d="M105.615 49.9106L108.152 48.4302C108.961 49.3593 109.625 50.4066 110.119 51.5359L107.582 53.006C107.081 51.8804 106.419 50.8341 105.615 49.9002V49.9106Z" fill="#E9ECED"/>
</g>
<path d="M117.202 88.8254C117.061 86.8196 116.559 84.8557 115.721 83.028C114.852 81.0739 113.697 79.2596 112.295 77.6447C111.304 76.4884 110.145 75.4869 108.857 74.6735L108.526 74.4768C107.403 73.7782 106.121 73.3757 104.799 73.307C102.959 73.2383 101.128 73.0201 99.3228 72.6548L89.1152 78.5454C90.7923 79.767 92.7697 79.5806 94.5193 79.5806C95.8472 79.488 97.1759 79.7488 98.3704 80.3364L98.7017 80.5331C99.9812 81.353 101.135 82.3538 102.128 83.5042C103.533 85.1213 104.688 86.9393 105.555 88.8979C106.392 90.7259 106.894 92.6897 107.035 94.6953C107.201 97.8011 106.207 99.944 104.53 100.907L114.686 94.9955C116.363 94.0742 117.357 91.9105 117.202 88.8254Z" fill="#363633"/>
<path d="M107.038 94.726C106.767 91.9062 105.885 89.1792 104.455 86.7339C103.025 84.2885 101.081 82.1832 98.7564 80.5638L98.4251 80.3671C97.298 79.668 96.0123 79.2655 94.6878 79.1972C92.8326 79.1397 90.986 78.918 89.1699 78.5347V84.1561C89.1705 87.4645 90.0413 90.7146 91.6948 93.5802C93.3484 96.4457 95.7266 98.826 98.5907 100.482C98.9707 100.699 99.3691 100.883 99.7813 101.031C104.046 102.718 107.318 100.151 107.038 94.726Z" fill="#222220"/>
<path d="M102.125 83.5352L112.291 77.6343C113.694 79.2524 114.849 81.0701 115.718 83.0279L105.552 88.9289C104.685 86.9703 103.53 85.1523 102.125 83.5352Z" fill="#444442"/>
<path d="M105.936 53.1299C105.897 53.0204 105.852 52.9132 105.801 52.809C105.483 52.0949 105.061 51.432 104.549 50.842C104.144 50.3815 103.665 49.9929 103.13 49.6929C102.649 49.3871 102.085 49.2354 101.515 49.2581C101.278 49.2747 101.048 49.3455 100.842 49.4651L94.5273 53.1506C94.7349 53.0339 94.9637 52.96 95.2003 52.9332C95.7698 52.9145 96.3321 53.0658 96.8153 53.368C97.3505 53.6924 97.8324 54.0974 98.2439 54.5689C98.7546 55.1584 99.1734 55.8215 99.4862 56.5359C99.4862 56.6498 99.5794 56.7533 99.6208 56.8672C100.366 58.772 100.118 60.4491 99.1135 61.0082L105.418 57.3227C106.422 56.7222 106.671 55.0348 105.936 53.1299Z" fill="url(#paint3_linear)"/>
<path d="M99.6224 56.8154C99.0904 55.3762 98.1059 54.1484 96.8168 53.3162C96.3337 53.0141 95.7714 52.8627 95.2018 52.8814C93.6593 53.0264 93.1313 54.9519 94.0113 57.2916C94.5391 58.722 95.5209 59.9401 96.8065 60.7597C97.2881 61.0655 97.8514 61.2171 98.4215 61.1945C99.9743 61.0806 100.513 59.1033 99.6224 56.8154Z" fill="#838B8E"/>
<g style="mix-blend-mode:screen" opacity="0.3">
<path d="M98.2441 54.5174L104.549 50.8423C105.065 51.4296 105.488 52.0931 105.801 52.8093L99.4864 56.4844C99.1736 55.77 98.7548 55.1069 98.2441 54.5174Z" fill="#B4BBBC"/>
</g>
<path d="M136.465 71.2571L138.504 70.0769L136.475 71.2571H136.465Z" fill="#FBFABB"/>
<path d="M138.505 70.077L132.749 57.3123C132.489 56.7018 132.14 56.1331 131.714 55.6249C131.375 55.2218 130.977 54.8727 130.533 54.5896C130.141 54.3361 129.674 54.223 129.208 54.2687C129.045 54.2905 128.886 54.3432 128.742 54.424L126.672 55.6145C126.818 55.5274 126.98 55.471 127.148 55.4489C127.61 55.4056 128.073 55.5186 128.463 55.7698C128.913 56.0477 129.316 56.3974 129.653 56.8051C130.08 57.3096 130.429 57.8748 130.689 58.4822L136.445 71.2468C136.942 72.3856 136.838 73.4519 136.238 73.8039L138.308 72.6237C138.909 72.2924 139.012 71.2261 138.505 70.077Z" fill="#D6DCDD"/>
<path d="M128.452 55.8008C129.458 56.4533 130.247 57.3902 130.719 58.4924L136.476 71.2571C137.107 72.7168 136.776 74.0316 135.668 73.9488C135.415 73.9193 135.171 73.8345 134.954 73.7003C134.449 73.3953 134.027 72.9726 133.722 72.4683C133.554 72.1989 133.418 71.9105 133.318 71.6091C132.761 69.8702 132.069 68.1776 131.247 66.5467L130.606 65.3562C129.841 63.7893 128.842 62.3477 127.645 61.0806C127.116 60.552 126.687 59.9309 126.382 59.2482C125.533 57.364 125.864 55.6144 127.138 55.4384C127.604 55.4073 128.068 55.535 128.452 55.8008Z" fill="#B2B9BB"/>
<g style="mix-blend-mode:screen" opacity="0.6">
<path d="M129.645 56.8155L131.715 55.625C132.142 56.1332 132.491 56.7019 132.75 57.3125L130.68 58.4926C130.42 57.8853 130.071 57.32 129.645 56.8155Z" fill="#E9ECED"/>
</g>
<path d="M101.416 58.2339C100.98 58.5153 100.616 58.8934 100.35 59.3386C100.084 59.7839 99.9245 60.2844 99.8835 60.8013C99.85 61.2701 99.7106 61.7252 99.4756 62.1322C99.2407 62.5393 98.9165 62.8877 98.5273 63.1513L102.596 60.7909C102.978 60.5306 103.297 60.1882 103.53 59.7888C103.763 59.3894 103.903 58.943 103.942 58.4823C103.982 57.9627 104.143 57.4596 104.41 57.0123C104.678 56.5651 105.046 56.1859 105.484 55.9045L101.416 58.2339Z" fill="#363633"/>
<path d="M130.847 57.9751C130.548 57.3056 130.15 56.6845 129.667 56.1324C129.286 55.6864 128.835 55.3053 128.331 55.004C128.059 54.848 127.766 54.7296 127.462 54.652H127.327H127.213L98.1332 49.1755L97.864 49.103C97.2487 48.9687 96.6055 49.0605 96.0523 49.3618L91.9941 51.7636C92.5465 51.4594 93.192 51.3708 93.8058 51.5152L94.075 51.5773L123.145 56.9399H123.269H123.404C123.709 57.0204 124.001 57.1423 124.273 57.3022C124.777 57.6025 125.229 57.9837 125.609 58.4306C126.089 58.9791 126.483 59.5969 126.779 60.263C127.052 60.8807 127.227 61.5375 127.296 62.2093C127.389 62.6411 127.355 63.0904 127.199 63.5035C127.043 63.9166 126.771 64.2759 126.416 64.5386L130.485 62.1783C130.84 61.9156 131.112 61.5562 131.268 61.1431C131.424 60.73 131.457 60.2807 131.365 59.8489C131.288 59.2018 131.113 58.57 130.847 57.9751Z" fill="#363633"/>
<path d="M124.273 57.3849C125.109 57.9284 125.813 58.6505 126.336 59.499C126.859 60.3475 127.187 61.3014 127.296 62.292C127.431 63.7413 126.799 64.7662 125.743 64.818C125.209 64.8416 124.68 64.6967 124.232 64.4039C123.808 64.1554 123.435 63.9277 123.062 63.7206C120.087 61.8661 116.827 60.5126 113.414 59.7142L103.724 57.9025C103.276 57.7932 102.81 57.7847 102.359 57.8778C101.908 57.9708 101.483 58.163 101.115 58.4405C100.748 58.718 100.446 59.0737 100.233 59.482C100.02 59.8903 99.9004 60.3409 99.8829 60.8012C99.6137 62.4576 98.6509 63.4722 97.2637 63.41C96.5595 63.3572 95.8781 63.1371 95.276 62.7682C93.0757 61.3274 91.5006 59.109 90.8658 56.5567C90.0583 53.2749 91.3627 50.987 93.8059 51.4425L94.0751 51.5046L123.145 56.9397H123.269H123.404C123.713 57.0462 124.006 57.1961 124.273 57.3849Z" fill="#222220"/>
<path d="M125.607 58.5133L129.666 56.1426C130.148 56.6915 130.545 57.3091 130.846 57.975L126.777 60.3353C126.482 59.6692 126.087 59.0515 125.607 58.503V58.5133Z" fill="#444442"/>
<path d="M135.222 95.4308C134.594 95.7524 133.899 95.9201 133.193 95.9201C132.487 95.9201 131.792 95.7524 131.164 95.4308C130.927 95.3277 130.722 95.1628 130.571 94.9533C130.42 94.7439 130.328 94.4975 130.305 94.2402V95.1409C130.329 95.3979 130.421 95.6437 130.572 95.853C130.723 96.0623 130.928 96.2275 131.164 96.3314C131.79 96.653 132.484 96.8207 133.188 96.8207C133.892 96.8207 134.586 96.653 135.212 96.3314C135.445 96.2278 135.647 96.0638 135.796 95.8564C135.945 95.649 136.037 95.4056 136.061 95.1513V94.2609C136.038 94.513 135.948 94.7544 135.801 94.9601C135.653 95.1658 135.454 95.3283 135.222 95.4308Z" fill="url(#paint4_linear)"/>
<path d="M135.212 93.0805C134.582 92.7588 133.885 92.5911 133.178 92.5911C132.47 92.5911 131.773 92.7588 131.143 93.0805C130.025 93.7224 130.025 94.7783 131.143 95.4305C131.771 95.7521 132.467 95.9199 133.172 95.9199C133.878 95.9199 134.573 95.7521 135.201 95.4305C135.447 95.3476 135.66 95.1901 135.811 94.9801C135.963 94.7701 136.044 94.5181 136.046 94.2592C136.047 94.0003 135.967 93.7476 135.818 93.5363C135.668 93.325 135.456 93.1656 135.212 93.0805Z" fill="#E9ECED"/>
<path d="M131.195 82.1687V94.1052C131.216 94.2805 131.281 94.4477 131.384 94.5908C131.487 94.7339 131.625 94.8483 131.785 94.923C132.213 95.1428 132.687 95.2574 133.167 95.2574C133.648 95.2574 134.122 95.1428 134.55 94.923C134.704 94.8465 134.837 94.7326 134.937 94.5916C135.036 94.4505 135.099 94.2869 135.119 94.1155V82.179C135.14 82.4689 131.195 82.4689 131.195 82.1687Z" fill="url(#paint5_linear)"/>
<path d="M135.222 87.0241C134.593 87.3409 133.898 87.5059 133.193 87.5059C132.488 87.5059 131.793 87.3409 131.164 87.0241C130.928 86.9175 130.724 86.7503 130.573 86.5394C130.422 86.3285 130.329 86.0814 130.305 85.8232V86.7239C130.327 86.9815 130.418 87.2283 130.57 87.438C130.721 87.6477 130.926 87.8123 131.164 87.9144C131.79 88.236 132.484 88.4037 133.188 88.4037C133.892 88.4037 134.586 88.236 135.212 87.9144C135.445 87.8135 135.647 87.6516 135.796 87.4458C135.946 87.24 136.037 86.9978 136.061 86.7446V85.8439C136.037 86.0969 135.947 86.3391 135.799 86.5462C135.652 86.7534 135.453 86.9182 135.222 87.0241Z" fill="url(#paint6_linear)"/>
<path d="M135.212 84.6638C134.582 84.3421 133.885 84.1743 133.178 84.1743C132.47 84.1743 131.773 84.3421 131.143 84.6638C130.025 85.316 130.025 86.3616 131.143 87.0241C131.773 87.3409 132.468 87.5059 133.172 87.5059C133.877 87.5059 134.572 87.3409 135.201 87.0241C135.445 86.9385 135.657 86.7795 135.807 86.5688C135.957 86.3581 136.038 86.1062 136.039 85.8476C136.041 85.589 135.962 85.3363 135.813 85.1244C135.665 84.9124 135.455 84.7515 135.212 84.6638Z" fill="#E9ECED"/>
<path d="M135.544 86.0512C134.816 86.4221 134.011 86.6154 133.194 86.6154C132.377 86.6154 131.572 86.4221 130.844 86.0512C130.562 85.9377 130.317 85.7495 130.135 85.5069C129.952 85.2642 129.839 84.9763 129.809 84.6743V85.7096C129.841 86.0124 129.954 86.301 130.136 86.545C130.318 86.7891 130.563 86.9797 130.844 87.0968C131.57 87.466 132.374 87.6584 133.189 87.6584C134.004 87.6584 134.807 87.466 135.534 87.0968C135.802 86.9742 136.034 86.7837 136.207 86.544C136.379 86.3044 136.486 86.0239 136.517 85.7303V84.695C136.489 84.987 136.385 85.2664 136.214 85.5047C136.043 85.7429 135.812 85.9315 135.544 86.0512Z" fill="url(#paint7_linear)"/>
<path d="M135.533 83.3283C134.803 82.954 133.994 82.7588 133.173 82.7588C132.352 82.7588 131.543 82.954 130.812 83.3283C129.529 84.0737 129.529 85.2953 130.812 86.051C131.54 86.4219 132.346 86.6152 133.162 86.6152C133.979 86.6152 134.785 86.4219 135.512 86.051C136.848 85.2953 136.838 84.0737 135.533 83.3283Z" fill="#E9ECED"/>
<path d="M130.42 76.7751V84.5706C130.438 84.8131 130.519 85.0467 130.656 85.2483C130.792 85.4498 130.978 85.6123 131.196 85.7197C131.801 86.0262 132.47 86.186 133.148 86.186C133.826 86.186 134.494 86.0262 135.099 85.7197C135.321 85.6191 135.512 85.4618 135.654 85.2637C135.796 85.0656 135.883 84.8337 135.907 84.5913V76.7958C135.948 77.1996 130.42 77.1892 130.42 76.7751Z" fill="url(#paint8_linear)"/>
<path d="M137.11 71.7648C137.094 71.9189 137.038 72.0661 136.947 72.1916C136.856 72.317 136.733 72.4162 136.592 72.4792L134.387 73.7629C134 73.9593 133.573 74.0616 133.139 74.0616C132.706 74.0616 132.278 73.9593 131.892 73.7629L129.676 72.4688C129.533 72.4046 129.408 72.304 129.316 72.1768C129.223 72.0497 129.165 71.9005 129.148 71.7441V82.9145C129.158 83.0717 129.212 83.2231 129.303 83.3512C129.395 83.4794 129.52 83.5792 129.666 83.6392L131.902 84.8918C132.287 85.0882 132.713 85.1905 133.145 85.1905C133.576 85.1905 134.002 85.0882 134.387 84.8918L136.602 83.6081C136.742 83.5437 136.862 83.4439 136.951 83.3186C137.04 83.1933 137.095 83.0468 137.11 82.8938V71.7648Z" fill="url(#paint9_linear)"/>
<path d="M136.582 71.0298C137.275 71.4336 137.286 72.0651 136.582 72.4792L134.377 73.7629C133.99 73.9593 133.563 74.0617 133.129 74.0617C132.695 74.0617 132.268 73.9593 131.882 73.7629L129.676 72.4688C128.983 72.0651 128.972 71.4336 129.676 71.0195L131.882 69.7461C132.265 69.5473 132.691 69.4436 133.124 69.4436C133.556 69.4436 133.982 69.5473 134.366 69.7461L136.582 71.0298Z" fill="#E9ECED"/>
<path d="M129.656 75.2019L131.685 74.0217L129.656 75.2019Z" fill="#FBFABB"/>
<path d="M131.683 74.0216L125.927 61.2466C125.667 60.6392 125.318 60.0739 124.891 59.5695C124.558 59.1611 124.159 58.8112 123.711 58.5342C123.32 58.2771 122.852 58.1603 122.386 58.2029C122.222 58.2282 122.064 58.2844 121.92 58.3686L119.85 59.5488C119.997 59.4662 120.159 59.4101 120.326 59.3831C120.789 59.3378 121.254 59.4549 121.641 59.7144C122.092 59.9915 122.494 60.3413 122.831 60.7497C123.258 61.2541 123.607 61.8194 123.866 62.4268L129.622 75.2018C130.119 76.3509 130.026 77.4069 129.415 77.7692L131.486 76.5787C132.086 76.2267 132.231 75.1604 131.683 74.0216Z" fill="#D6DCDD"/>
<path d="M121.632 59.7455C122.656 60.386 123.464 61.3204 123.951 62.4268L129.707 75.2018C130.348 76.6512 130.007 77.9763 128.899 77.8831C128.65 77.8542 128.41 77.773 128.195 77.645C127.68 77.3318 127.253 76.8938 126.953 76.3717C126.789 76.1001 126.653 75.8121 126.549 75.5124C125.995 73.7722 125.303 72.0793 124.478 70.45L123.837 69.2491C123.055 67.7279 122.05 66.3322 120.855 65.1081C120.327 64.5783 119.899 63.9576 119.592 63.2757C118.754 61.3916 119.074 59.642 120.348 59.4556C120.796 59.4053 121.248 59.5075 121.632 59.7455Z" fill="#B2B9BB"/>
<g style="mix-blend-mode:screen" opacity="0.6">
<path d="M122.82 60.7495L124.891 59.5693C125.317 60.0738 125.666 60.6391 125.926 61.2464L123.856 62.4266C123.596 61.8193 123.247 61.254 122.82 60.7495Z" fill="#E9ECED"/>
</g>
<path d="M97.3862 58.0684L97.2517 57.7475C96.9339 57.0334 96.5117 56.3705 95.999 55.7805C95.5943 55.3061 95.1153 54.9006 94.5807 54.5796C94.0991 54.2738 93.5357 54.1222 92.9657 54.1448C92.7253 54.1616 92.4918 54.2324 92.2824 54.3518L87.8516 56.94C88.0578 56.822 88.2876 56.7513 88.5245 56.7329C89.0939 56.7154 89.6558 56.8667 90.1395 57.1677C90.6756 57.4866 91.1549 57.8924 91.5578 58.3686C92.0752 58.955 92.4979 59.6187 92.8104 60.3356C92.8104 60.4391 92.9036 60.553 92.945 60.6565C93.68 62.5614 93.4316 64.2488 92.4274 64.7975L96.8686 62.1991C97.8728 61.6607 98.1213 59.9733 97.3862 58.0684Z" fill="url(#paint10_linear)"/>
<path d="M92.9458 60.6669C92.4112 59.2319 91.4271 58.0082 90.1403 57.1781C89.6566 56.8771 89.0947 56.7258 88.5253 56.7433C86.9828 56.8882 86.4548 58.8138 87.3244 61.1431C87.8622 62.5736 88.8458 63.7931 90.1299 64.6216C90.6099 64.9224 91.1684 65.0737 91.7346 65.0564C93.2978 64.9322 93.8361 62.9548 92.9458 60.6669Z" fill="#838B8E"/>
<g style="mix-blend-mode:screen" opacity="0.3">
<path d="M91.5586 58.3788L95.9998 55.7803C96.5125 56.3703 96.9347 57.0332 97.2525 57.7473L92.8112 60.3457C92.4987 59.6288 92.0761 58.9651 91.5586 58.3788Z" fill="#B4BBBC"/>
</g>
<path d="M105.554 93.981C105.39 92.622 105.042 91.2916 104.519 90.0264C102.449 84.8501 97.5518 67.4475 97.4794 63.0166C97.4724 62.5895 97.4309 62.1637 97.3551 61.7433C97.203 60.9046 96.9492 60.0876 96.5994 59.3104C96.1089 58.1793 95.4453 57.1315 94.6324 56.2047C94.0058 55.4655 93.2606 54.8358 92.4273 54.3412C91.8923 54.0195 91.3028 53.7984 90.6881 53.689C90.0455 53.5601 89.3781 53.6627 88.804 53.9789L86.2676 55.4489C86.8379 55.1327 87.5022 55.0299 88.1414 55.1591C88.7561 55.2685 89.3455 55.4895 89.8806 55.8113C90.7126 56.3119 91.4603 56.9408 92.0961 57.6747C92.9031 58.606 93.5661 59.6528 94.063 60.7805C94.4067 61.56 94.6603 62.3763 94.8188 63.2133C94.9005 63.6333 94.9489 64.0591 94.9637 64.4867C95.0362 68.9279 99.9847 86.3719 102.003 91.4964C102.521 92.7668 102.869 94.1 103.039 95.4614C103.36 98.4326 102.469 100.689 100.803 101.673L103.349 100.193C104.985 99.2194 105.875 96.9625 105.554 93.981Z" fill="#D6DCDD"/>
<path d="M89.9103 55.8317C91.1859 56.6686 92.2803 57.7532 93.1286 59.0212C93.9769 60.2892 94.5618 61.7147 94.8485 63.2131C94.9198 63.6339 94.9578 64.0597 94.9623 64.4865C95.0348 68.9277 99.9833 86.3717 102.002 91.4962C102.52 92.7666 102.868 94.0998 103.037 95.4612C103.514 99.8817 101.329 102.708 97.8611 102.097C96.9378 101.907 96.0549 101.556 95.2522 101.062C93.3045 99.7862 91.6335 98.1315 90.3387 96.1964C89.0439 94.2613 88.1518 92.0854 87.7156 89.7984C87.5346 88.8329 87.4824 87.8478 87.5603 86.8686C87.9226 82.7276 86.701 66.0497 85.231 61.3393C85.0033 60.6098 84.8643 59.8555 84.8169 59.0928C84.6719 56.4529 86.0799 54.8275 88.1814 55.1795C88.7926 55.2902 89.3784 55.5112 89.9103 55.8317Z" fill="#B2B9BB"/>
<g style="mix-blend-mode:screen" opacity="0.6">
<path d="M92.125 57.6956L94.6614 56.2256C95.4743 57.1525 96.1379 58.2003 96.6283 59.3313L94.092 60.8014C93.5951 59.6737 92.9321 58.6269 92.125 57.6956Z" fill="#E9ECED"/>
</g>
<path d="M129.126 75.5745C129.011 75.3022 128.858 75.0477 128.671 74.8188C128.649 74.7799 128.621 74.745 128.588 74.7153C128.413 74.5078 128.203 74.3326 127.967 74.1976C127.736 74.0431 127.456 73.977 127.18 74.0113C127.104 74.0263 127.03 74.0543 126.963 74.0941L125.689 74.8291C125.856 74.7535 126.039 74.7232 126.221 74.7414C126.403 74.7596 126.577 74.8256 126.725 74.9327C126.957 75.068 127.164 75.2432 127.336 75.4503L127.429 75.5538C127.611 75.786 127.764 76.0398 127.884 76.3096C128.029 76.5802 128.105 76.8825 128.105 77.1895C128.105 77.4965 128.029 77.7988 127.884 78.0695C127.831 78.1561 127.756 78.2274 127.667 78.2765L128.93 77.5415C129.02 77.4899 129.098 77.4192 129.158 77.3344C129.295 77.0605 129.364 76.7572 129.359 76.4507C129.353 76.1441 129.274 75.8435 129.126 75.5745Z" fill="#363633"/>
<path d="M127.366 75.5744C127.172 75.3257 126.933 75.1151 126.662 74.9532C126.176 74.6737 125.689 74.6841 125.431 75.0568C125.265 75.4805 125.224 75.9431 125.314 76.3892C125.404 76.8352 125.621 77.246 125.938 77.5724C126.135 77.8214 126.373 78.0349 126.642 78.2039C127.139 78.4834 127.615 78.4627 127.874 78.09C128.04 77.6663 128.08 77.2037 127.99 76.7576C127.9 76.3116 127.684 75.9008 127.366 75.5744Z" fill="#222220"/>
<path d="M127.054 75.9577C126.941 75.818 126.805 75.6989 126.651 75.6057C126.371 75.4504 126.102 75.4608 125.957 75.6678C125.862 75.9084 125.838 76.1715 125.89 76.4252C125.941 76.6788 126.065 76.912 126.247 77.0965C126.354 77.2413 126.487 77.3643 126.64 77.4588C126.92 77.6141 127.199 77.6037 127.344 77.3967C127.439 77.1543 127.462 76.8897 127.411 76.6346C127.36 76.3794 127.236 76.1444 127.054 75.9577Z" fill="#B2B9BB"/>
<path d="M122.419 62.2713C122.304 61.999 122.151 61.7445 121.964 61.5155L121.881 61.412C121.706 61.2046 121.496 61.0294 121.26 60.8944C121.028 60.7416 120.749 60.6756 120.473 60.708C120.392 60.7199 120.315 60.7481 120.245 60.7909L118.982 61.5259C119.149 61.4502 119.332 61.42 119.514 61.4381C119.696 61.4563 119.87 61.5223 120.018 61.6294C120.25 61.7647 120.457 61.9399 120.628 62.147L120.722 62.2506C120.904 62.4827 121.057 62.7366 121.177 63.0063C121.317 63.2785 121.39 63.5802 121.39 63.8863C121.39 64.1923 121.317 64.494 121.177 64.7662C121.124 64.8528 121.049 64.9242 120.96 64.9733L122.223 64.2382C122.311 64.1837 122.388 64.1135 122.451 64.0312C122.588 63.7572 122.657 63.4539 122.652 63.1474C122.646 62.8409 122.567 62.5402 122.419 62.2713Z" fill="#363633"/>
<path d="M120.7 62.2504C120.506 62.0017 120.267 61.7911 119.996 61.6293C119.5 61.3497 119.023 61.3601 118.765 61.7328C118.599 62.1566 118.558 62.6191 118.648 63.0652C118.738 63.5113 118.955 63.922 119.272 64.2484C119.469 64.4974 119.707 64.711 119.976 64.8799C120.473 65.1595 120.949 65.1388 121.208 64.7661C121.374 64.3423 121.414 63.8797 121.324 63.4337C121.234 62.9876 121.018 62.5768 120.7 62.2504Z" fill="#222220"/>
<path d="M120.36 62.6749C120.247 62.5352 120.11 62.4161 119.957 62.3229C119.853 62.2421 119.723 62.2036 119.592 62.2151C119.462 62.2267 119.34 62.2874 119.253 62.385C119.16 62.626 119.138 62.8885 119.189 63.1416C119.241 63.3947 119.363 63.6278 119.542 63.8137C119.658 63.9539 119.794 64.0761 119.946 64.176C120.05 64.2568 120.18 64.2953 120.31 64.2838C120.441 64.2723 120.562 64.2115 120.65 64.1139C120.745 63.8715 120.768 63.607 120.717 63.3518C120.665 63.0966 120.542 62.8616 120.36 62.6749Z" fill="#B2B9BB"/>
<path d="M92.2415 60.8116C91.9508 60.1663 91.5785 59.5609 91.1338 59.0103L90.9268 58.7618C90.501 58.2634 89.9976 57.837 89.436 57.4988C88.8666 57.1379 88.1902 56.9843 87.5208 57.064C87.3327 57.1031 87.1514 57.1694 86.9824 57.2607L84.6738 58.6066C85.0677 58.4273 85.5018 58.3549 85.9325 58.3967C86.3632 58.4385 86.7753 58.593 87.1274 58.8447C87.6827 59.1665 88.1855 59.5715 88.6181 60.0456L88.8252 60.294C89.2714 60.8511 89.6437 61.4635 89.9329 62.1161C90.6472 63.7414 90.7508 65.4289 90.0675 66.3916C89.919 66.588 89.7367 66.7562 89.5292 66.8886L91.8585 65.5841C92.071 65.4584 92.2544 65.289 92.3968 65.0872C93.0594 64.1244 92.9662 62.437 92.2415 60.8116Z" fill="#363633"/>
<g style="mix-blend-mode:screen">
<path d="M91.1314 59.0105L90.9244 58.762C90.4986 58.2636 89.9952 57.8372 89.4336 57.499L87.125 58.8449C87.6803 59.1667 88.1831 59.5717 88.6158 60.0457L88.8228 60.2942C89.269 60.8513 89.6413 61.4637 89.9305 62.1162L92.2391 60.7704C91.9453 60.1396 91.5731 59.5483 91.1314 59.0105Z" fill="#363633"/>
</g>
<path d="M88.8231 60.3354C88.3508 59.7353 87.776 59.2236 87.1253 58.8239C85.9347 58.1406 84.7856 58.1821 84.1437 59.0724C83.2017 60.4182 83.7503 63.1513 85.386 65.17C85.859 65.7761 86.4377 66.2917 87.0942 66.6918C88.2744 67.3751 89.4235 67.3233 90.0654 66.433C91.0178 65.1079 90.4588 62.3748 88.8231 60.3354Z" fill="#222220"/>
<path d="M88.4217 62.7577C88.2358 62.3565 87.9992 61.9807 87.7177 61.6396L87.5935 61.4843C87.3346 61.1801 87.0267 60.9212 86.6825 60.7182C86.3355 60.4958 85.922 60.4007 85.5127 60.4491C85.3959 60.4712 85.2839 60.5132 85.1814 60.5733L83.7734 61.3912C84.0133 61.2847 84.2767 61.2421 84.5379 61.2675C84.7991 61.2929 85.0493 61.3854 85.2642 61.5361C85.6075 61.7486 85.9179 62.0102 86.1856 62.3125L86.3098 62.4575C86.5818 62.7993 86.808 63.1752 86.9827 63.5755C87.2095 63.9721 87.3356 64.4182 87.3501 64.8748C87.3645 65.3314 87.2668 65.7846 87.0655 66.1947C86.976 66.3157 86.8634 66.4178 86.7343 66.495L88.1525 65.6771C88.2846 65.5994 88.3977 65.4933 88.4838 65.3665C88.6831 64.9585 88.7814 64.5085 88.7706 64.0545C88.7598 63.6006 88.6401 63.1558 88.4217 62.7577Z" fill="#363633"/>
<g style="mix-blend-mode:screen">
<path d="M87.7172 61.6396L87.593 61.4843C87.334 61.1801 87.0261 60.9212 86.682 60.7183L85.2637 61.5361C85.607 61.7486 85.9174 62.0102 86.185 62.3125L86.3093 62.4575C86.5813 62.7993 86.8075 63.1752 86.9822 63.5756L88.4005 62.7577C88.221 62.3576 87.9914 61.9819 87.7172 61.6396Z" fill="#363633"/>
</g>
<path d="M86.3302 62.4573C86.0434 62.0904 85.6927 61.7783 85.295 61.5359C84.5807 61.1218 83.8663 61.1425 83.4729 61.6912C82.9036 62.5194 83.2348 64.1862 84.239 65.4181C84.5223 65.7912 84.8736 66.1073 85.2743 66.3499C86.0093 66.764 86.7133 66.7433 87.0963 66.1946C87.7175 65.3767 87.3241 63.71 86.3302 62.4573Z" fill="#222220"/>
<path d="M85.9175 63.0374C85.7444 62.8127 85.5301 62.623 85.286 62.4784C84.8409 62.2195 84.4164 62.2299 84.1679 62.5715C84.0195 62.9559 83.9845 63.3749 84.0671 63.7786C84.1497 64.1823 84.3464 64.5538 84.6338 64.8491C84.8128 65.075 85.0301 65.2677 85.2757 65.4185C85.7208 65.6669 86.1453 65.6566 86.3834 65.3149C86.5344 64.9309 86.5708 64.5114 86.4881 64.1071C86.4054 63.7029 86.2072 63.3313 85.9175 63.0374Z" fill="#9BA3A6"/>
<path d="M85.5034 65.2834C85.2578 65.1326 85.0406 64.9399 84.8616 64.714C84.5725 64.4197 84.3755 64.0476 84.2946 63.6431C84.2137 63.2386 84.2524 62.8193 84.4061 62.4364C84.4061 62.4364 84.4682 62.3743 84.5096 62.3433C84.3735 62.379 84.2533 62.4592 84.1679 62.571C84.0195 62.9554 83.9845 63.3744 84.0671 63.7781C84.1497 64.1818 84.3464 64.5533 84.6338 64.8486C84.8128 65.0744 85.0301 65.2672 85.2757 65.418C85.4241 65.5321 85.606 65.594 85.7933 65.594C85.9805 65.594 86.1625 65.5321 86.3109 65.418C86.1742 65.4516 86.0321 65.457 85.8933 65.4339C85.7545 65.4107 85.6218 65.3595 85.5034 65.2834Z" fill="#B6BDBE"/>
<g style="mix-blend-mode:multiply" opacity="0.5">
<path d="M95.4088 85.1814C91.8786 83.1109 89.0006 84.788 88.9902 88.8359C89.108 91.0507 89.7469 93.2064 90.855 95.1276C91.9632 97.0489 93.5092 98.6814 95.3674 99.8924C98.8976 101.963 101.776 100.286 101.786 96.2276C101.667 94.0146 101.027 91.8609 99.9189 89.9416C98.8108 88.0222 97.2656 86.3914 95.4088 85.1814ZM95.4088 99.5714C93.628 98.4223 92.1437 96.8687 91.0769 95.0373C90.0101 93.206 89.3909 91.1485 89.2697 89.0326C89.2697 85.1607 92.0339 83.5871 95.4088 85.5334C97.1866 86.6881 98.6665 88.2464 99.7279 90.0814C100.789 91.9164 101.402 93.9762 101.517 96.093C101.496 99.9545 98.7423 101.518 95.3674 99.5714H95.4088Z" fill="#A3A7A8"/>
</g>
<path d="M136.726 74.8604H136.643H136.57H136.125H136.022L135.866 74.9328L135.742 75.0156L135.659 75.0778L135.556 75.1709L135.463 75.2641C135.433 75.2866 135.409 75.3148 135.39 75.3469L135.328 75.4297C135.297 75.4652 135.269 75.5033 135.245 75.5436L135.152 75.6782C135.137 75.7137 135.12 75.7483 135.1 75.7817V75.8335C135.099 75.868 135.099 75.9025 135.1 75.937C135.1 75.937 135.1 76.0095 135.1 76.0405C135.1 76.0405 135.1 76.1441 135.049 76.1855V76.2994C135.049 76.2994 135.049 76.3615 135.049 76.4029V76.4546C135.053 76.489 135.053 76.5238 135.049 76.5582C135.044 76.6064 135.044 76.6549 135.049 76.7031C135.035 76.9578 135.116 77.2085 135.276 77.4071C135.315 77.4652 135.368 77.5118 135.432 77.5417L136.55 78.2042C136.416 78.1119 136.31 77.9853 136.243 77.8377C136.175 77.6901 136.149 77.527 136.167 77.3657C136.161 77.3175 136.161 77.2689 136.167 77.2207C136.167 77.2207 136.167 77.1483 136.167 77.1172V77.0654C136.167 77.0654 136.167 76.993 136.167 76.9619V76.848C136.167 76.848 136.167 76.7549 136.167 76.7031C136.167 76.7031 136.167 76.6306 136.218 76.5996C136.217 76.5651 136.217 76.5305 136.218 76.4961V76.4443C136.238 76.4108 136.255 76.3763 136.27 76.3408L136.363 76.2062L136.436 76.0923L136.498 76.0095L136.56 75.937L136.653 75.8438L136.757 75.7507L136.85 75.6886L136.974 75.6057L137.119 75.5333H137.171H137.274H137.347H137.461H137.699H137.771H137.854L136.726 74.8604Z" fill="url(#paint11_linear)"/>
<g style="mix-blend-mode:screen">
<path d="M136.116 74.8081C136.005 74.8414 135.897 74.8865 135.795 74.9427C135.658 75.0267 135.53 75.1238 135.412 75.2326L136.53 75.8951C136.646 75.784 136.775 75.6867 136.913 75.6052C137.015 75.5491 137.123 75.504 137.234 75.4707L136.116 74.8081Z" fill="#E9ECED"/>
</g>
<path d="M136.912 75.5743C136.533 75.8219 136.217 76.1551 135.991 76.5472C135.764 76.9392 135.633 77.379 135.607 77.8311C135.607 78.6593 136.198 78.9906 136.922 78.5765C137.301 78.3296 137.616 77.9962 137.841 77.6039C138.066 77.2115 138.195 76.7714 138.216 76.3196C138.216 75.5743 137.626 75.1912 136.912 75.5743Z" fill="#A0A3A3"/>
<path d="M136.914 75.8329C136.592 76.0424 136.324 76.3251 136.131 76.6579C135.939 76.9907 135.828 77.3642 135.807 77.7481C135.807 78.4521 136.304 78.7833 136.925 78.3899C137.246 78.1769 137.514 77.8921 137.706 77.5579C137.898 77.2236 138.01 76.8493 138.032 76.4644C138.022 75.7604 137.525 75.4809 136.914 75.8329Z" fill="#212121"/>
<path opacity="0.1" d="M136.873 76.2679C136.665 76.4026 136.492 76.5844 136.368 76.7984C136.244 77.0125 136.172 77.2528 136.158 77.4998C136.158 77.945 136.479 78.1313 136.873 77.9036C137.08 77.7688 137.253 77.5871 137.377 77.373C137.501 77.159 137.573 76.9187 137.587 76.6716C137.587 76.2265 137.266 76.0401 136.873 76.2679Z" fill="#D0D6D6"/>
<path opacity="0.1" d="M136.903 76.6097C136.792 76.6836 136.701 76.7817 136.634 76.8966C136.568 77.0114 136.529 77.1399 136.52 77.2723C136.52 77.5207 136.696 77.6243 136.903 77.5C137.017 77.4268 137.112 77.3277 137.18 77.2107C137.248 77.0938 137.288 76.9623 137.296 76.8271C137.296 76.6097 137.12 76.5165 136.903 76.6097Z" fill="#D0D6D6"/>
<g style="mix-blend-mode:screen" opacity="0.2">
<path d="M136.84 76.7957C136.799 76.8236 136.765 76.8604 136.739 76.9034C136.714 76.9464 136.699 76.9946 136.695 77.0442C136.695 77.127 136.768 77.1684 136.84 77.1167C136.882 77.0917 136.917 77.0569 136.942 77.0155C136.967 76.974 136.982 76.927 136.985 76.8786C136.985 76.7854 136.923 76.744 136.84 76.7957Z" fill="#D0D6D6"/>
</g>
<path opacity="0.5" d="M136.798 76.1231C136.798 76.1231 136.798 76.2059 136.798 76.2369C136.798 76.268 136.726 76.2369 136.726 76.2369C136.726 76.2143 136.731 76.1919 136.742 76.172C136.753 76.1521 136.769 76.1353 136.788 76.1231C136.788 76.1231 136.798 76.0817 136.798 76.1231ZM137.471 75.8643C137.471 75.8643 137.409 75.8643 137.378 75.9264C137.347 75.9885 137.378 76.0195 137.378 76.0299C137.378 76.0403 137.451 76.0299 137.471 75.9678C137.492 75.9057 137.502 75.8746 137.471 75.8643ZM137.865 76.3715C137.865 76.3715 137.865 76.3715 137.792 76.3715C137.774 76.3849 137.759 76.402 137.749 76.4217C137.738 76.4413 137.732 76.4631 137.73 76.4854C137.73 76.4854 137.73 76.5372 137.803 76.4854C137.821 76.472 137.835 76.4549 137.846 76.4353C137.857 76.4156 137.863 76.3939 137.865 76.3715ZM137.668 77.3033C137.668 77.3033 137.668 77.2204 137.668 77.2101C137.668 77.1997 137.606 77.2101 137.585 77.2722C137.564 77.3343 137.585 77.355 137.585 77.3654C137.585 77.3757 137.647 77.3447 137.668 77.3033ZM137.016 78.1315C137.024 78.1136 137.028 78.0942 137.028 78.0745C137.028 78.0548 137.024 78.0354 137.016 78.0176C137.016 78.0176 137.016 78.0176 136.954 78.0176C136.935 78.0298 136.919 78.0466 136.908 78.0665C136.897 78.0865 136.891 78.1088 136.892 78.1315C136.892 78.1315 136.974 78.1522 137.016 78.1315ZM136.27 78.3592C136.27 78.3592 136.343 78.3592 136.364 78.2971C136.384 78.235 136.364 78.2143 136.364 78.2039C136.364 78.1936 136.301 78.2039 136.27 78.266C136.239 78.3282 136.25 78.3489 136.27 78.3592ZM135.887 77.8623C135.887 77.8623 135.887 77.9141 135.96 77.8623C135.976 77.8484 135.99 77.8309 135.999 77.8112C136.008 77.7915 136.012 77.7701 136.012 77.7484C136.012 77.7484 136.012 77.7484 135.939 77.7484C135.921 77.7611 135.907 77.7784 135.898 77.7984C135.889 77.8184 135.885 77.8404 135.887 77.8623ZM136.074 76.9202C136.074 76.9202 136.074 77.0134 136.074 77.0237C136.074 77.0341 136.146 77.0237 136.167 76.9513C136.188 76.8788 136.167 76.8685 136.167 76.8581C136.167 76.8477 136.094 76.8788 136.074 76.9202Z" fill="#BF2121"/>
<path style="mix-blend-mode:screen" opacity="0.3" d="M135.817 77.8623C135.811 77.8245 135.811 77.7861 135.817 77.7484C135.818 77.5877 135.839 77.4277 135.879 77.2722L137.484 75.6882C137.617 75.6995 137.742 75.7583 137.835 75.8539L135.817 77.8623ZM136.334 78.5352L137.97 76.8995C138.011 76.7582 138.032 76.6118 138.032 76.4647C138.034 76.3444 138.013 76.2249 137.97 76.1127L135.9 78.1832C135.94 78.2792 136.006 78.3626 136.089 78.4246C136.173 78.4865 136.272 78.5247 136.376 78.5352H136.334Z" fill="url(#paint12_linear)"/>
<path style="mix-blend-mode:screen" d="M111.298 112.401C115.103 107.343 115.868 101.498 113.008 99.3466C110.147 97.1951 104.744 99.5514 100.94 104.609C97.1351 109.668 96.3695 115.512 99.2299 117.664C102.09 119.815 107.493 117.459 111.298 112.401Z" fill="url(#paint13_radial)"/>
<g style="mix-blend-mode:screen">
<path d="M105.48 108.868C105.48 109.22 105.76 109.334 106.112 109.137C106.293 109.028 106.444 108.877 106.554 108.697C106.664 108.517 106.729 108.313 106.743 108.102C106.743 107.75 106.464 107.636 106.112 107.833C105.93 107.94 105.776 108.091 105.666 108.271C105.556 108.452 105.492 108.657 105.48 108.868Z" fill="#F3F5F5"/>
</g>
<path d="M43.1985 120.359C42.8357 121.179 42.8097 122.109 43.126 122.947C44.8653 126.312 47.4016 130.453 50.0829 131.136C52.464 131.747 54.8969 131.136 55.5284 129.842C55.7046 129.296 55.7515 128.716 55.6653 128.148C55.579 127.58 55.362 127.04 55.0314 126.571C54.3275 125.794 52.3501 125.277 51.0871 123.786C49.8241 122.295 47.6501 121.353 45.9937 120.152C45.5405 119.983 45.0559 119.913 44.5734 119.949C44.0908 119.985 43.6217 120.125 43.1985 120.359Z" fill="#281504"/>
<path d="M43.4378 122.16C42.7649 120.297 43.4378 120.204 43.4896 119.293C43.4039 118.295 43.5937 117.292 44.0383 116.394C44.2232 116.231 44.4328 116.098 44.6594 116.001C45.3415 115.735 46.0861 115.674 46.8024 115.825C47.8333 115.894 48.8237 116.253 49.6597 116.86C50.2705 117.315 49.9081 117.895 50.3844 119.055C50.9434 120.473 55.3122 124.904 55.6434 127.875C55.6838 128.3 55.5788 128.726 55.3456 129.083C55.1124 129.44 54.7648 129.708 54.3597 129.842C53.2673 130.206 52.1081 130.327 50.9641 130.194C47.6409 129.811 43.6863 122.885 43.4378 122.16Z" fill="url(#paint14_linear)"/>
<path d="M73.378 62.0227C73.8335 60.5216 74.1234 58.3269 74.2062 58.0163C74.5478 56.6705 74.993 55.6663 76.4423 55.6042C76.7298 55.5622 77.0228 55.5794 77.3034 55.6547C77.584 55.73 77.8463 55.8619 78.0741 56.0422C78.3019 56.2225 78.4905 56.4475 78.6282 56.7033C78.766 56.9591 78.85 57.2403 78.8752 57.5297C79.3271 58.9539 79.5712 60.4357 79.5999 61.9296C79.5999 62.5507 79.1133 64.5902 78.5646 64.0001C78.2954 63.6999 78.6681 61.9296 78.6681 61.9296L78.2954 60.563C78.2954 60.563 78.1091 63.2754 78.0677 64.2589C77.8432 65.0576 77.4938 65.8158 77.0324 66.5054C76.8357 66.8367 76.5459 67.3336 76.4009 66.7228C76.2974 66.288 77.136 64.6523 77.0738 64.2278C77.0117 63.8034 76.96 63.2754 76.8771 62.7992C76.8771 62.4886 76.8771 62.2712 76.6494 62.1366C76.5873 62.8302 76.5666 63.6999 76.5769 64.2796C76.3392 65.1235 75.9613 65.9215 75.4588 66.64C75.2725 66.9816 74.9826 67.1472 74.8273 66.5364C74.7238 66.1016 75.7384 64.6419 75.7177 64.2382C75.697 63.8344 75.6348 62.4058 75.6141 61.7743H75.5417C75.4238 62.425 75.3409 63.0816 75.2932 63.7413C75.2932 64.3003 74.5064 64.7765 74.258 65.2631C74.0613 65.5737 73.7817 65.5322 73.6782 64.9525C73.5954 64.5281 74.5375 63.617 74.5478 63.234C74.5582 62.8509 74.5478 62.002 74.5478 61.3912C74.4202 61.6192 74.3227 61.8628 74.258 62.1159C74.1938 62.3545 74.0818 62.5776 73.9288 62.7716C73.7757 62.9656 73.5848 63.1265 73.3676 63.2443C73.1192 63.3996 72.7465 63.6377 72.7051 63.1615C72.6637 62.6853 73.2952 62.3023 73.378 62.0227Z" fill="url(#paint15_linear)"/>
<path opacity="0.5" d="M76.5975 62.1158C76.7839 62.2504 76.7839 62.4678 76.8253 62.7783C76.9081 63.2545 76.9392 63.7308 77.022 64.207C77.1048 64.6832 76.2455 66.2775 76.3491 66.7019C76.3704 66.7782 76.4018 66.8513 76.4422 66.9193C77.0156 66.1961 77.454 65.3755 77.7363 64.4968C77.8773 63.5434 77.9603 62.5823 77.9848 61.6188C78.0193 60.8454 77.8114 60.0804 77.3901 59.4308C76.9688 58.7812 76.3551 58.2794 75.6348 57.9955C75.471 57.937 75.2963 57.9154 75.1233 57.9323C74.9502 57.9492 74.7831 58.0041 74.6337 58.0932C74.4843 58.1822 74.3565 58.3031 74.2593 58.4473C74.1621 58.5915 74.098 58.7553 74.0715 58.9272C73.9085 59.9739 73.6873 61.0108 73.409 62.0329C73.3261 62.3125 72.6946 62.8715 72.7153 63.2028C72.736 63.5341 73.1294 63.4409 73.3779 63.2856C73.5975 63.1621 73.7891 62.9943 73.9405 62.7929C74.092 62.5916 74.2 62.361 74.2579 62.1158C74.3012 61.8506 74.3814 61.5927 74.496 61.3497C74.496 61.9605 74.496 62.799 74.496 63.1924C74.496 63.5858 73.5435 64.4865 73.6264 64.911C73.7299 65.4907 74.0094 65.5321 74.2061 65.2215C74.5063 64.735 75.2414 64.2587 75.2414 63.6997C75.289 63.0401 75.372 62.3835 75.4898 61.7327H75.5623C75.5623 62.3642 75.6555 63.8032 75.6658 64.1966C75.6762 64.59 74.6306 66.0601 74.7755 66.4949C74.9308 67.1057 75.2207 66.94 75.407 66.5984C75.9094 65.8799 76.2874 65.082 76.5251 64.238C76.5147 63.7101 76.5354 62.8404 76.5975 62.1158Z" fill="#9FA4A5"/>
<path d="M77.5792 54.4239C77.808 55.0684 77.9202 55.7485 77.9104 56.4323C77.8069 57.333 75.8399 57.6643 75.3016 56.9292C74.9878 56.2356 74.8187 55.4853 74.8047 54.7241C74.9807 53.9581 76.4714 53.5647 77.2272 54.0305C77.38 54.125 77.5022 54.2616 77.5792 54.4239Z" fill="#363633"/>
<path d="M69.6498 33.6569C70.0553 33.3084 70.5625 33.1 71.0959 33.0627C71.6293 33.0254 72.1605 33.1612 72.6106 33.4499C73.1 33.7807 73.5174 34.2072 73.8376 34.7036C74.1578 35.1999 74.3743 35.756 74.4741 36.3382C75.0435 38.6365 77.0208 50.0035 77.6937 53.2232C78.1803 55.5525 74.6708 55.3972 74.3809 54.5172C73.2421 51.0906 68.7284 40.4792 68.1694 37.9532C68.0377 37.1704 68.1041 36.3671 68.3627 35.6166C68.6213 34.8661 69.0638 34.1924 69.6498 33.6569Z" fill="url(#paint16_linear)"/>
<path d="M72.1856 34.1642C72.329 34.6349 72.3196 35.139 72.1589 35.6041C71.9981 36.0692 71.6941 36.4715 71.2906 36.7531C70.8871 37.0348 70.4047 37.1814 69.9127 37.172C69.4206 37.1625 68.9442 36.9975 68.5518 36.7006C68.4007 36.2287 68.4048 35.7208 68.5634 35.2513C68.722 34.7819 69.0268 34.3756 69.4331 34.092C69.8394 33.8084 70.3259 33.6624 70.8212 33.6754C71.3165 33.6884 71.7947 33.8597 72.1856 34.1642Z" fill="#9FA4A5"/>
<path d="M65.4579 20.3433C66.224 23.2524 71.8661 32.8285 72.1353 34.723C72.0792 35.0426 71.9603 35.3479 71.7854 35.6213C71.6105 35.8946 71.3831 36.1306 71.1164 36.3154C70.8497 36.5003 70.549 36.6304 70.2316 36.6982C69.9143 36.7661 69.5866 36.7703 69.2677 36.7107C69.0365 36.6409 68.8335 36.4995 68.6879 36.3069C66.4621 33.5221 63.6048 28.9877 61.8345 26.0579C61.0892 24.857 61.6586 25.6438 61.9588 24.298C62.1555 23.3041 64.5883 19.7532 65.4579 20.3433Z" fill="#363633"/>
<path d="M64.0585 28.0353C67.744 26.7515 68.831 19.422 64.9591 17.3722C60.4765 15.0014 54.8551 22.4242 58.5923 26.089C59.4764 26.955 60.5353 27.6221 61.6981 28.0456C62.465 28.2995 63.2938 28.2959 64.0585 28.0353Z" fill="url(#paint17_linear)"/>
<path d="M63.5339 111.808C63.3683 112.16 63.2544 113.661 63.917 114.096C65.3042 115.028 65.9875 115.276 67.5611 116.353C68.5963 117.088 70.2424 118.641 71.4847 119.096C72.9595 119.643 74.5187 119.926 76.0915 119.935C77.8722 119.831 79.3215 119.396 79.4872 117.491C79.4922 117.098 79.4104 116.709 79.2476 116.351C79.0847 115.993 78.8449 115.675 78.5451 115.421C77.6341 114.758 74.0003 114.5 72.1265 113.557C70.2527 112.615 68.1098 111.642 66.1945 110.566C65.3353 110.11 63.5857 111.601 63.5339 111.808Z" fill="#281504"/>
<path d="M63.9974 112.988C62.9621 112.067 63.8628 110.742 63.9974 109.655C64.1009 109.023 64.0595 107.998 64.5875 107.584C65.3121 106.942 66.8547 107.481 67.6932 107.584C68.4856 107.557 69.2759 107.68 70.0225 107.946C70.6126 108.319 70.6437 109.272 71.0578 109.8C72.1966 111.228 73.9358 111.87 75.468 112.802C77.0001 113.734 79.2259 115.162 79.4123 117.274C79.4247 117.623 79.3328 117.968 79.1485 118.265C78.9641 118.562 78.6956 118.797 78.377 118.941C76.0995 119.862 73.0662 118.941 70.9543 117.667C69.215 116.632 67.8485 114.997 66.0575 114.148C65.3176 113.864 64.6234 113.474 63.9974 112.988Z" fill="url(#paint18_linear)"/>
<path d="M69.7024 104.095C69.7024 104.944 70.0026 107.77 70.0026 108.423C70.0026 109.561 68.3565 109.717 67.4869 109.717C65.7581 109.717 65.1887 108.93 65.168 108.454C65.168 108.309 65.168 105.11 65.168 104.975C65.375 103.443 66.4206 104.095 68.0046 104.095H69.7024Z" fill="#363633"/>
<path d="M71.9386 85.9264C71.3973 79.8263 70.3902 73.7766 68.9261 67.8302C68.4948 66.3485 67.9869 64.8903 67.4042 63.4614C67.0677 62.172 66.5259 60.945 65.7996 59.8277C65.0439 58.8856 64.3502 59.248 63.4392 59.7449C62.0374 60.6928 60.8721 61.9502 60.0332 63.42C58.6886 65.5762 57.9088 68.0365 57.766 70.5736C57.651 74.0952 58.0344 77.6154 58.9048 81.0297C59.7003 83.9355 60.6789 86.7882 61.8346 89.5705C61.7207 98.7739 63.4599 99.8298 64.2881 105.638L64.6091 107.211C65.6443 107.75 66.8555 107.936 67.632 106.797C67.9521 106.371 68.3918 106.051 68.895 105.876C69.2056 105.762 69.5369 105.741 69.8578 105.648C70.1787 105.555 70.2615 105.368 70.1684 104.944C69.9819 104.14 69.9156 103.314 69.9717 102.49C70.3133 98.5358 71.0794 96.2789 71.4624 91.5789C71.8349 89.7189 71.9947 87.8225 71.9386 85.9264Z" fill="url(#paint19_linear)"/>
<path d="M64.7344 59.8488C62.9124 59.5382 59.641 65.1596 59.0302 66.9196C58.2724 69.5015 58.0678 72.2143 58.4297 74.8807C58.4488 75.1195 58.518 75.3517 58.6326 75.562C58.7473 75.7724 58.905 75.9563 59.0953 76.1018C59.2857 76.2473 59.5046 76.3511 59.7377 76.4064C59.9708 76.4618 60.213 76.4675 60.4485 76.4232C67.6124 76.0712 67.3847 60.294 64.7344 59.8488Z" fill="#9FA4A5"/>
<path d="M56.8242 65.7185L59.402 72.5926C61.6071 76.7336 64.3194 71.6816 65.1891 67.7683C65.4695 66.4729 65.3835 65.125 64.9406 63.8758L62.5492 57.0017C60.6547 57.685 56.9484 65.0249 56.8242 65.7185Z" fill="#363633"/>
<path d="M55.344 66.4225L53.553 76.6093C50.0642 76.8371 47.4657 72.9549 46.1406 69.0416L46.8757 60.1074C48.884 60.3455 55.0541 65.7806 55.344 66.4225Z" fill="#363633"/>
<path d="M59.8871 70.0669C61.6057 68.7211 61.7817 66.164 62.1751 64.2074C62.4088 62.5935 63.0621 61.0692 64.0696 59.7868C64.8947 58.8866 65.5317 57.8307 65.9434 56.6811C66.1662 55.3535 66.1975 54.0008 66.0365 52.6643C65.55 59.2589 53.1477 59.9111 51.1703 59.9628C48.8735 59.9599 46.6355 59.2356 44.7725 57.8923C44.6128 58.8409 44.7019 59.8148 45.0313 60.7186C45.0932 60.8862 45.2024 61.0322 45.3458 61.1388C45.4892 61.2454 45.6604 61.308 45.8388 61.319C48.6784 61.5571 51.3348 62.8191 53.3133 64.8699C54.3523 66.1485 55.248 67.5371 55.9842 69.0109C56.7193 70.3982 57.8787 71.2781 59.4523 70.3982C59.6065 70.3004 59.752 70.1896 59.8871 70.0669Z" fill="url(#paint20_linear)"/>
<path style="mix-blend-mode:screen" opacity="0.9" d="M59.8871 70.0669C61.6057 68.7211 61.7817 66.164 62.1751 64.2074C62.4088 62.5935 63.0621 61.0692 64.0696 59.7868C64.8947 58.8866 65.5317 57.8307 65.9434 56.6811C66.1662 55.3535 66.1975 54.0008 66.0365 52.6643C65.55 59.2589 53.1477 59.9111 51.1703 59.9628C48.8735 59.9599 46.6355 59.2356 44.7725 57.8923C44.6128 58.8409 44.7019 59.8148 45.0313 60.7186C45.0932 60.8862 45.2024 61.0322 45.3458 61.1388C45.4892 61.2454 45.6604 61.308 45.8388 61.319C48.6784 61.5571 51.3348 62.8191 53.3133 64.8699C54.3523 66.1485 55.248 67.5371 55.9842 69.0109C56.7193 70.3982 57.8787 71.2781 59.4523 70.3982C59.6065 70.3004 59.752 70.1896 59.8871 70.0669Z" fill="url(#paint21_radial)"/>
<path d="M65.8715 52.519C66.4616 54.7965 64.2151 58.3992 58.397 59.9003C52.5789 61.4014 45.3632 60.2212 44.7731 57.9747C44.183 55.7282 48.4689 53.9683 54.2663 52.343C60.9127 50.4381 65.2918 50.2414 65.8715 52.519Z" fill="#9FA4A5"/>
<path d="M64.8481 44.0923V52.6642C64.8481 52.6642 65.2415 57.5092 57.4564 58.9999C46.9486 61.0083 45.9755 57.3332 45.9755 57.3332L45.2715 49.1961L64.8481 44.0923Z" fill="#363633"/>
<path d="M47.1453 55.1381C51.5244 57.2915 55.0236 54.2168 57.8602 51.4319C60.3137 49.0301 62.8708 47.6222 65.9766 48.1605C65.8627 41.7213 65.697 34.5159 65.5728 32.8595C65.5111 32.106 65.4109 31.3562 65.2726 30.613C65.2726 30.3335 65.2726 30.0954 65.2726 29.909C65.2003 27.5882 64.8528 25.2842 64.2373 23.0453C63.9216 22.1264 63.2883 21.3504 62.4513 20.857C61.6144 20.3635 60.6287 20.185 59.6719 20.3537C53.4604 21.6477 47.0522 24.4118 42.4246 28.822C42.3314 29.3189 43.6565 43.5019 44.5572 52.9952C45.2943 53.8489 46.1691 54.5733 47.1453 55.1381Z" fill="url(#paint22_linear)"/>
<path style="mix-blend-mode:screen" opacity="0.9" d="M47.1453 55.1381C51.5244 57.2915 55.0236 54.2168 57.8602 51.4319C60.3137 49.0301 62.8708 47.6222 65.9766 48.1605C65.8627 41.7213 65.697 34.5159 65.5728 32.8595C65.5111 32.106 65.4109 31.3562 65.2726 30.613C65.2726 30.3335 65.2726 30.0954 65.2726 29.909C65.2003 27.5882 64.8528 25.2842 64.2373 23.0453C63.9216 22.1264 63.2883 21.3504 62.4513 20.857C61.6144 20.3635 60.6287 20.185 59.6719 20.3537C53.4604 21.6477 47.0522 24.4118 42.4246 28.822C42.3314 29.3189 43.6565 43.5019 44.5572 52.9952C45.2943 53.8489 46.1691 54.5733 47.1453 55.1381Z" fill="url(#paint23_radial)"/>
<path d="M49.1516 113.361C49.1516 114.21 49.4518 117.036 49.4518 117.688C49.4518 118.827 47.8058 118.982 46.9362 118.982C45.2073 118.982 44.6379 118.195 44.6172 117.719C44.6172 117.574 44.6172 114.375 44.6172 114.241C44.8242 112.709 45.8698 113.361 47.4538 113.361H49.1516Z" fill="#363633"/>
<path d="M57.1126 79.301C56.5639 75.3774 55.5494 71.2467 53.0751 68.0582C51.8581 66.3195 50.2795 64.8645 48.4476 63.7929C48.0562 63.6098 47.6279 63.5196 47.1959 63.5293C46.764 63.5389 46.3401 63.6482 45.9574 63.8486C45.5746 64.049 45.2433 64.3351 44.9893 64.6846C44.7353 65.0341 44.5654 65.4375 44.4929 65.8634C44.172 67.7165 43.3024 69.9113 43.085 71.7851C42.4157 76.5907 42.3775 81.4631 42.9711 86.2786C42.9711 86.6927 43.82 91.7551 44.3376 94.1983C44.6251 95.8789 44.4718 97.6053 43.8924 99.2089C41.9462 105.514 44.4101 108.153 43.8924 114.613C43.8443 114.846 43.8503 115.086 43.91 115.315C43.9697 115.545 44.0815 115.757 44.2367 115.937C44.3919 116.116 44.5864 116.257 44.805 116.349C45.0236 116.441 45.2604 116.481 45.4971 116.467C46.5323 116.467 46.7705 115.887 48.0438 115.649C48.8306 115.504 49.4414 116.094 49.8451 115.721C50.2489 115.348 50.0004 114.572 50.0626 114.117C51.0978 106.352 51.9985 105.514 53.013 103.029C53.1715 102.66 53.2996 102.28 53.3961 101.89C53.7377 100.431 54.5659 98.8776 54.5659 96.7139C54.5659 96.538 55.4666 91.5377 56.1705 87.0861C56.2893 86.9077 56.3703 86.7069 56.4086 86.496C56.4915 85.5643 56.9366 82.1997 57.2783 79.6633C57.1951 79.5574 57.1383 79.4332 57.1126 79.301Z" fill="url(#paint24_linear)"/>
<path d="M52.0617 22.9728C51.6699 23.131 51.2953 23.3287 50.9436 23.5629C48.5936 25.1676 50.1569 27.2484 53.0142 28.2319C54.6913 28.8013 58.3871 29.0601 59.2257 26.9275C60.8821 22.2999 54.8673 21.7409 52.0617 22.9728Z" fill="#9FA4A5"/>
<path d="M37.2048 70.2117C37.0749 70.8957 37.0749 71.5981 37.2048 72.2822C37.474 73.1518 39.4513 73.1104 39.8654 72.2822C40.0492 71.544 40.0809 70.7762 39.9586 70.0253C39.6377 69.3007 38.0952 69.1868 37.443 69.7872C37.3289 69.9063 37.247 70.0523 37.2048 70.2117Z" fill="#363633"/>
<path d="M40.157 34.3607C40.4469 37.3526 38.4592 48.2849 38.8629 50.169C39.1971 50.7327 39.7411 51.1408 40.3758 51.3038C41.0104 51.4669 41.6838 51.3715 42.2482 51.0387C42.4427 50.897 42.5818 50.692 42.6416 50.4589C43.8199 46.5094 44.7909 42.5009 45.5507 38.45C45.8405 37.0731 45.5507 38.0152 44.826 36.8453C44.2359 35.9964 40.7575 33.5118 40.157 34.3607Z" fill="#363633"/>
<path d="M41.1817 48.3367C40.7208 48.0656 40.1848 47.9504 39.6532 48.0082C39.1217 48.066 38.623 48.2938 38.2312 48.6576C37.8196 49.082 37.4975 49.5848 37.2841 50.1361C37.0707 50.6874 36.9703 51.276 36.9889 51.8669C36.844 54.2273 36.9889 65.7496 36.9268 69.0521C36.9268 71.4228 40.2913 70.636 40.4156 69.7146C40.9021 66.1327 43.3868 54.8691 43.4489 52.2914C43.4337 51.4948 43.218 50.7149 42.8217 50.0237C42.4254 49.3325 41.8614 48.7523 41.1817 48.3367Z" fill="url(#paint25_linear)"/>
<path d="M40.7257 73.2346C40.6816 72.6918 40.4596 72.1787 40.0942 71.7749C39.8886 71.6037 39.6454 71.4835 39.3846 71.4242C39.1237 71.3648 38.8525 71.3679 38.5931 71.4333C38.3135 71.4333 37.8684 71.4333 37.5578 71.4333H37.3404C36.4812 71.7438 36.1188 73.1828 35.9739 73.9696C35.9118 74.2802 35.86 74.6011 35.8186 74.9221C35.5873 75.9419 35.459 76.9824 35.4355 78.0278C35.533 78.8004 35.735 79.5562 36.036 80.2743C36.3466 80.6367 36.3673 80.2019 36.388 79.912C36.388 79.4565 36.2534 78.5455 36.2845 78.0899C36.3218 77.8248 36.3877 77.5645 36.4811 77.3135C36.4811 77.9347 36.5743 79.177 36.595 79.5704C36.7407 80.4487 37.0347 81.2959 37.4646 82.0757C37.8994 82.4794 37.8684 81.9411 37.8477 81.5787C37.8477 81.0197 37.4129 80.1604 37.3922 79.6014C37.3715 79.0424 37.3922 78.297 37.5061 77.6241H37.5785C37.6406 78.2452 37.8166 79.6946 37.858 80.0673C38.0542 81.0424 38.4223 81.9749 38.9451 82.821C39.4316 83.2248 39.3695 82.6554 39.3177 82.2724C39.2349 81.6719 38.7587 80.792 38.7069 80.2019C38.6552 79.6118 38.6138 78.7525 38.6241 78.0692C38.8208 78.1831 38.8312 78.4109 38.9036 78.7111C39.0072 79.177 39.0796 79.6532 39.1935 80.119C39.436 80.9317 39.8064 81.7005 40.2909 82.3966C40.7774 82.8003 40.7153 82.231 40.6739 81.8479C40.5561 81.2506 40.4075 80.6597 40.2288 80.0776C40.0022 79.3859 39.836 78.6758 39.7318 77.9554C39.7318 77.6448 39.7318 76.5681 39.9907 76.3714C40.5083 75.9677 41.0259 77.1893 41.0777 77.5206C41.2744 78.1728 40.9017 79.0838 41.3986 79.6532C41.8955 80.2226 42.1129 78.5247 42.1129 78.2659C42.0405 76.4335 41.0259 74.9324 40.7257 73.2346Z" fill="url(#paint26_linear)"/>
<path d="M45.9751 38.4811C49.6502 37.1973 50.7372 29.8678 46.8654 27.818C42.3827 25.4472 36.7613 32.87 40.4986 36.5348C41.3834 37.3998 42.4421 38.0668 43.6043 38.4914C44.3736 38.7523 45.2081 38.7486 45.9751 38.4811Z" fill="url(#paint27_linear)"/>
<path d="M47.1016 15.3015C47.8366 15.964 51.0355 23.5835 51.5428 24.9707C52.2468 26.8859 54.4104 27.6727 56.3153 27.4864C56.9986 27.4139 57.9614 27.2379 58.3237 26.6168C58.9966 25.4676 58.7274 23.511 58.7585 22.2583C58.8641 20.9624 58.8085 19.6584 58.5929 18.3762C58.3755 17.4134 56.5224 17.2788 55.777 16.5852C55.2964 15.9957 54.7627 15.4517 54.1827 14.9598C53.6062 14.6826 52.9977 14.4774 52.371 14.349C50.5386 13.7486 48.1368 13.0032 47.1016 15.3015Z" fill="#363633"/>
<path d="M61.2236 7.79621C61.1511 4.84574 57.3725 -1.36577 51.2541 0.269929C48.3761 1.03602 45.6845 3.10652 44.9598 8.02397C44.6737 10.4201 45.0014 12.8497 45.9122 15.0844C45.997 15.268 46.1338 15.4228 46.3056 15.5295C47.3926 16.306 51.6165 19.2254 53.5524 18.9045C54.7326 18.6974 57.5899 20.1985 57.9211 19.008C58.7868 16.6808 59.3065 14.2392 59.4637 11.7612C59.5361 10.3533 61.265 9.31803 61.2236 7.79621Z" fill="url(#paint28_linear)"/>
<path d="M61.3364 8.74882C61.2639 5.788 59.4419 1.90581 54.4416 3.81067C52.9607 4.50532 51.681 5.56541 50.7229 6.89116C49.7648 8.2169 49.1599 9.76466 48.9651 11.3887C48.4475 15.1674 48.8202 18.0557 50.6629 20.7992C51.6154 22.2071 55.7874 23.76 57.9097 23.3873C59.1002 23.1802 59.4315 21.586 59.7525 20.3954C60.6235 18.0698 61.1434 15.6274 61.295 13.1486C61.3968 11.6842 61.4106 10.2149 61.3364 8.74882Z" fill="url(#paint29_linear)"/>
<path d="M61.5762 88.9289L61.8143 89.5707V90.1608C63.1808 91.3099 66.2452 91.8586 67.5496 91.7862C68.9563 91.822 70.3479 91.4902 71.5871 90.8234C71.8265 89.4561 71.9442 88.0704 71.939 86.6824C71.8355 89.2809 63.657 89.0324 61.5762 88.9289Z" fill="#363633"/>
<path d="M53.946 100.017C54.2766 99.0473 54.4717 98.037 54.5257 97.0143C52.8072 98.4844 46.4922 96.2897 44.4941 95.5339C44.5009 96.0294 44.4663 96.5246 44.3906 97.0143C45.6799 98.4067 47.3055 99.4441 49.1114 100.027C50.716 100.42 52.6726 100.876 53.946 100.017Z" fill="#363633"/>
<path style="mix-blend-mode:screen" d="M47.1543 43.8848C47.1543 50.6864 52.6722 53.0261 59.4738 49.0611C66.2754 45.0961 71.7933 36.431 71.7933 29.6294C71.7933 22.8278 66.2754 20.4985 59.4738 24.4531C52.6722 28.4078 47.1543 37.0832 47.1543 43.8848Z" fill="url(#paint30_radial)"/>
<g style="mix-blend-mode:screen">
<path d="M58.5723 37.27C58.5723 37.7669 58.976 37.9429 59.4729 37.653C59.7231 37.503 59.9348 37.2967 60.0911 37.0505C60.2475 36.8043 60.3442 36.5249 60.3736 36.2347C60.3736 35.7378 59.9699 35.5722 59.4729 35.8517C59.2228 36.0017 59.0111 36.208 58.8547 36.4542C58.6984 36.7005 58.6016 36.9798 58.5723 37.27Z" fill="#F3F5F5"/>
</g>
<defs>
<linearGradient id="paint0_linear" x1="2509.71" y1="1363.07" x2="3189.5" y2="1363.07" gradientUnits="userSpaceOnUse">
<stop stop-color="#B2B9BB"/>
<stop offset="1" stop-color="#D6DCDD"/>
</linearGradient>
<linearGradient id="paint1_linear" x1="1631.01" y1="1884.42" x2="1876.85" y2="1884.42" gradientUnits="userSpaceOnUse">
<stop stop-color="#B2B9BB"/>
<stop offset="1" stop-color="#D6DCDD"/>
</linearGradient>
<linearGradient id="paint2_linear" x1="1386.08" y1="1881.86" x2="1555.17" y2="1881.86" gradientUnits="userSpaceOnUse">
<stop stop-color="#222220"/>
<stop offset="1" stop-color="#363633"/>
</linearGradient>
<linearGradient id="paint3_linear" x1="98.8236" y1="50.5832" x2="103.399" y2="58.5132" gradientUnits="userSpaceOnUse">
<stop stop-color="#B6BDBE"/>
<stop offset="1" stop-color="#9DA5A8"/>
</linearGradient>
<linearGradient id="paint4_linear" x1="896.659" y1="332.365" x2="928.662" y2="332.365" gradientUnits="userSpaceOnUse">
<stop stop-color="#B2B9BB"/>
<stop offset="1" stop-color="#D6DCDD"/>
</linearGradient>
<linearGradient id="paint5_linear" x1="657.047" y1="1203.74" x2="671.957" y2="1203.74" gradientUnits="userSpaceOnUse">
<stop stop-color="#222220"/>
<stop offset="1" stop-color="#363633"/>
</linearGradient>
<linearGradient id="paint6_linear" x1="896.659" y1="302.968" x2="928.662" y2="302.968" gradientUnits="userSpaceOnUse">
<stop stop-color="#B2B9BB"/>
<stop offset="1" stop-color="#D6DCDD"/>
</linearGradient>
<linearGradient id="paint7_linear" x1="1020.02" y1="333.038" x2="1063.22" y2="333.038" gradientUnits="userSpaceOnUse">
<stop stop-color="#B2B9BB"/>
<stop offset="1" stop-color="#D6DCDD"/>
</linearGradient>
<linearGradient id="paint8_linear" x1="861.572" y1="817.501" x2="890.873" y2="817.501" gradientUnits="userSpaceOnUse">
<stop stop-color="#B2B9BB"/>
<stop offset="1" stop-color="#D6DCDD"/>
</linearGradient>
<linearGradient id="paint9_linear" x1="1201.99" y1="1091.11" x2="1220.85" y2="1091.11" gradientUnits="userSpaceOnUse">
<stop stop-color="#B2B9BB"/>
<stop offset="1" stop-color="#D6DCDD"/>
</linearGradient>
<linearGradient id="paint10_linear" x1="1037.68" y1="619.921" x2="1086.31" y2="698.693" gradientUnits="userSpaceOnUse">
<stop stop-color="#B6BDBE"/>
<stop offset="1" stop-color="#9DA5A8"/>
</linearGradient>
<linearGradient id="paint11_linear" x1="134.852" y1="78.3906" x2="136.726" y2="75.0674" gradientUnits="userSpaceOnUse">
<stop stop-color="#D6DCDD"/>
<stop offset="0.05" stop-color="#CDD3D5"/>
<stop offset="0.17" stop-color="#B9C0C2"/>
<stop offset="0.26" stop-color="#B2B9BB"/>
<stop offset="0.29" stop-color="#B6BDBE"/>
<stop offset="0.6" stop-color="#DBDFE0"/>
<stop offset="0.77" stop-color="#E9ECED"/>
</linearGradient>
<linearGradient id="paint12_linear" x1="137.597" y1="75.6261" x2="136.055" y2="78.9596" gradientUnits="userSpaceOnUse">
<stop stop-color="#99F0FF"/>
<stop offset="0.09" stop-color="#91E3F1"/>
<stop offset="0.72" stop-color="#58868D"/>
<stop offset="1" stop-color="#416166"/>
</linearGradient>
<radialGradient id="paint13_radial" cx="0" cy="0" r="1" gradientUnits="userSpaceOnUse" gradientTransform="translate(2599.67 390.581) rotate(-30.0474) scale(219.865 93.3827)">
<stop stop-color="#96FFFA"/>
<stop offset="0.18" stop-color="#14B5AD"/>
<stop offset="0.28" stop-color="#0F8882"/>
<stop offset="0.4" stop-color="#0A5F5A"/>
<stop offset="0.51" stop-color="#073C3A"/>
<stop offset="0.63" stop-color="#042220"/>
<stop offset="0.75" stop-color="#020F0E"/>
<stop offset="0.87" stop-color="#000404"/>
<stop offset="1"/>
</radialGradient>
<linearGradient id="paint14_linear" x1="655.567" y1="1839.64" x2="806.703" y2="1839.64" gradientUnits="userSpaceOnUse">
<stop stop-color="#B2B9BB"/>
<stop offset="1" stop-color="#D6DCDD"/>
</linearGradient>
<linearGradient id="paint15_linear" x1="623.821" y1="734.748" x2="650.482" y2="732.081" gradientUnits="userSpaceOnUse">
<stop stop-color="#B2B9BB"/>
<stop offset="1" stop-color="#D6DCDD"/>
</linearGradient>
<linearGradient id="paint16_linear" x1="797.195" y1="985.887" x2="843.003" y2="981.279" gradientUnits="userSpaceOnUse">
<stop stop-color="#B2B9BB"/>
<stop offset="1" stop-color="#D6DCDD"/>
</linearGradient>
<linearGradient id="paint17_linear" x1="59.4826" y1="26.4617" x2="66.9986" y2="17.4032" gradientUnits="userSpaceOnUse">
<stop stop-color="#B2B9BB"/>
<stop offset="0.45" stop-color="#D6DCDD"/>
<stop offset="1" stop-color="#E9ECED"/>
</linearGradient>
<linearGradient id="paint18_linear" x1="1155.08" y1="1424.06" x2="1400.69" y2="1424.06" gradientUnits="userSpaceOnUse">
<stop stop-color="#B2B9BB"/>
<stop offset="1" stop-color="#D6DCDD"/>
</linearGradient>
<linearGradient id="paint19_linear" x1="989.209" y1="3993.7" x2="1095.2" y2="3989.33" gradientUnits="userSpaceOnUse">
<stop stop-color="#B2B9BB"/>
<stop offset="1" stop-color="#D6DCDD"/>
</linearGradient>
<linearGradient id="paint20_linear" x1="1126.46" y1="1130.63" x2="1570.53" y2="1130.63" gradientUnits="userSpaceOnUse">
<stop stop-color="#B2B9BB"/>
<stop offset="1" stop-color="#D6DCDD"/>
</linearGradient>
<radialGradient id="paint21_radial" cx="0" cy="0" r="1" gradientUnits="userSpaceOnUse" gradientTransform="translate(1486.91 988.467) scale(377.814 318.686)">
<stop stop-color="#E9ECED"/>
<stop offset="1"/>
</radialGradient>
<linearGradient id="paint22_linear" x1="1177.61" y1="1328.2" x2="1714.71" y2="1328.2" gradientUnits="userSpaceOnUse">
<stop stop-color="#B2B9BB"/>
<stop offset="1" stop-color="#D6DCDD"/>
</linearGradient>
<radialGradient id="paint23_radial" cx="0" cy="0" r="1" gradientUnits="userSpaceOnUse" gradientTransform="translate(1612.94 756.234) scale(801.161 1209.73)">
<stop stop-color="#E9ECED"/>
<stop offset="1"/>
</radialGradient>
<linearGradient id="paint24_linear" x1="725.817" y1="4654.03" x2="862.649" y2="4655.47" gradientUnits="userSpaceOnUse">
<stop stop-color="#B2B9BB"/>
<stop offset="1" stop-color="#D6DCDD"/>
</linearGradient>
<linearGradient id="paint25_linear" x1="315.363" y1="1335.79" x2="350.322" y2="1337.29" gradientUnits="userSpaceOnUse">
<stop stop-color="#B2B9BB"/>
<stop offset="1" stop-color="#D6DCDD"/>
</linearGradient>
<linearGradient id="paint26_linear" x1="312.346" y1="934.275" x2="355.616" y2="934.275" gradientUnits="userSpaceOnUse">
<stop stop-color="#B2B9BB"/>
<stop offset="1" stop-color="#D6DCDD"/>
</linearGradient>
<linearGradient id="paint27_linear" x1="498.135" y1="425.532" x2="579.938" y2="375.463" gradientUnits="userSpaceOnUse">
<stop stop-color="#B2B9BB"/>
<stop offset="0.45" stop-color="#D6DCDD"/>
<stop offset="1" stop-color="#E9ECED"/>
</linearGradient>
<linearGradient id="paint28_linear" x1="872.763" y1="183.426" x2="1131.66" y2="183.426" gradientUnits="userSpaceOnUse">
<stop stop-color="#B2B9BB"/>
<stop offset="1" stop-color="#D6DCDD"/>
</linearGradient>
<linearGradient id="paint29_linear" x1="879.769" y1="139.44" x2="702.453" y2="290.341" gradientUnits="userSpaceOnUse">
<stop stop-color="#E9ECED"/>
<stop offset="1" stop-color="#D6DCDD"/>
</linearGradient>
<radialGradient id="paint30_radial" cx="0" cy="0" r="1" gradientUnits="userSpaceOnUse" gradientTransform="translate(1641.79 262.793) rotate(-30.1137) scale(338.952 293.036)">
<stop stop-color="#96FFFA"/>
<stop offset="0.18" stop-color="#14B5AD"/>
<stop offset="0.28" stop-color="#0F8882"/>
<stop offset="0.4" stop-color="#0A5F5A"/>
<stop offset="0.51" stop-color="#073C3A"/>
<stop offset="0.63" stop-color="#042220"/>
<stop offset="0.75" stop-color="#020F0E"/>
<stop offset="0.87" stop-color="#000404"/>
<stop offset="1"/>
</radialGradient>
</defs>
</svg>
